<?xml version="1.0" encoding="utf-8"?>
<!-- Generator: Adobe Illustrator 24.2.0, SVG Export Plug-In . SVG Version: 6.00 Build 0)  -->
<svg version="1.1" id="Layer_1" xmlns="http://www.w3.org/2000/svg" xmlns:xlink="http://www.w3.org/1999/xlink" x="0px" y="0px"
	 viewBox="0 0 52 38" style="enable-background:new 0 0 52 38;" xml:space="preserve">
<style type="text/css">
	.st0{fill:#FFFFFF;}
</style>
<g>
	<g>
		<polygon points="39.9,26 18,26 18,8.3 39.2,6.6 39.2,7.6 19,9.3 19,25 39.1,25 46.2,0 52,0 52,1 47,1 		"/>
		<path d="M21,38c-1.7,0-3-1.3-3-3s1.3-3,3-3s3,1.3,3,3S22.7,38,21,38z M21,33c-1.1,0-2,0.9-2,2s0.9,2,2,2s2-0.9,2-2S22.1,33,21,33z
			"/>
		<path d="M38,38c-1.7,0-3-1.3-3-3s1.3-3,3-3s3,1.3,3,3S39.7,38,38,38z M38,33c-1.1,0-2,0.9-2,2s0.9,2,2,2s2-0.9,2-2S39.1,33,38,33z
			"/>
		<polygon points="41.7,30 18,30 18,29 40.3,29 39,25.7 40,25.3 		"/>
	</g>
</g>
<g>
	<path class="st0" d="M30.4,7.8c-0.6-4.2-4.4-7.3-8.7-7.3H8.8l0,0C4.2,0.6,0.5,4.4,0.5,9s3.7,8.4,8.3,8.5l0,0H22
		C27.1,17.5,31.2,13,30.4,7.8z"/>
	<path d="M22,18H8.8C3.9,17.9,0,13.9,0,9s3.9-8.9,8.8-9h12.9c4.6,0,8.6,3.3,9.2,7.7c0.4,2.6-0.3,5.2-2,7.1C27.1,16.9,24.6,18,22,18z
		 M8.8,1C4.5,1.1,1,4.7,1,9s3.5,7.9,7.8,8H22c2.3,0,4.6-1,6.1-2.8s2.2-4,1.8-6.3l0,0C29.3,4,25.8,1,21.7,1L8.8,1L8.8,1z"/>
</g>
</svg>
