<svg aria-hidden="true" style="position: absolute; width: 0; height: 0; overflow: hidden;" version="1.1" xmlns="http://www.w3.org/2000/svg" xmlns:xlink="http://www.w3.org/1999/xlink">
	<defs>
		<symbol id="contract" viewBox="0 0 64 64">
			<path fill="currentColor" d="m63 21.536c0-2.501-2.035-4.536-4.536-4.536-1.211 0-2.351.472-3.207 1.329l-2.964 2.964-3.293 3.293v-9.666c3.387-.488 6-3.401 6-6.92 0-3.86-3.14-7-7-7h-40c-3.86 0-7 3.14-7 7v50c0 .552.448 1 1 1h5v3c0 .552.448 1 1 1h40c.552 0 1-.448 1-1v-24.586l9.707-9.707 1.027-1.027c-.518 2.58-1.781 4.952-3.683 6.855l-4.757 4.757 1.414 1.414 4.757-4.757c2.838-2.838 4.425-6.586 4.518-10.585.647-.802 1.017-1.782 1.017-2.828zm-6.329-1.793c.479-.479 1.116-.743 1.793-.743 1.398 0 2.536 1.138 2.536 2.536 0 .677-.264 1.314-.743 1.793l-2.257 2.257-3.586-3.586zm-3.671 3.671 1.086 1.086-12.586 12.586-1.086-1.086zm-23.783 26.389 2.057-4.115 3.038 3.038-4.115 2.057zm3.197-5.803 6.586-6.586 3.586 3.586-6.586 6.586zm15.586-41c2.757 0 5 2.243 5 5s-2.243 5-5 5h-35.11c1.3-1.272 2.11-3.042 2.11-5s-.81-3.728-2.11-5zm-39 9.899v-2.899c0-.551.449-1 1-1h2.899c-.399 1.956-1.943 3.5-3.899 3.899zm-6 44.101v-49c0-2.757 2.243-5 5-5 2.414 0 4.434 1.721 4.899 4h-2.899c-1.654 0-3 1.346-3 3v47zm44 4h-38v-46h38v11.586l-4.414 4.414h-29.586v2h27.586l-2 2h-25.586v2h23.586l-6.293 6.293c-.078.078-.129.171-.176.265l-.011-.006-3 6c-.192.385-.117.85.188 1.154l.292.294-2.293 2.293 1.414 1.414 2.293-2.293.293.293c.192.192.448.293.707.293.151 0 .305-.035.447-.105l6-3-.006-.011c.094-.047.187-.098.265-.176l8-8 2.294-2.294zm-3-21.414-1.086-1.086 12.586-12.586 1.086 1.086z"/>
			<path fill="currentColor" d="m13 19h30v2h-30z"/>
			<path fill="currentColor" d="m13 23h30v2h-30z"/>
			<path fill="currentColor" d="m13 27h30v2h-30z"/>
			<path fill="currentColor" d="m13 51h11v2h-11z"/>
			<path fill="currentColor" d="m13 55h30v2h-30z"/>
		</symbol>
		<symbol id="trash" viewBox="0 0 448 512">
			<path fill="currentColor" d="M268 416h24a12 12 0 0 0 12-12V188a12 12 0 0 0-12-12h-24a12 12 0 0 0-12 12v216a12 12 0 0 0 12 12zM432 80h-82.41l-34-56.7A48 48 0 0 0 274.41 0H173.59a48 48 0 0 0-41.16 23.3L98.41 80H16A16 16 0 0 0 0 96v16a16 16 0 0 0 16 16h16v336a48 48 0 0 0 48 48h288a48 48 0 0 0 48-48V128h16a16 16 0 0 0 16-16V96a16 16 0 0 0-16-16zM171.84 50.91A6 6 0 0 1 177 48h94a6 6 0 0 1 5.15 2.91L293.61 80H154.39zM368 464H80V128h288zm-212-48h24a12 12 0 0 0 12-12V188a12 12 0 0 0-12-12h-24a12 12 0 0 0-12 12v216a12 12 0 0 0 12 12z" class=""></path>
		</symbol>
		<symbol id="clock" viewBox="0 0 512 512">
			<path fill="currentColor" d="M256 8C119 8 8 119 8 256s111 248 248 248 248-111 248-248S393 8 256 8zm216 248c0 118.7-96.1 216-216 216-118.7 0-216-96.1-216-216 0-118.7 96.1-216 216-216 118.7 0 216 96.1 216 216zm-148.9 88.3l-81.2-59c-3.1-2.3-4.9-5.9-4.9-9.7V116c0-6.6 5.4-12 12-12h14c6.6 0 12 5.4 12 12v146.3l70.5 51.3c5.4 3.9 6.5 11.4 2.6 16.8l-8.2 11.3c-3.9 5.3-11.4 6.5-16.8 2.6z" class=""></path>
		</symbol>
		<symbol id="filter" viewBox="0 0 512 512">
			<path fill="currentColor" d="M479.968 0H32.038C3.613 0-10.729 34.487 9.41 54.627L192 237.255V424a31.996 31.996 0 0 0 10.928 24.082l64 55.983c20.438 17.883 53.072 3.68 53.072-24.082V237.255L502.595 54.627C522.695 34.528 508.45 0 479.968 0zM288 224v256l-64-56V224L32 32h448L288 224z" class=""></path>
		</symbol>
		<symbol id="redo" viewBox="0 0 512 512">
			<path fill="currentColor" d="M483.515 28.485L431.35 80.65C386.475 35.767 324.485 8 256.001 8 119.34 8 7.9 119.525 8 256.185 8.1 393.067 119.095 504 256 504c63.926 0 122.202-24.187 166.178-63.908 5.113-4.618 5.353-12.561.482-17.433l-19.738-19.738c-4.498-4.498-11.753-4.785-16.501-.552C351.787 433.246 306.105 452 256 452c-108.321 0-196-87.662-196-196 0-108.321 87.662-196 196-196 54.163 0 103.157 21.923 138.614 57.386l-54.128 54.129c-7.56 7.56-2.206 20.485 8.485 20.485H492c6.627 0 12-5.373 12-12V36.971c0-10.691-12.926-16.045-20.485-8.486z" class=""></path>
		</symbol>
		<symbol id="minus" viewBox="0 0 384 512">
			<path fill="currentColor" d="M376 232H8c-4.42 0-8 3.58-8 8v32c0 4.42 3.58 8 8 8h368c4.42 0 8-3.58 8-8v-32c0-4.42-3.58-8-8-8z"></path>
		</symbol>
		<symbol id="plus" viewBox="0 0 384 512">
			<path fill="currentColor" d="M376 232H216V72c0-4.42-3.58-8-8-8h-32c-4.42 0-8 3.58-8 8v160H8c-4.42 0-8 3.58-8 8v32c0 4.42 3.58 8 8 8h160v160c0 4.42 3.58 8 8 8h32c4.42 0 8-3.58 8-8V280h160c4.42 0 8-3.58 8-8v-32c0-4.42-3.58-8-8-8z"></path>
		</symbol>
		<symbol id="home" viewBox="0 0 307 307">
			<path fill="currentColor" d="M302.93,149.794c5.561-6.116,5.024-15.49-1.199-20.932L164.63,8.898 c-6.223-5.442-16.2-5.328-22.292,0.257L4.771,135.258c-6.092,5.585-6.391,14.947-0.662,20.902l3.449,3.592 c5.722,5.955,14.971,6.665,20.645,1.581l10.281-9.207v134.792c0,8.27,6.701,14.965,14.965,14.965h53.624 c8.264,0,14.965-6.695,14.965-14.965v-94.3h68.398v94.3c-0.119,8.264,5.794,14.959,14.058,14.959h56.828 c8.264,0,14.965-6.695,14.965-14.965V154.024c0,0,2.84,2.488,6.343,5.567c3.497,3.073,10.842,0.609,16.403-5.513L302.93,149.794z"/>
		</symbol>
		<symbol id="call" viewBox="0 0 512 512">
			<path fill="currentColor" d="M499.639,396.039l-103.646-69.12c-13.153-8.701-30.784-5.838-40.508,6.579l-30.191,38.818
				c-3.88,5.116-10.933,6.6-16.546,3.482l-5.743-3.166c-19.038-10.377-42.726-23.296-90.453-71.04s-60.672-71.45-71.049-90.453
				l-3.149-5.743c-3.161-5.612-1.705-12.695,3.413-16.606l38.792-30.182c12.412-9.725,15.279-27.351,6.588-40.508l-69.12-103.646
				C109.12,1.056,91.25-2.966,77.461,5.323L34.12,31.358C20.502,39.364,10.511,52.33,6.242,67.539
				c-15.607,56.866-3.866,155.008,140.706,299.597c115.004,114.995,200.619,145.92,259.465,145.92
				c13.543,0.058,27.033-1.704,40.107-5.239c15.212-4.264,28.18-14.256,36.181-27.878l26.061-43.315
				C517.063,422.832,513.043,404.951,499.639,396.039z M494.058,427.868l-26.001,43.341c-5.745,9.832-15.072,17.061-26.027,20.173
				c-52.497,14.413-144.213,2.475-283.008-136.32S8.29,124.559,22.703,72.054c3.116-10.968,10.354-20.307,20.198-26.061
				l43.341-26.001c5.983-3.6,13.739-1.855,17.604,3.959l37.547,56.371l31.514,47.266c3.774,5.707,2.534,13.356-2.85,17.579
				l-38.801,30.182c-11.808,9.029-15.18,25.366-7.91,38.332l3.081,5.598c10.906,20.002,24.465,44.885,73.967,94.379
				c49.502,49.493,74.377,63.053,94.37,73.958l5.606,3.089c12.965,7.269,29.303,3.898,38.332-7.91l30.182-38.801
				c4.224-5.381,11.87-6.62,17.579-2.85l103.637,69.12C495.918,414.126,497.663,421.886,494.058,427.868z"/>
			<path fill="currentColor" d="M291.161,86.39c80.081,0.089,144.977,64.986,145.067,145.067c0,4.713,3.82,8.533,8.533,8.533s8.533-3.82,8.533-8.533
				c-0.099-89.503-72.63-162.035-162.133-162.133c-4.713,0-8.533,3.82-8.533,8.533S286.448,86.39,291.161,86.39z"/>
			<path fill="currentColor" d="M291.161,137.59c51.816,0.061,93.806,42.051,93.867,93.867c0,4.713,3.821,8.533,8.533,8.533
				c4.713,0,8.533-3.82,8.533-8.533c-0.071-61.238-49.696-110.863-110.933-110.933c-4.713,0-8.533,3.82-8.533,8.533
				S286.448,137.59,291.161,137.59z"/>
			<path fill="currentColor" d="M291.161,188.79c23.552,0.028,42.638,19.114,42.667,42.667c0,4.713,3.821,8.533,8.533,8.533s8.533-3.82,8.533-8.533
				c-0.038-32.974-26.759-59.696-59.733-59.733c-4.713,0-8.533,3.82-8.533,8.533S286.448,188.79,291.161,188.79z"/>
		</symbol>
		<symbol id="arrow-location" viewBox="0 0 448 448">
			<path fill="currentColor" d="M438.731,209.463l-416-192c-6.624-3.008-14.528-1.216-19.136,4.48c-4.64,5.696-4.8,13.792-0.384,19.648l136.8,182.4
			l-136.8,182.4c-4.416,5.856-4.256,13.984,0.352,19.648c3.104,3.872,7.744,5.952,12.448,5.952c2.272,0,4.544-0.48,6.688-1.472
			l416-192c5.696-2.624,9.312-8.288,9.312-14.528S444.395,212.087,438.731,209.463z"/>
		</symbol>
		<symbol id="thumb-up" viewBox="0 0 512 512">
			<path fill="currentColor" d="M104 224H24c-13.255 0-24 10.745-24 24v240c0 13.255 10.745 24 24 24h80c13.255 0 24-10.745 24-24V248c0-13.255-10.745-24-24-24zM64 472c-13.255 0-24-10.745-24-24s10.745-24 24-24 24 10.745 24 24-10.745 24-24 24zM384 81.452c0 42.416-25.97 66.208-33.277 94.548h101.723c33.397 0 59.397 27.746 59.553 58.098.084 17.938-7.546 37.249-19.439 49.197l-.11.11c9.836 23.337 8.237 56.037-9.308 79.469 8.681 25.895-.069 57.704-16.382 74.757 4.298 17.598 2.244 32.575-6.148 44.632C440.202 511.587 389.616 512 346.839 512l-2.845-.001c-48.287-.017-87.806-17.598-119.56-31.725-15.957-7.099-36.821-15.887-52.651-16.178-6.54-.12-11.783-5.457-11.783-11.998v-213.77c0-3.2 1.282-6.271 3.558-8.521 39.614-39.144 56.648-80.587 89.117-113.111 14.804-14.832 20.188-37.236 25.393-58.902C282.515 39.293 291.817 0 312 0c24 0 72 8 72 81.452z" class=""></path>
		</symbol>
		<symbol id="align-center" viewBox="0 0 448 512">
			<path fill="currentColor" d="M344 48H104a8 8 0 0 0-8 8v16a8 8 0 0 0 8 8h240a8 8 0 0 0 8-8V56a8 8 0 0 0-8-8zm96 384H8a8 8 0 0 0-8 8v16a8 8 0 0 0 8 8h432a8 8 0 0 0 8-8v-16a8 8 0 0 0-8-8zm-96-128H104a8 8 0 0 0-8 8v16a8 8 0 0 0 8 8h240a8 8 0 0 0 8-8v-16a8 8 0 0 0-8-8zm96-128H8a8 8 0 0 0-8 8v16a8 8 0 0 0 8 8h432a8 8 0 0 0 8-8v-16a8 8 0 0 0-8-8z" class=""></path>
		</symbol>
		<symbol id="eye" viewBox="0 0 576 512">
			<path fill="currentColor" d="M572.52 241.4C518.29 135.59 410.93 64 288 64S57.68 135.64 3.48 241.41a32.35 32.35 0 0 0 0 29.19C57.71 376.41 165.07 448 288 448s230.32-71.64 284.52-177.41a32.35 32.35 0 0 0 0-29.19zM288 400a144 144 0 1 1 144-144 143.93 143.93 0 0 1-144 144zm0-240a95.31 95.31 0 0 0-25.31 3.79 47.85 47.85 0 0 1-66.9 66.9A95.78 95.78 0 1 0 288 160z" class=""></path>
		</symbol>
		<symbol id="comment-dots" viewBox="0 0 512 512">
			<path fill="currentColor" d="M144 208c-17.7 0-32 14.3-32 32s14.3 32 32 32 32-14.3 32-32-14.3-32-32-32zm112 0c-17.7 0-32 14.3-32 32s14.3 32 32 32 32-14.3 32-32-14.3-32-32-32zm112 0c-17.7 0-32 14.3-32 32s14.3 32 32 32 32-14.3 32-32-14.3-32-32-32zM256 32C114.6 32 0 125.1 0 240c0 47.6 19.9 91.2 52.9 126.3C38 405.7 7 439.1 6.5 439.5c-6.6 7-8.4 17.2-4.6 26S14.4 480 24 480c61.5 0 110-25.7 139.1-46.3C192 442.8 223.2 448 256 448c141.4 0 256-93.1 256-208S397.4 32 256 32zm0 368c-26.7 0-53.1-4.1-78.4-12.1l-22.7-7.2-19.5 13.8c-14.3 10.1-33.9 21.4-57.5 29 7.3-12.1 14.4-25.7 19.9-40.2l10.6-28.1-20.6-21.8C69.7 314.1 48 282.2 48 240c0-88.2 93.3-160 208-160s208 71.8 208 160-93.3 160-208 160z" class=""></path>
		</symbol>
		<symbol id="ruble-sign" viewBox="0 0 384 512">
			<path fill="currentColor" d="M245.712 287.809c80.296 0 138.288-50.323 138.288-128.803C384 81.125 326.009 32 245.712 32H108c-6.627 0-12 5.373-12 12v204H12c-6.627 0-12 5.373-12 12v16c0 6.627 5.373 12 12 12h84v58H12c-6.627 0-12 5.373-12 12v14c0 6.627 5.373 12 12 12h84v84c0 6.627 5.373 12 12 12h19.971c6.627 0 12-5.373 12-12v-84H308c6.627 0 12-5.373 12-12v-14c0-6.627-5.373-12-12-12H139.971v-58.191h105.741zM139.971 71.594h104.643c59.266 0 98.14 31.979 98.14 87.215 0 55.818-38.873 88.96-98.777 88.96H139.971V71.594z" class=""></path>
		</symbol>
		<symbol id="at" viewBox="0 0 512 512">
			<path fill="currentColor" d="M504 232C504 95.751 394.053 8 256 8 118.94 8 8 118.919 8 256c0 137.059 110.919 248 248 248 52.926 0 104.681-17.079 147.096-48.321 5.501-4.052 6.423-11.924 2.095-17.211l-15.224-18.597c-4.055-4.954-11.249-5.803-16.428-2.041C339.547 442.517 298.238 456 256 456c-110.28 0-200-89.72-200-200S145.72 56 256 56c109.469 0 200 65.02 200 176 0 63.106-42.478 98.29-83.02 98.29-19.505 0-20.133-12.62-16.366-31.463l28.621-148.557c1.426-7.402-4.245-14.27-11.783-14.27h-39.175a12.005 12.005 0 0 0-11.784 9.735c-1.102 5.723-1.661 8.336-2.28 13.993-11.923-19.548-35.878-31.068-65.202-31.068C183.412 128.66 120 191.149 120 281.53c0 61.159 32.877 102.11 93.18 102.11 29.803 0 61.344-16.833 79.749-42.239 4.145 30.846 28.497 38.01 59.372 38.01C451.467 379.41 504 315.786 504 232zm-273.9 97.35c-28.472 0-45.47-19.458-45.47-52.05 0-57.514 39.56-93.41 74.61-93.41 30.12 0 45.471 21.532 45.471 51.58 0 46.864-33.177 93.88-74.611 93.88z" class=""></path>
		</symbol>
		<symbol id="at-light" viewBox="0 0 206 206">
			<path fill="currentColor" d="M102.996,61.363c22.958,0,41.635,18.678,41.635,41.635c0,3.313,2.687,6,6,6s6-2.687,6-6 c0-29.574-24.061-53.635-53.635-53.635S49.36,73.424,49.36,102.998s24.061,53.635,53.635,53.635 c18.99,0,36.745-10.195,46.336-26.607c1.672-2.861,0.708-6.535-2.153-8.208c-2.86-1.67-6.535-0.707-8.208,2.153 c-7.448,12.745-21.233,20.662-35.976,20.662c-22.958,0-41.635-18.678-41.635-41.635S80.038,61.363,102.996,61.363z"/>
			<path fill="currentColor" d="M205.698,95.053c-3.76-50.059-44.326-90.782-94.359-94.727C81.095-2.059,51.51,8.817,30.163,30.165 C8.815,51.513-2.061,81.1,0.324,111.341c3.931,49.847,44.483,90.399,94.329,94.329c2.747,0.217,5.484,0.323,8.214,0.323 c27.329,0,53.553-10.753,72.962-30.161c2.343-2.344,2.343-6.143,0-8.485s-6.142-2.344-8.485-0.001 c-18.862,18.861-45.012,28.47-71.747,26.361c-44.023-3.471-79.838-39.286-83.31-83.31c-2.108-26.735,7.5-52.887,26.361-71.747 c18.861-18.861,45.008-28.473,71.747-26.361c44.189,3.483,80.016,39.451,83.337,83.662c0.455,6.057,0.321,12.142-0.397,18.086 c-0.762,6.304-4.578,11.805-10.208,14.713c-5.095,2.633-10.819,2.623-15.706-0.026c-2.913-1.582-6.556-0.499-8.134,2.415 c-1.58,2.913-0.499,6.555,2.415,8.134c8.435,4.573,18.251,4.623,26.933,0.139c9.164-4.734,15.375-13.682,16.613-23.935 C206.06,108.758,206.211,101.887,205.698,95.053z"/>
		</symbol>
		<symbol id="share-alt" viewBox="0 0 448 512">
			<path fill="currentColor" d="M352 320c-25.6 0-48.9 10-66.1 26.4l-98.3-61.5c5.9-18.8 5.9-39.1 0-57.8l98.3-61.5C303.1 182 326.4 192 352 192c53 0 96-43 96-96S405 0 352 0s-96 43-96 96c0 9.8 1.5 19.6 4.4 28.9l-98.3 61.5C144.9 170 121.6 160 96 160c-53 0-96 43-96 96s43 96 96 96c25.6 0 48.9-10 66.1-26.4l98.3 61.5c-2.9 9.4-4.4 19.1-4.4 28.9 0 53 43 96 96 96s96-43 96-96-43-96-96-96zm0-272c26.5 0 48 21.5 48 48s-21.5 48-48 48-48-21.5-48-48 21.5-48 48-48zM96 304c-26.5 0-48-21.5-48-48s21.5-48 48-48 48 21.5 48 48-21.5 48-48 48zm256 160c-26.5 0-48-21.5-48-48s21.5-48 48-48 48 21.5 48 48-21.5 48-48 48z" class=""></path>
		</symbol>
		<symbol id="sign-out-alt" viewBox="0 0 512 512">
			<path fill="currentColor" d="M160 217.1c0-8.8 7.2-16 16-16h144v-93.9c0-7.1 8.6-10.7 13.6-5.7l141.6 143.1c6.3 6.3 6.3 16.4 0 22.7L333.6 410.4c-5 5-13.6 1.5-13.6-5.7v-93.9H176c-8.8 0-16-7.2-16-16v-77.7m-32 0v77.7c0 26.5 21.5 48 48 48h112v61.9c0 35.5 43 53.5 68.2 28.3l141.7-143c18.8-18.8 18.8-49.2 0-68L356.2 78.9c-25.1-25.1-68.2-7.3-68.2 28.3v61.9H176c-26.5 0-48 21.6-48 48zM0 112v288c0 26.5 21.5 48 48 48h132c6.6 0 12-5.4 12-12v-8c0-6.6-5.4-12-12-12H48c-8.8 0-16-7.2-16-16V112c0-8.8 7.2-16 16-16h132c6.6 0 12-5.4 12-12v-8c0-6.6-5.4-12-12-12H48C21.5 64 0 85.5 0 112z" class=""></path>
		</symbol>
		<symbol id="facebook-f" viewBox="0 0 320 512">
			<path fill="currentColor" d="M279.14 288l14.22-92.66h-88.91v-60.13c0-25.35 12.42-50.06 52.24-50.06h40.42V6.26S260.43 0 225.36 0c-73.22 0-121.08 44.38-121.08 124.72v70.62H22.89V288h81.39v224h100.17V288z" class=""></path>
		</symbol>

		<symbol id="twitter" viewBox="0 0 512 512">
			<path fill="currentColor" d="M459.37 151.716c.325 4.548.325 9.097.325 13.645 0 138.72-105.583 298.558-298.558 298.558-59.452 0-114.68-17.219-161.137-47.106 8.447.974 16.568 1.299 25.34 1.299 49.055 0 94.213-16.568 130.274-44.832-46.132-.975-84.792-31.188-98.112-72.772 6.498.974 12.995 1.624 19.818 1.624 9.421 0 18.843-1.3 27.614-3.573-48.081-9.747-84.143-51.98-84.143-102.985v-1.299c13.969 7.797 30.214 12.67 47.431 13.319-28.264-18.843-46.781-51.005-46.781-87.391 0-19.492 5.197-37.36 14.294-52.954 51.655 63.675 129.3 105.258 216.365 109.807-1.624-7.797-2.599-15.918-2.599-24.04 0-57.828 46.782-104.934 104.934-104.934 30.213 0 57.502 12.67 76.67 33.137 23.715-4.548 46.456-13.32 66.599-25.34-7.798 24.366-24.366 44.833-46.132 57.827 21.117-2.273 41.584-8.122 60.426-16.243-14.292 20.791-32.161 39.308-52.628 54.253z"></path>
		</symbol>

		<symbol id="whatsapp" viewBox="0 0 448 512">
			<path fill="currentColor" d="M380.9 97.1C339 55.1 283.2 32 223.9 32c-122.4 0-222 99.6-222 222 0 39.1 10.2 77.3 29.6 111L0 480l117.7-30.9c32.4 17.7 68.9 27 106.1 27h.1c122.3 0 224.1-99.6 224.1-222 0-59.3-25.2-115-67.1-157zm-157 341.6c-33.2 0-65.7-8.9-94-25.7l-6.7-4-69.8 18.3L72 359.2l-4.4-7c-18.5-29.4-28.2-63.3-28.2-98.2 0-101.7 82.8-184.5 184.6-184.5 49.3 0 95.6 19.2 130.4 54.1 34.8 34.9 56.2 81.2 56.1 130.5 0 101.8-84.9 184.6-186.6 184.6zm101.2-138.2c-5.5-2.8-32.8-16.2-37.9-18-5.1-1.9-8.8-2.8-12.5 2.8-3.7 5.6-14.3 18-17.6 21.8-3.2 3.7-6.5 4.2-12 1.4-32.6-16.3-54-29.1-75.5-66-5.7-9.8 5.7-9.1 16.3-30.3 1.8-3.7.9-6.9-.5-9.7-1.4-2.8-12.5-30.1-17.1-41.2-4.5-10.8-9.1-9.3-12.5-9.5-3.2-.2-6.9-.2-10.6-.2-3.7 0-9.7 1.4-14.8 6.9-5.1 5.6-19.4 19-19.4 46.3 0 27.3 19.9 53.7 22.6 57.4 2.8 3.7 39.1 59.7 94.8 83.8 35.2 15.2 49 16.5 66.6 13.9 10.7-1.6 32.8-13.4 37.4-26.4 4.6-13 4.6-24.1 3.2-26.4-1.3-2.5-5-3.9-10.5-6.6z"></path>
		</symbol>

		<symbol id="odnoklasniki" viewBox="0 0 320 512">
			<path fill="currentColor" d="M275.1 334c-27.4 17.4-65.1 24.3-90 26.9l20.9 20.6 76.3 76.3c27.9 28.6-17.5 73.3-45.7 45.7-19.1-19.4-47.1-47.4-76.3-76.6L84 503.4c-28.2 27.5-73.6-17.6-45.4-45.7 19.4-19.4 47.1-47.4 76.3-76.3l20.6-20.6c-24.6-2.6-62.9-9.1-90.6-26.9-32.6-21-46.9-33.3-34.3-59 7.4-14.6 27.7-26.9 54.6-5.7 0 0 36.3 28.9 94.9 28.9s94.9-28.9 94.9-28.9c26.9-21.1 47.1-8.9 54.6 5.7 12.4 25.7-1.9 38-34.5 59.1zM30.3 129.7C30.3 58 88.6 0 160 0s129.7 58 129.7 129.7c0 71.4-58.3 129.4-129.7 129.4s-129.7-58-129.7-129.4zm66 0c0 35.1 28.6 63.7 63.7 63.7s63.7-28.6 63.7-63.7c0-35.4-28.6-64-63.7-64s-63.7 28.6-63.7 64z"></path>
		</symbol>

		<symbol id="vk" viewBox="0 0 576 512">
			<path fill="currentColor" d="M545 117.7c3.7-12.5 0-21.7-17.8-21.7h-58.9c-15 0-21.9 7.9-25.6 16.7 0 0-30 73.1-72.4 120.5-13.7 13.7-20 18.1-27.5 18.1-3.7 0-9.4-4.4-9.4-16.9V117.7c0-15-4.2-21.7-16.6-21.7h-92.6c-9.4 0-15 7-15 13.5 0 14.2 21.2 17.5 23.4 57.5v86.8c0 19-3.4 22.5-10.9 22.5-20 0-68.6-73.4-97.4-157.4-5.8-16.3-11.5-22.9-26.6-22.9H38.8c-16.8 0-20.2 7.9-20.2 16.7 0 15.6 20 93.1 93.1 195.5C160.4 378.1 229 416 291.4 416c37.5 0 42.1-8.4 42.1-22.9 0-66.8-3.4-73.1 15.4-73.1 8.7 0 23.7 4.4 58.7 38.1 40 40 46.6 57.9 69 57.9h58.9c16.8 0 25.3-8.4 20.4-25-11.2-34.9-86.9-106.7-90.3-111.5-8.7-11.2-6.2-16.2 0-26.2.1-.1 72-101.3 79.4-135.6z"></path>
		</symbol>

		<symbol id="instagram" viewBox="0 0 448 512">
			<path fill="currentColor" d="M224.1 141c-63.6 0-114.9 51.3-114.9 114.9s51.3 114.9 114.9 114.9S339 319.5 339 255.9 287.7 141 224.1 141zm0 189.6c-41.1 0-74.7-33.5-74.7-74.7s33.5-74.7 74.7-74.7 74.7 33.5 74.7 74.7-33.6 74.7-74.7 74.7zm146.4-194.3c0 14.9-12 26.8-26.8 26.8-14.9 0-26.8-12-26.8-26.8s12-26.8 26.8-26.8 26.8 12 26.8 26.8zm76.1 27.2c-1.7-35.9-9.9-67.7-36.2-93.9-26.2-26.2-58-34.4-93.9-36.2-37-2.1-147.9-2.1-184.9 0-35.8 1.7-67.6 9.9-93.9 36.1s-34.4 58-36.2 93.9c-2.1 37-2.1 147.9 0 184.9 1.7 35.9 9.9 67.7 36.2 93.9s58 34.4 93.9 36.2c37 2.1 147.9 2.1 184.9 0 35.9-1.7 67.7-9.9 93.9-36.2 26.2-26.2 34.4-58 36.2-93.9 2.1-37 2.1-147.8 0-184.8zM398.8 388c-7.8 19.6-22.9 34.7-42.6 42.6-29.5 11.7-99.5 9-132.1 9s-102.7 2.6-132.1-9c-19.6-7.8-34.7-22.9-42.6-42.6-11.7-29.5-9-99.5-9-132.1s-2.6-102.7 9-132.1c7.8-19.6 22.9-34.7 42.6-42.6 29.5-11.7 99.5-9 132.1-9s102.7-2.6 132.1 9c19.6 7.8 34.7 22.9 42.6 42.6 11.7 29.5 9 99.5 9 132.1s2.7 102.7-9 132.1z"></path>
		</symbol>

		<symbol id="youtube" viewBox="0 0 576 512">
			<path fill="currentColor" d="M549.655 124.083c-6.281-23.65-24.787-42.276-48.284-48.597C458.781 64 288 64 288 64S117.22 64 74.629 75.486c-23.497 6.322-42.003 24.947-48.284 48.597-11.412 42.867-11.412 132.305-11.412 132.305s0 89.438 11.412 132.305c6.281 23.65 24.787 41.5 48.284 47.821C117.22 448 288 448 288 448s170.78 0 213.371-11.486c23.497-6.321 42.003-24.171 48.284-47.821 11.412-42.867 11.412-132.305 11.412-132.305s0-89.438-11.412-132.305zm-317.51 213.508V175.185l142.739 81.205-142.739 81.201z"></path>
		</symbol>

		<symbol id="check" viewBox="0 0 512 512">
			<path fill="currentColor" d="M435.848 83.466L172.804 346.51l-96.652-96.652c-4.686-4.686-12.284-4.686-16.971 0l-28.284 28.284c-4.686 4.686-4.686 12.284 0 16.971l133.421 133.421c4.686 4.686 12.284 4.686 16.971 0l299.813-299.813c4.686-4.686 4.686-12.284 0-16.971l-28.284-28.284c-4.686-4.686-12.284-4.686-16.97 0z"></path>
		</symbol>

		<symbol id="check-circle" viewBox="0 0 512 512">
			<path fill="currentColor" d="M256 8C119.033 8 8 119.033 8 256s111.033 248 248 248 248-111.033 248-248S392.967 8 256 8zm0 48c110.532 0 200 89.451 200 200 0 110.532-89.451 200-200 200-110.532 0-200-89.451-200-200 0-110.532 89.451-200 200-200m140.204 130.267l-22.536-22.718c-4.667-4.705-12.265-4.736-16.97-.068L215.346 303.697l-59.792-60.277c-4.667-4.705-12.265-4.736-16.97-.069l-22.719 22.536c-4.705 4.667-4.736 12.265-.068 16.971l90.781 91.516c4.667 4.705 12.265 4.736 16.97.068l172.589-171.204c4.704-4.668 4.734-12.266.067-16.971z" class=""></path>
		</symbol>
		<symbol id="times" viewBox="0 0 320 512">
			<path fill="currentColor" d="M207.6 256l107.72-107.72c6.23-6.23 6.23-16.34 0-22.58l-25.03-25.03c-6.23-6.23-16.34-6.23-22.58 0L160 208.4 52.28 100.68c-6.23-6.23-16.34-6.23-22.58 0L4.68 125.7c-6.23 6.23-6.23 16.34 0 22.58L112.4 256 4.68 363.72c-6.23 6.23-6.23 16.34 0 22.58l25.03 25.03c6.23 6.23 16.34 6.23 22.58 0L160 303.6l107.72 107.72c6.23 6.23 16.34 6.23 22.58 0l25.03-25.03c6.23-6.23 6.23-16.34 0-22.58L207.6 256z"></path>
		</symbol>
		<symbol id="times-circle" viewBox="0 0 512 512">
			<path fill="currentColor" d="M256 8C119 8 8 119 8 256s111 248 248 248 248-111 248-248S393 8 256 8zm0 448c-110.5 0-200-89.5-200-200S145.5 56 256 56s200 89.5 200 200-89.5 200-200 200zm101.8-262.2L295.6 256l62.2 62.2c4.7 4.7 4.7 12.3 0 17l-22.6 22.6c-4.7 4.7-12.3 4.7-17 0L256 295.6l-62.2 62.2c-4.7 4.7-12.3 4.7-17 0l-22.6-22.6c-4.7-4.7-4.7-12.3 0-17l62.2-62.2-62.2-62.2c-4.7-4.7-4.7-12.3 0-17l22.6-22.6c4.7-4.7 12.3-4.7 17 0l62.2 62.2 62.2-62.2c4.7-4.7 12.3-4.7 17 0l22.6 22.6c4.7 4.7 4.7 12.3 0 17z" class=""></path>
		</symbol>
		<symbol id="times-light" viewBox="0 0 10 10">
			<rect y="8.53564" width="12" height="2" rx="1" transform="rotate(-45 0 8.53564)" fill="currentColor"></rect>
			<rect x="1.41406" y="0.050293" width="12" height="2" rx="1" transform="rotate(45 1.41406 0.050293)" fill="currentColor"></rect>
		</symbol>
		<symbol id="star" viewBox="0 0 576 512">
			<path fill="currentColor" d="M259.3 17.8L194 150.2 47.9 171.5c-26.2 3.8-36.7 36.1-17.7 54.6l105.7 103-25 145.5c-4.5 26.3 23.2 46 46.4 33.7L288 439.6l130.7 68.7c23.2 12.2 50.9-7.4 46.4-33.7l-25-145.5 105.7-103c19-18.5 8.5-50.8-17.7-54.6L382 150.2 316.7 17.8c-11.7-23.6-45.6-23.9-57.4 0z"></path>
		</symbol>

		<symbol id="heart" viewBox="0 0 512 512">
			<path fill="currentColor" d="M462.3 62.6C407.5 15.9 326 24.3 275.7 76.2L256 96.5l-19.7-20.3C186.1 24.3 104.5 15.9 49.7 62.6c-62.8 53.6-66.1 149.8-9.9 207.9l193.5 199.8c12.5 12.9 32.8 12.9 45.3 0l193.5-199.8c56.3-58.1 53-154.3-9.8-207.9z" class=""></path>
		</symbol>

		<symbol id="heart-outline" viewBox="0 -19 385.53991 385">
			<path fill="currentColor" d="m185.160156 346.050781c.140625.054688.28125.105469.421875.152344 4.609375 1.78125 9.71875 1.78125 14.328125 0 .160156-.054687.316406-.109375.472656-.175781 67.828126-27.480469 120.457032-67.785156 152.191407-116.5625 27.941406-42.9375 38.632812-90.769532 30.109375-134.6875l-.011719-.058594c-11.464844-56.8125-52.550781-93.523438-104.675781-93.523438-27.148438 0-56.5 10.402344-85.183594 30.125-29.074219-20.605468-57.910156-31.050781-85.78125-31.050781-52.421875 0-93.335938 37.109375-104.222656 94.523438-15.878906 82.75 34.351562 192.53125 182.351562 251.257812zm-166.636718-248.261719c4.675781-24.65625 15.5-45.316406 31.300781-59.753906 15.589843-14.238281 35.371093-21.765625 57.207031-21.765625 25.855469 0 53.085938 10.535157 80.933594 31.308594 2.804687 2.09375 6.648437 2.117187 9.480468.0625 27.441407-19.917969 55.292969-30.445313 80.550782-30.445313 21.785156 0 41.601562 7.5 57.300781 21.683594 15.820313 14.300782 26.777344 34.6875 31.683594 58.972656 20.285156 104.578126-71.902344 192.460938-172.347657 233.242188-.601562.199219-1.214843.347656-1.839843.445312-.664063-.082031-1.324219-.234374-1.957031-.453124-139.324219-55.371094-186.941407-157.042969-172.3125-233.296876zm0 0"/>
		</symbol>

		<symbol id="chart" viewBox="0 0 480 480">
			<path fill="currentColor" d="m 400,220 60,0 0,220 -60,0 z m 0,0"/>
			<path fill="currentColor" d="m 120,80.000001 60,0 L 180,440 l -60,0 z m 0,0"/>
			<path fill="currentColor" d="m 260,-40 60,0 0,480 -60,0 z m 0,0"/>
			<path fill="currentColor" d="m -20,320 60,0 0,120 -60,0 z m 0,0"/>
		</symbol>

		<symbol id="cart-alt" viewBox="0 0 576 512">
			<path fill="currentColor" d="M551.991 64H144.28l-8.726-44.608C133.35 8.128 123.478 0 112 0H12C5.373 0 0 5.373 0 12v24c0 6.627 5.373 12 12 12h80.24l69.594 355.701C150.796 415.201 144 430.802 144 448c0 35.346 28.654 64 64 64s64-28.654 64-64a63.681 63.681 0 0 0-8.583-32h145.167a63.681 63.681 0 0 0-8.583 32c0 35.346 28.654 64 64 64 35.346 0 64-28.654 64-64 0-18.136-7.556-34.496-19.676-46.142l1.035-4.757c3.254-14.96-8.142-29.101-23.452-29.101H203.76l-9.39-48h312.405c11.29 0 21.054-7.869 23.452-18.902l45.216-208C578.695 78.139 567.299 64 551.991 64zM208 472c-13.234 0-24-10.766-24-24s10.766-24 24-24 24 10.766 24 24-10.766 24-24 24zm256 0c-13.234 0-24-10.766-24-24s10.766-24 24-24 24 10.766 24 24-10.766 24-24 24zm23.438-200H184.98l-31.31-160h368.548l-34.78 160z"></path>
		</symbol>

		<symbol id="shopping-cart" viewBox="0 0 576 512">
			<path fill="currentColor" d="M551.991 64H144.28l-8.726-44.608C133.35 8.128 123.478 0 112 0H12C5.373 0 0 5.373 0 12v24c0 6.627 5.373 12 12 12h80.24l69.594 355.701C150.796 415.201 144 430.802 144 448c0 35.346 28.654 64 64 64s64-28.654 64-64a63.681 63.681 0 0 0-8.583-32h145.167a63.681 63.681 0 0 0-8.583 32c0 35.346 28.654 64 64 64 35.346 0 64-28.654 64-64 0-18.136-7.556-34.496-19.676-46.142l1.035-4.757c3.254-14.96-8.142-29.101-23.452-29.101H203.76l-9.39-48h312.405c11.29 0 21.054-7.869 23.452-18.902l45.216-208C578.695 78.139 567.299 64 551.991 64zM208 472c-13.234 0-24-10.766-24-24s10.766-24 24-24 24 10.766 24 24-10.766 24-24 24zm256 0c-13.234 0-24-10.766-24-24s10.766-24 24-24 24 10.766 24 24-10.766 24-24 24zm23.438-200H184.98l-31.31-160h368.548l-34.78 160z"></path>
		</symbol>

		<symbol id="cart-plus" viewBox="0 0 576 512">
			<path fill="currentColor" d="M551.991 64H144.28l-8.726-44.608C133.35 8.128 123.478 0 112 0H12C5.373 0 0 5.373 0 12v24c0 6.627 5.373 12 12 12h80.24l69.594 355.701C150.796 415.201 144 430.802 144 448c0 35.346 28.654 64 64 64s64-28.654 64-64a63.681 63.681 0 0 0-8.583-32h145.167a63.681 63.681 0 0 0-8.583 32c0 35.346 28.654 64 64 64s64-28.654 64-64c0-18.136-7.556-34.496-19.676-46.142l1.035-4.757c3.254-14.96-8.142-29.101-23.452-29.101H203.76l-9.39-48h312.405c11.29 0 21.054-7.869 23.452-18.902l45.216-208C578.695 78.139 567.299 64 551.991 64zM464 424c13.234 0 24 10.766 24 24s-10.766 24-24 24-24-10.766-24-24 10.766-24 24-24zm-256 0c13.234 0 24 10.766 24 24s-10.766 24-24 24-24-10.766-24-24 10.766-24 24-24zm279.438-152H184.98l-31.31-160h368.548l-34.78 160zM272 200v-16c0-6.627 5.373-12 12-12h32v-32c0-6.627 5.373-12 12-12h16c6.627 0 12 5.373 12 12v32h32c6.627 0 12 5.373 12 12v16c0 6.627-5.373 12-12 12h-32v32c0 6.627-5.373 12-12 12h-16c-6.627 0-12-5.373-12-12v-32h-32c-6.627 0-12-5.373-12-12z"></path>
		</symbol>

		<symbol id="lightning" viewBox="0 0 384 512">
			<path fill="currentColor" d="M377.8 167.9c-8.2-14.3-23.1-22.9-39.6-22.9h-94.4l28.7-87.5c3.7-13.8.8-28.3-7.9-39.7C255.8 6.5 242.5 0 228.2 0H97.7C74.9 0 55.4 17.1 52.9 37.1L.5 249.3c-1.9 13.8 2.2 27.7 11.3 38.2C20.9 298 34.1 304 48 304h98.1l-34.9 151.7c-3.2 13.7-.1 27.9 8.6 38.9 8.7 11.1 21.8 17.4 35.9 17.4 16.3 0 31.5-8.8 38.8-21.6l183.2-276.7c8.4-14.3 8.4-31.5.1-45.8zM160.1 457.4L206.4 256H47.5L97.7 48l127.6-.9L177.5 193H334L160.1 457.4z"></path>
		</symbol>

		<symbol id="angle-up" viewBox="0 0 256 512">
			<path fill="currentColor" d="M136.5 185.1l116 117.8c4.7 4.7 4.7 12.3 0 17l-7.1 7.1c-4.7 4.7-12.3 4.7-17 0L128 224.7 27.6 326.9c-4.7 4.7-12.3 4.7-17 0l-7.1-7.1c-4.7-4.7-4.7-12.3 0-17l116-117.8c4.7-4.6 12.3-4.6 17 .1z"></path>
		</symbol>

		<symbol id="angle-down" viewBox="0 0 256 512">
			<path fill="currentColor" d="M119.5 326.9L3.5 209.1c-4.7-4.7-4.7-12.3 0-17l7.1-7.1c4.7-4.7 12.3-4.7 17 0L128 287.3l100.4-102.2c4.7-4.7 12.3-4.7 17 0l7.1 7.1c4.7 4.7 4.7 12.3 0 17L136.5 327c-4.7 4.6-12.3 4.6-17-.1z"></path>
		</symbol>

		<symbol id="angle-left" viewBox="0 0 192 512">
			<path fill="currentColor" d="M25.1 247.5l117.8-116c4.7-4.7 12.3-4.7 17 0l7.1 7.1c4.7 4.7 4.7 12.3 0 17L64.7 256l102.2 100.4c4.7 4.7 4.7 12.3 0 17l-7.1 7.1c-4.7 4.7-12.3 4.7-17 0L25 264.5c-4.6-4.7-4.6-12.3.1-17z"></path>
		</symbol>

		<symbol id="angle-right" viewBox="0 0 192 512">
			<path fill="currentColor" d="M166.9 264.5l-117.8 116c-4.7 4.7-12.3 4.7-17 0l-7.1-7.1c-4.7-4.7-4.7-12.3 0-17L127.3 256 25.1 155.6c-4.7-4.7-4.7-12.3 0-17l7.1-7.1c4.7-4.7 12.3-4.7 17 0l117.8 116c4.6 4.7 4.6 12.3-.1 17z"></path>
		</symbol>

		<symbol id="caret-square-down" viewBox="0 0 512 512">
			<path fill="currentColor" d="M125.1 208h197.8c10.7 0 16.1 13 8.5 20.5l-98.9 98.3c-4.7 4.7-12.2 4.7-16.9 0l-98.9-98.3c-7.7-7.5-2.3-20.5 8.4-20.5zM448 80v352c0 26.5-21.5 48-48 48H48c-26.5 0-48-21.5-48-48V80c0-26.5 21.5-48 48-48h352c26.5 0 48 21.5 48 48zm-48 346V86c0-3.3-2.7-6-6-6H54c-3.3 0-6 2.7-6 6v340c0 3.3 2.7 6 6 6h340c3.3 0 6-2.7 6-6z" class=""></path>
		</symbol>

		<symbol id="ellipsis" viewBox="0 0 512 512">
			<path fill="currentColor" d="M304 256c0 26.5-21.5 48-48 48s-48-21.5-48-48 21.5-48 48-48 48 21.5 48 48zm120-48c-26.5 0-48 21.5-48 48s21.5 48 48 48 48-21.5 48-48-21.5-48-48-48zm-336 0c-26.5 0-48 21.5-48 48s21.5 48 48 48 48-21.5 48-48-21.5-48-48-48z" class=""></path>
		</symbol>

		<symbol id="ellipsis-h" viewBox="0 0 320 512">
			<path fill="currentColor" d="M192 256c0 17.7-14.3 32-32 32s-32-14.3-32-32 14.3-32 32-32 32 14.3 32 32zm88-32c-17.7 0-32 14.3-32 32s14.3 32 32 32 32-14.3 32-32-14.3-32-32-32zm-240 0c-17.7 0-32 14.3-32 32s14.3 32 32 32 32-14.3 32-32-14.3-32-32-32z" class=""></path>
		</symbol>

		<symbol id="ellipsis-h-alt" viewBox="0 0 512 512">
			<path fill="currentColor" d="M256 184c-39.8 0-72 32.2-72 72s32.2 72 72 72 72-32.2 72-72-32.2-72-72-72zm0 112c-22.1 0-40-17.9-40-40s17.9-40 40-40 40 17.9 40 40-17.9 40-40 40zm176-112c-39.8 0-72 32.2-72 72s32.2 72 72 72 72-32.2 72-72-32.2-72-72-72zm0 112c-22.1 0-40-17.9-40-40s17.9-40 40-40 40 17.9 40 40-17.9 40-40 40zM80 184c-39.8 0-72 32.2-72 72s32.2 72 72 72 72-32.2 72-72-32.2-72-72-72zm0 112c-22.1 0-40-17.9-40-40s17.9-40 40-40 40 17.9 40 40-17.9 40-40 40z" class=""></path>
		</symbol>

		<symbol id="stream" viewBox="0 0 512 512">
			<path fill="currentColor" d="M8 128h432c4.42 0 8-3.58 8-8v-16c0-4.42-3.58-8-8-8H8c-4.42 0-8 3.58-8 8v16c0 4.42 3.58 8 8 8zm496 112H72c-4.42 0-8 3.58-8 8v16c0 4.42 3.58 8 8 8h432c4.42 0 8-3.58 8-8v-16c0-4.42-3.58-8-8-8zm-64 144H8c-4.42 0-8 3.58-8 8v16c0 4.42 3.58 8 8 8h432c4.42 0 8-3.58 8-8v-16c0-4.42-3.58-8-8-8z" class=""></path>
		</symbol>

		<symbol id="long-arrow-right" viewBox="0 0 448 512">
			<path fill="currentColor" d="M311.03 131.515l-7.071 7.07c-4.686 4.686-4.686 12.284 0 16.971L387.887 239H12c-6.627 0-12 5.373-12 12v10c0 6.627 5.373 12 12 12h375.887l-83.928 83.444c-4.686 4.686-4.686 12.284 0 16.971l7.071 7.07c4.686 4.686 12.284 4.686 16.97 0l116.485-116c4.686-4.686 4.686-12.284 0-16.971L328 131.515c-4.686-4.687-12.284-4.687-16.97 0z"></path>
		</symbol>

		<symbol id="map-marker-alt" viewBox="0 0 384 512">
			<path fill="currentColor" d="M192 96c-52.935 0-96 43.065-96 96s43.065 96 96 96 96-43.065 96-96-43.065-96-96-96zm0 160c-35.29 0-64-28.71-64-64s28.71-64 64-64 64 28.71 64 64-28.71 64-64 64zm0-256C85.961 0 0 85.961 0 192c0 77.413 26.97 99.031 172.268 309.67 9.534 13.772 29.929 13.774 39.465 0C357.03 291.031 384 269.413 384 192 384 85.961 298.039 0 192 0zm0 473.931C52.705 272.488 32 256.494 32 192c0-42.738 16.643-82.917 46.863-113.137S149.262 32 192 32s82.917 16.643 113.137 46.863S352 149.262 352 192c0 64.49-20.692 80.47-160 281.931z"></path>
		</symbol>

		<symbol id="map-marker-regular" viewBox="0 0 384 512">
			<path fill="currentColor" d="M172.268 501.67C26.97 291.031 0 269.413 0 192 0 85.961 85.961 0 192 0s192 85.961 192 192c0 77.413-26.97 99.031-172.268 309.67-9.535 13.774-29.93 13.773-39.464 0zM192 272c44.183 0 80-35.817 80-80s-35.817-80-80-80-80 35.817-80 80 35.817 80 80 80z"></path>
		</symbol>

		<symbol id="envelope" viewBox="0 0 512 512">
			<path fill="currentColor" d="M464 64H48C21.5 64 0 85.5 0 112v288c0 26.5 21.5 48 48 48h416c26.5 0 48-21.5 48-48V112c0-26.5-21.5-48-48-48zM48 96h416c8.8 0 16 7.2 16 16v41.4c-21.9 18.5-53.2 44-150.6 121.3-16.9 13.4-50.2 45.7-73.4 45.3-23.2.4-56.6-31.9-73.4-45.3C85.2 197.4 53.9 171.9 32 153.4V112c0-8.8 7.2-16 16-16zm416 320H48c-8.8 0-16-7.2-16-16V195c22.8 18.7 58.8 47.6 130.7 104.7 20.5 16.4 56.7 52.5 93.3 52.3 36.4.3 72.3-35.5 93.3-52.3 71.9-57.1 107.9-86 130.7-104.7v205c0 8.8-7.2 16-16 16z"></path>
		</symbol>
		<symbol id="caret-right" viewBox="0 0 192 512">
			<path fill="currentColor" d="M0 384.662V127.338c0-17.818 21.543-26.741 34.142-14.142l128.662 128.662c7.81 7.81 7.81 20.474 0 28.284L34.142 398.804C21.543 411.404 0 402.48 0 384.662z" class=""></path>
		</symbol>
		<symbol id="caret-down" viewBox="0 0 384 512">
			<path fill="currentColor" d="M31.3 192h257.3c17.8 0 26.7 21.5 14.1 34.1L174.1 354.8c-7.8 7.8-20.5 7.8-28.3 0L17.2 226.1C4.6 213.5 13.5 192 31.3 192z"></path>
		</symbol>
		<symbol id="search" viewBox="0 0 512 512">
			<path fill="currentColor" d="M508.5 481.6l-129-129c-2.3-2.3-5.3-3.5-8.5-3.5h-10.3C395 312 416 262.5 416 208 416 93.1 322.9 0 208 0S0 93.1 0 208s93.1 208 208 208c54.5 0 104-21 141.1-55.2V371c0 3.2 1.3 6.2 3.5 8.5l129 129c4.7 4.7 12.3 4.7 17 0l9.9-9.9c4.7-4.7 4.7-12.3 0-17zM208 384c-97.3 0-176-78.7-176-176S110.7 32 208 32s176 78.7 176 176-78.7 176-176 176z"></path>
		</symbol>
		<symbol id="cursor" viewBox="0 0 297 297">
			<path fill="currentColor" d="M294.077,251.199l-59.105-59.107l42.167-24.356c3.295-1.903,5.212-5.52,4.938-9.315c-0.274-3.796-2.692-7.101-6.226-8.51 L87.82,74.905c-3.686-1.472-7.895-0.605-10.702,2.201c-2.807,2.808-3.674,7.016-2.203,10.702l74.994,188.053 c1.41,3.534,4.715,5.953,8.511,6.227c3.796,0.276,7.414-1.642,9.316-4.938l24.354-42.167l59.101,59.107 c1.862,1.863,4.39,2.91,7.023,2.91c2.635,0,5.161-1.047,7.023-2.91l28.841-28.845C297.956,261.366,297.956,255.078,294.077,251.199 z"/>
			<path fill="currentColor" d="M43.61,29.552c-3.879-3.876-10.166-3.877-14.047,0c-3.878,3.879-3.878,10.168,0,14.047l22.069,22.069 c1.939,1.939,4.48,2.909,7.023,2.909c2.541,0,5.083-0.97,7.022-2.909c3.879-3.879,3.879-10.167,0-14.046L43.61,29.552z"/>
			<path fill="currentColor" d="M51.089,98.215c0-5.484-4.447-9.932-9.933-9.932H9.946c-5.485,0-9.933,4.447-9.933,9.932c0,5.485,4.447,9.933,9.933,9.933 h31.21C46.642,108.147,51.089,103.7,51.089,98.215z"/>
			<path fill="currentColor" d="M47.063,128.869l-22.072,22.071c-3.878,3.879-3.878,10.168,0,14.046c1.94,1.939,4.482,2.909,7.023,2.909 c2.541,0,5.084-0.97,7.023-2.909l22.071-22.07c3.879-3.879,3.879-10.168,0-14.047C57.23,124.993,50.944,124.992,47.063,128.869z"/>
			<path fill="currentColor" d="M98.222,51.078c5.485,0,9.933-4.447,9.933-9.933V9.932c0-5.485-4.447-9.932-9.933-9.932c-5.484,0-9.932,4.446-9.932,9.932 v31.214C88.29,46.631,92.737,51.078,98.222,51.078z"/>
			<path fill="currentColor" d="M135.894,64.006c2.543,0,5.084-0.97,7.023-2.909l22.068-22.069c3.879-3.879,3.879-10.168,0-14.047 c-3.879-3.877-10.168-3.877-14.046,0l-22.068,22.07c-3.879,3.879-3.879,10.168,0,14.046 C130.811,63.036,133.352,64.006,135.894,64.006z"/>
		</symbol>
		<symbol id="user" viewBox="0 0 483 483">
			<path fill="currentColor" d="M239.7,260.2c0.5,0,1,0,1.6,0c0.2,0,0.4,0,0.6,0c0.3,0,0.7,0,1,0c29.3-0.5,53-10.8,70.5-30.5 c38.5-43.4,32.1-117.8,31.4-124.9c-2.5-53.3-27.7-78.8-48.5-90.7C280.8,5.2,262.7,0.4,242.5,0h-0.7c-0.1,0-0.3,0-0.4,0h-0.6 c-11.1,0-32.9,1.8-53.8,13.7c-21,11.9-46.6,37.4-49.1,91.1c-0.7,7.1-7.1,81.5,31.4,124.9C186.7,249.4,210.4,259.7,239.7,260.2z M164.6,107.3c0-0.3,0.1-0.6,0.1-0.8c3.3-71.7,54.2-79.4,76-79.4h0.4c0.2,0,0.5,0,0.8,0c27,0.6,72.9,11.6,76,79.4 c0,0.3,0,0.6,0.1,0.8c0.1,0.7,7.1,68.7-24.7,104.5c-12.6,14.2-29.4,21.2-51.5,21.4c-0.2,0-0.3,0-0.5,0l0,0c-0.2,0-0.3,0-0.5,0 c-22-0.2-38.9-7.2-51.4-21.4C157.7,176.2,164.5,107.9,164.6,107.3z"/>
			<path fill="currentColor" d="M446.8,383.6c0-0.1,0-0.2,0-0.3c0-0.8-0.1-1.6-0.1-2.5c-0.6-19.8-1.9-66.1-45.3-80.9c-0.3-0.1-0.7-0.2-1-0.3 c-45.1-11.5-82.6-37.5-83-37.8c-6.1-4.3-14.5-2.8-18.8,3.3c-4.3,6.1-2.8,14.5,3.3,18.8c1.7,1.2,41.5,28.9,91.3,41.7 c23.3,8.3,25.9,33.2,26.6,56c0,0.9,0,1.7,0.1,2.5c0.1,9-0.5,22.9-2.1,30.9c-16.2,9.2-79.7,41-176.3,41 c-96.2,0-160.1-31.9-176.4-41.1c-1.6-8-2.3-21.9-2.1-30.9c0-0.8,0.1-1.6,0.1-2.5c0.7-22.8,3.3-47.7,26.6-56 c49.8-12.8,89.6-40.6,91.3-41.7c6.1-4.3,7.6-12.7,3.3-18.8c-4.3-6.1-12.7-7.6-18.8-3.3c-0.4,0.3-37.7,26.3-83,37.8 c-0.4,0.1-0.7,0.2-1,0.3c-43.4,14.9-44.7,61.2-45.3,80.9c0,0.9,0,1.7-0.1,2.5c0,0.1,0,0.2,0,0.3c-0.1,5.2-0.2,31.9,5.1,45.3 c1,2.6,2.8,4.8,5.2,6.3c3,2,74.9,47.8,195.2,47.8s192.2-45.9,195.2-47.8c2.3-1.5,4.2-3.7,5.2-6.3 C447,415.5,446.9,388.8,446.8,383.6z"/>
		</symbol>
		<symbol id="user-circle" viewBox="0 0 496 512">
			<path fill="currentColor" d="M248 8C111 8 0 119 0 256s111 248 248 248 248-111 248-248S385 8 248 8zm128 421.6c-35.9 26.5-80.1 42.4-128 42.4s-92.1-15.9-128-42.4V416c0-35.3 28.7-64 64-64 11.1 0 27.5 11.4 64 11.4 36.6 0 52.8-11.4 64-11.4 35.3 0 64 28.7 64 64v13.6zm30.6-27.5c-6.8-46.4-46.3-82.1-94.6-82.1-20.5 0-30.4 11.4-64 11.4S204.6 320 184 320c-48.3 0-87.8 35.7-94.6 82.1C53.9 363.6 32 312.4 32 256c0-119.1 96.9-216 216-216s216 96.9 216 216c0 56.4-21.9 107.6-57.4 146.1zM248 120c-48.6 0-88 39.4-88 88s39.4 88 88 88 88-39.4 88-88-39.4-88-88-88zm0 144c-30.9 0-56-25.1-56-56s25.1-56 56-56 56 25.1 56 56-25.1 56-56 56z"></path>
		</symbol>
		<symbol id="clock" viewBox="0 0 512 512">
			<path fill="currentColor" d="M256 8C119 8 8 119 8 256s111 248 248 248 248-111 248-248S393 8 256 8zm216 248c0 118.7-96.1 216-216 216-118.7 0-216-96.1-216-216 0-118.7 96.1-216 216-216 118.7 0 216 96.1 216 216zm-148.9 88.3l-81.2-59c-3.1-2.3-4.9-5.9-4.9-9.7V116c0-6.6 5.4-12 12-12h14c6.6 0 12 5.4 12 12v146.3l70.5 51.3c5.4 3.9 6.5 11.4 2.6 16.8l-8.2 11.3c-3.9 5.3-11.4 6.5-16.8 2.6z"></path>
		</symbol>
		<symbol id="clock-alt" viewBox="0 0 60 60">
			<path fill="currentColor" d="M30,0C13.458,0,0,13.458,0,30s13.458,30,30,30s30-13.458,30-30S46.542,0,30,0z M30,58C14.561,58,2,45.439,2,30 S14.561,2,30,2s28,12.561,28,28S45.439,58,30,58z"/>
			<path fill="currentColor" d="M31,26.021V15.879c0-0.553-0.448-1-1-1s-1,0.447-1,1v10.142c-1.399,0.364-2.494,1.459-2.858,2.858H19c-0.552,0-1,0.447-1,1 s0.448,1,1,1h7.142c0.447,1.72,2,3,3.858,3c2.206,0,4-1.794,4-4C34,28.02,32.72,26.468,31,26.021z M30,31.879c-1.103,0-2-0.897-2-2 s0.897-2,2-2s2,0.897,2,2S31.103,31.879,30,31.879z"/>
			<path fill="currentColor" d="M30,9.879c0.552,0,1-0.447,1-1v-1c0-0.553-0.448-1-1-1s-1,0.447-1,1v1C29,9.432,29.448,9.879,30,9.879z"/>
			<path fill="currentColor" d="M30,49.879c-0.552,0-1,0.447-1,1v1c0,0.553,0.448,1,1,1s1-0.447,1-1v-1C31,50.326,30.552,49.879,30,49.879z"/>
			<path fill="currentColor" d="M52,28.879h-1c-0.552,0-1,0.447-1,1s0.448,1,1,1h1c0.552,0,1-0.447,1-1S52.552,28.879,52,28.879z"/>
			<path fill="currentColor" d="M9,28.879H8c-0.552,0-1,0.447-1,1s0.448,1,1,1h1c0.552,0,1-0.447,1-1S9.552,28.879,9,28.879z"/>
			<path fill="currentColor" d="M44.849,13.615l-0.707,0.707c-0.391,0.391-0.391,1.023,0,1.414c0.195,0.195,0.451,0.293,0.707,0.293 s0.512-0.098,0.707-0.293l0.707-0.707c0.391-0.391,0.391-1.023,0-1.414S45.24,13.225,44.849,13.615z"/>
			<path fill="currentColor" d="M14.444,44.021l-0.707,0.707c-0.391,0.391-0.391,1.023,0,1.414c0.195,0.195,0.451,0.293,0.707,0.293 s0.512-0.098,0.707-0.293l0.707-0.707c0.391-0.391,0.391-1.023,0-1.414S14.834,43.631,14.444,44.021z"/>
			<path fill="currentColor" d="M45.556,44.021c-0.391-0.391-1.023-0.391-1.414,0s-0.391,1.023,0,1.414l0.707,0.707c0.195,0.195,0.451,0.293,0.707,0.293 s0.512-0.098,0.707-0.293c0.391-0.391,0.391-1.023,0-1.414L45.556,44.021z"/>
			<path fill="currentColor" d="M15.151,13.615c-0.391-0.391-1.023-0.391-1.414,0s-0.391,1.023,0,1.414l0.707,0.707c0.195,0.195,0.451,0.293,0.707,0.293 s0.512-0.098,0.707-0.293c0.391-0.391,0.391-1.023,0-1.414L15.151,13.615z"/>
		</symbol>
		<symbol id="phone-circle" viewBox="0 0 512 512">
			<path fill="currentColor" d="M256,32c123.5, 0,224,100.5,224,224S379.5, 480,256,480S32,379.5,32, 256S132.5,32,256,32 M256,0C114.625,0,0,114.625,0,256 s114.625,256, 256,256s256-114.625, 256-256S397.375, 0,256, 0L256,0z M398.719,341.594l-1.438-4.375 c-3.375-10.062-14.5-20.562-24.75-23.375L334.688, 303.5c-10.25-2.781-24.875, 0.969-32.405, 8.5l-13.688, 13.688 c-49.75-13.469-88.781-52.5-102.219-102.25l13.688-13.688c7.5-7.5, 11.25-22.125, 8.469-32.406L198.219,139.5 c-2.781-10.25-13.344-21.375-23.406-24.75l-4.313-1.438c-10.094-3.375-24.5,0.031-32,7.563l-20.5,20.5 c-3.656,3.625-6,14.031-6,14.063c-0.688,65.063,24.813,127.719,70.813,173.75c45.875,45.875,108.313,71.345,173.156,70.781 c0.344,0,11.063-2.281,14.719-5.938l20.5-20.5C398.688,366.062,402.062,351.656,398.719,341.594z"/>
		</symbol>
		<symbol id="phone-alt" viewBox="0 0 512 512">
			<path fill="currentColor" d="M497.39 361.8l-112-48a24 24 0 0 0-28 6.9l-49.6 60.6A370.66 370.66 0 0 1 130.6 204.11l60.6-49.6a23.94 23.94 0 0 0 6.9-28l-48-112A24.16 24.16 0 0 0 122.6.61l-104 24A24 24 0 0 0 0 48c0 256.5 207.9 464 464 464a24 24 0 0 0 23.4-18.6l24-104a24.29 24.29 0 0 0-14.01-27.6z"></path>
		</symbol>
		<symbol id="menu-square" viewBox="0 0 15 15">
			<path fill="currentColor" d="m 12,15 0,-3 3,0 0,3 -3,0 z m 0,-9 3,0 0,3 -3,0 0,-3 z m 0,-6 3,0 0,3 -3,0 0,-3 z m -6,12 3,0 0,3 -3,0 0,-3 z M 6,6 9,6 9,9 6,9 6,6 Z M 6,0 9,0 9,3 6,3 6,0 Z m -6,12 3,0 0,3 -3,0 0,-3 z M 0,6 3,6 3,9 0,9 0,6 Z M 0,0 3,0 3,3 0,3 0,0 Z" />
		</symbol>
		<symbol id="th-list" viewBox="0 0 15 15">
			<path fill="currentColor" d="m 6,15 0,-3 9,0 0,3 -9,0 z M 6,6 15,6 15,9 6,9 6,6 Z M 6,0 15,0 15,3 6,3 6,0 Z m -6,12 3,0 0,3 -3,0 0,-3 z M 0,6 3,6 3,9 0,9 0,6 Z M 0,0 3,0 3,3 0,3 0,0 Z" />
		</symbol>
		<symbol id="bars" viewBox="0 0 448 512">
			<path fill="currentColor" d="M442 114H6a6 6 0 0 1-6-6V84a6 6 0 0 1 6-6h436a6 6 0 0 1 6 6v24a6 6 0 0 1-6 6zm0 160H6a6 6 0 0 1-6-6v-24a6 6 0 0 1 6-6h436a6 6 0 0 1 6 6v24a6 6 0 0 1-6 6zm0 160H6a6 6 0 0 1-6-6v-24a6 6 0 0 1 6-6h436a6 6 0 0 1 6 6v24a6 6 0 0 1-6 6z" class=""></path>
		</symbol>
		<symbol id="camera" viewBox="0 0 512 512">
			<path fill="currentColor" d="M512 144v288c0 26.5-21.5 48-48 48H48c-26.5 0-48-21.5-48-48V144c0-26.5 21.5-48 48-48h88l12.3-32.9c7-18.7 24.9-31.1 44.9-31.1h125.5c20 0 37.9 12.4 44.9 31.1L376 96h88c26.5 0 48 21.5 48 48zM376 288c0-66.2-53.8-120-120-120s-120 53.8-120 120 53.8 120 120 120 120-53.8 120-120zm-32 0c0 48.5-39.5 88-88 88s-88-39.5-88-88 39.5-88 88-88 88 39.5 88 88z"></path>
		</symbol>
		<symbol id="personal-registration" viewBox="0 0 550 742">
			<path fill="currentColor" transform="translate(0.71429,-1.3622061)" d="m 58.28571,741.02273 c 0,-2.50377 -1.24582,-3.28507 -11,-6.89843 -14.58645,-5.40345 -33.12724,-24.43947 -39.4459,-40.49951 -2.68519,-6.82492 -3.38628,-7.8008 -5.8041,-8.079 l -2.75,-0.31642 0,-271.93358 0,-271.93358 2.46481,0 c 2.7624,0 3.78075,-1.49408 6.59643,-9.67799 4.86027,-14.12663 24.51481,-33.468453 40.43876,-39.795353 19.5694,-7.77531 11.1491,-6.97025 78.72326,-7.52666 70.88922,-0.58371 64.36437,0.64503 65.8269,-12.39632 0.48995,-4.36888 2.01172,-10.31863 3.54909,-13.876 1.48025,-3.42523 3.68264,-8.49531 4.89421,-11.26685 2.61712,-5.98685 9.47042,-15.153831 16.17312,-21.633211 8.1444,-7.87304 15.45109,-12.72132 24.08015,-15.9781299 7.13616,-2.69337 8.25327,-3.43541 8.25327,-5.48224 l 0,-2.36725 24,0 24,0 0,2.41729 c 0,1.97403 0.87102,2.73491 4.75,4.14935 9.6121,3.5049799 12.97239,5.2400199 18.79657,9.7053399 6.87364,5.26993 14.49011,13.05664 19.79968,20.242231 5.43537,7.35585 12.54972,25.36969 13.61137,34.46457 0.72946,6.24915 1.30713,7.8522 3.51345,9.75 l 2.64046,2.27122 56.80774,0 c 34.22563,0 58.94898,0.40347 62.19424,1.01497 9.42853,1.7766 25.84883,8.94469 33.38649,14.57448 12.10318,9.039723 22.69969,21.708043 26.2736,31.410553 3.58222,9.72505 4.38044,11 6.88692,11 l 2.33948,0 0,271 0,271 -2.33948,0 c -2.50648,0 -3.3047,1.27495 -6.88692,11 -5.05552,13.72481 -24.99425,33.65763 -38.7736,38.76209 -9.75418,3.61336 -11,4.39466 -11,6.89843 l 0,2.33948 -216,0 -216,0 0,-2.33948 z m 416.5,-53.76868 c 5.52875,-1.51626 16.87558,-12.86309 18.39184,-18.39184 1.5557,-5.67252 1.5557,-505.32748 0,-511 -1.51626,-5.52875 -12.86309,-16.87558 -18.39184,-18.39184 -2.67628,-0.73397 -22.2262,-1.09885 -59.07569,-1.10258 l -55.07568,-0.006 -2.07815,2.25 c -1.86929,2.02387 -2.1172,3.75756 -2.46667,17.25 -0.29435,11.36411 -0.7818,15.72718 -2.01102,18 -2.77876,5.13793 -8.76061,11.39647 -13.62675,14.25705 l -4.66604,2.74295 -61.5,0 -61.5,0 -4.66604,-2.74295 c -4.86614,-2.86058 -10.84799,-9.11912 -13.62675,-14.25705 -1.22922,-2.27282 -1.71667,-6.63589 -2.01102,-18 -0.34947,-13.49244 -0.59738,-15.22613 -2.46667,-17.25 l -2.07815,-2.25 -54.88286,0 c -36.08914,0 -56.35614,0.37097 -59.18521,1.08334 -3.27414,0.82444 -5.85895,2.6766 -10.81564,7.75 -3.58232,3.66666 -7.02053,8.19631 -7.64048,10.06588 -1.61457,4.86904 -1.61091,506.7542 0.004,512.1434 1.46223,4.88049 12.1591,15.58773 17.45955,17.47648 3.29006,1.17237 35.12472,1.39919 200.90953,1.43143 139.95952,0.0272 198.15818,-0.27932 201,-1.05869 z m -206.5,-84.8261 c -2.475,-0.3545 -7.7934,-1.94754 -11.81867,-3.54007 -8.7284,-3.45326 -16.38846,-10.9223 -18.28615,-17.83013 -1.54657,-5.62969 -1.49833,-19.46963 0.0876,-25.13402 1.95928,-6.99786 8.01213,-13.14741 17.41744,-17.69571 7.73849,-3.74225 8.33296,-3.86581 18.59978,-3.86581 10.26682,0 10.86129,0.12356 18.59979,3.86581 14.05412,6.79641 18.72071,14.40523 18.67891,30.45576 -0.0296,11.35841 -1.42578,15.58402 -7.25748,21.96484 -4.00851,4.38595 -6.38936,5.9628 -12.72612,8.42863 -8.39147,3.26538 -16.12486,4.37773 -23.2951,3.3507 z M 253.64014,467.70587 c -1.18006,-0.25047 -2.98006,-1.37682 -4,-2.50302 -1.63409,-1.80433 -1.88015,-4.08494 -2.07087,-19.19413 -0.66527,-52.70148 -2.56917,-139.78638 -3.28259,-150.14651 -0.91017,-13.21719 -0.29099,-16.03606 3.99903,-18.20599 3.54034,-1.79074 48.45966,-1.79074 52,0 4.28171,2.16572 4.92521,5.0132 4.00134,17.70599 -0.71229,9.78597 -2.56973,95.23844 -3.28706,151.22347 -0.29184,22.77665 1.51194,21.23012 -24.99003,21.42605 -11.12334,0.0822 -21.18976,-0.0554 -22.36982,-0.30586 z m 29.61403,-357.33462 c 3.72353,-1.06789 14.22683,-10.695203 16.62012,-15.233963 2.1003,-3.98314 2.83412,-13.53493 1.43672,-18.70115 -1.39698,-5.16462 -11.54121,-16.49912 -16.74318,-18.70772 -4.13058,-1.75371 -16.39695,-1.76414 -20.56424,-0.0175 -4.58924,1.92352 -14.98533,12.98163 -16.39103,17.4348 -1.51481,4.79885 -1.60467,11.6756 -0.21784,16.67084 1.36468,4.91546 12.8638,17.178633 17.32297,18.474013 4.23769,1.23103 14.37163,1.27513 18.53648,0.0807 z" />
		</symbol>

		<symbol id="contacts-personal" viewBox="0 0 569.65944 711.85275">
			<path fill="currentColor" transform="translate(-102.42858,-135.21934)" d="m 162.04309,846.12165 c -6.5523,-0.69106 -9.68005,-1.7205 -18.5,-6.08896 -9.07909,-4.49681 -11.8568,-6.50093 -19.20252,-13.85455 -8.29565,-8.30458 -10.13231,-11.1272 -15.42717,-23.7088 -1.38269,-3.28556 -2.32142,-4.25 -4.1367,-4.25 l -2.34812,0 0,-306.5 0,-306.5 2.40668,0 c 2.056,0 2.87301,-1.12016 5.60698,-7.68747 6.06737,-14.57447 19.94762,-28.52874 34.12332,-34.30527 4.04966,-1.65022 7.47551,-3.00195 7.61301,-3.00383 0.1375,-0.002 0.25,-1.12843 0.25,-2.50343 l 0,-2.5 235.5,0 235.5,0 0,2.34813 c 0,1.81527 0.96444,2.754 4.25,4.1367 12.11703,5.09934 15.1503,7.05161 23.05893,14.84115 6.51489,6.41678 9.39289,10.23206 13.38744,17.74728 2.79865,5.2653 5.69937,12.2403 6.44604,15.5 2.02594,8.84451 2.02117,595.00457 -0.005,603.92674 -2.34501,10.32658 -10.40973,23.82652 -19.783,33.11575 -6.81279,6.75171 -9.98547,9.02103 -18.53705,13.25897 -9.11053,4.51494 -11.42875,5.22872 -19.81745,6.10184 -11.67139,1.21479 -438.83108,1.14436 -450.38548,-0.0742 z M 564.01521,702.91358 c 2.31532,-2.69178 2.41303,-3.40273 2.40516,-17.5 -0.013,-23.25609 -1.21308,-31.14108 -6.24713,-41.04583 -8.54872,-16.82001 -26.89518,-35.52527 -45.13153,-46.01414 -2.26223,-1.30115 -6.36314,-3.8378 -9.11314,-5.63701 -2.75,-1.79921 -6.79525,-3.84259 -8.98945,-4.54085 -2.19419,-0.69826 -6.15221,-2.60033 -8.79559,-4.22681 -2.64338,-1.62649 -8.23303,-3.83514 -12.42145,-4.90812 -4.18842,-1.07297 -9.87133,-3.09407 -12.62869,-4.49133 -3.1566,-1.59957 -9.30063,-3.24165 -16.5891,-4.43367 -6.36665,-1.04126 -14.95072,-2.7941 -19.07572,-3.89519 -19.32189,-5.15762 -59.05375,-4.75478 -83.04639,0.842 -6.84949,1.59778 -15.73125,3.41285 -19.73725,4.03347 -4.006,0.62063 -9.856,2.40164 -13,3.9578 -3.144,1.55616 -8.41636,3.39872 -11.71636,4.09458 -3.3,0.69587 -8.025,2.53756 -10.5,4.09267 -2.475,1.5551 -6.9199,3.73995 -9.87755,4.85522 -2.95765,1.11526 -7.00765,3.09446 -9,4.39822 -1.99235,1.30375 -8.34745,5.46496 -14.12245,9.24712 -5.775,3.78217 -13.55482,9.54858 -17.28848,12.81425 -6.20466,5.42694 -17.10909,17.84147 -19.6093,22.32491 -2.5875,4.63995 -8.40547,18.18434 -9.16053,21.32597 -1.07686,4.48051 -1.42078,40.91947 -0.40938,43.3737 1.94929,4.73007 -4.09034,4.58341 179.30433,4.35419 l 172.33665,-0.21539 2.41335,-2.80576 z M 409.87065,490.23471 c 5.78892,-0.94796 20.00715,-6.06249 28.05792,-10.0929 23.05149,-11.54012 39.88177,-30.4893 49.94857,-56.23701 5.84194,-14.94186 6.97465,-23.05253 6.31044,-45.18546 -0.54448,-18.14314 -0.30082,-17.01752 -8.18133,-37.79478 -6.35771,-16.76231 -23.65278,-36.7289 -40.92865,-47.25074 -2.66803,-1.62497 -6.15954,-3.78575 -7.75892,-4.80174 -1.59937,-1.016 -5.49144,-2.50787 -8.64903,-3.31527 -3.15759,-0.8074 -8.52195,-2.56528 -11.92078,-3.9064 -15.17298,-5.98696 -46.09413,-5.40126 -60.91644,1.15387 -3.00349,1.32828 -6.27179,2.41506 -7.2629,2.41506 -1.78901,0 -5.11597,1.60871 -16.64096,8.04654 -8.21869,4.59093 -19.55373,14.44169 -26.88714,23.36635 -5.55429,6.75949 -7.40492,9.57801 -13.51743,20.58711 -1.06881,1.925 -3.75421,9.15467 -5.96757,16.06593 -3.32617,10.38602 -4.13865,14.54948 -4.68349,24 -0.81686,14.16894 0.71896,28.50179 3.90698,36.46136 1.31572,3.28499 2.94604,8.34038 3.62293,11.2342 0.67689,2.89382 2.21366,6.71882 3.41503,8.5 1.20138,1.78118 3.31126,5.26453 4.68864,7.74077 9.06128,16.2903 32.93881,36.88309 48.81851,42.10273 3.63195,1.19382 8.27617,3.01014 10.32051,4.03627 2.04433,1.02612 6.09433,2.26151 9,2.74531 7.33464,1.22122 38.02037,1.30861 45.22511,0.1288 z"/>
		</symbol>

		<symbol id="history-personal" viewBox="0 0 674.53329 711.30251">
			<path fill="currentColor" transform="translate(-78.499996,-164.29076)" d="m 179.50001,875.02288 c -16.49668,-1.94883 -20.31588,-2.69483 -24.22327,-4.73148 -2.30221,-1.19998 -6.52146,-3.05564 -9.3761,-4.12371 -2.85465,-1.06806 -6.9251,-3.18267 -9.04545,-4.69914 -2.12035,-1.51647 -5.89253,-3.93712 -8.38262,-5.37922 -9.32376,-5.39974 -27.35767,-26.7166 -32.617904,-38.55576 -1.2847,-2.89146 -3.43882,-6.94146 -4.78694,-9 -1.34811,-2.05855 -2.96949,-5.99281 -3.60305,-8.74281 -2.65433,-11.52124 -5.06163,-17.5 -7.04621,-17.5 -1.88716,0 -1.91847,-5.04393 -1.91847,-309 l 0,-309 52.771204,0 52.77121,0 1.15452,6.07506 c 1.64091,8.63445 8.76422,18.87231 17.06185,24.52185 7.00071,4.76652 12.97021,6.06815 23.46517,5.1165 14.12587,-1.28089 30.68947,-19.29776 30.76419,-33.46341 l 0.0119,-2.25 34.79357,0 34.79356,0 1.18702,5.65915 c 1.86553,8.89395 8.04472,18.32246 15.48991,23.63523 7.38446,5.26945 11.86733,6.70843 20.73594,6.65615 8.14691,-0.048 12.10308,-1.45355 19.22376,-6.82972 9.78995,-7.39148 15.77624,-17.47104 15.77624,-26.56363 l 0,-2.55718 34.99999,0 c 32.77335,0 34.99999,0.11223 34.99999,1.76412 0,3.10715 3.56026,11.56255 7.35517,17.4681 3.3637,5.23449 10.57989,11.68116 16.48607,14.72802 3.49965,1.80538 16.29954,2.49355 21.59211,1.16086 7.42715,-1.87018 20.11966,-12.69341 24.4217,-20.825 0.64129,-1.21215 1.45035,-4.92465 1.79792,-8.25 l 0.63194,-6.0461 52.85755,0 52.85756,0 0.0151,3.75 c 0.008,2.0625 0.002,104.67189 -0.0149,228.02087 -0.0331,247.59955 -0.53504,228.98883 6.23244,231.06488 1.79706,0.55129 5.51679,1.30812 8.26606,1.68186 2.74927,0.37373 7.24927,1.54364 10,2.59979 2.75073,1.05614 7.67658,2.62185 10.94634,3.47934 3.26976,0.8575 7.76976,2.81428 10,4.34842 2.23024,1.53414 6.07999,3.94116 8.55499,5.34894 10.06011,5.72219 25.65844,22.35634 32.86254,35.0448 1.2994,2.2886 3.72951,6.4111 5.40024,9.1611 1.67074,2.75 4.29124,8.825 5.82334,13.5 1.53209,4.675 3.7275,11.1968 4.87868,14.4929 3.00517,8.60451 4.41215,31.66847 3.04239,49.87252 -0.9648,12.82221 -1.49507,15.31347 -6.18949,29.07911 -2.82386,8.28051 -5.90535,16.18047 -6.84775,17.55547 -0.9424,1.375 -2.9503,4.95437 -4.462,7.95416 -3.51487,6.97481 -11.5143,16.99152 -20.7455,25.97703 -11.08132,10.78638 -16.01702,13.89584 -36.52049,23.00766 -6.84151,3.0404 -8.24752,3.27868 -24.5,4.15223 -20.93049,1.12497 -464.56403,1.72528 -473.74196,0.64104 z m 477.51788,-71.60127 c 6.47735,-2.94249 12.96818,-9.66763 18.30573,-18.96653 6.06079,-10.55888 7.47894,-16.75267 7.47894,-32.66432 0,-14.59074 -1.46485,-22.25636 -5.63724,-29.5 -1.74242,-3.025 -3.83499,-6.79174 -4.65016,-8.37054 -1.80848,-3.50261 -8.93564,-9.90121 -15.01515,-13.48027 l -4.5,-2.64919 -182.92153,-0.26319 -182.92148,-0.26319 -2.3285,2.1875 c -3.01617,2.83355 -2.95524,6.10918 0.27054,14.54339 4.50141,11.7695 5.35922,17.57786 5.36032,36.29549 10e-4,21.00105 -1.00396,28.78084 -5.01193,38.79028 -3.35024,8.36682 -3.25844,12.17804 0.35427,14.70848 1.88724,1.32187 23.95153,1.49862 184.6708,1.47928 174.54091,-0.021 182.70331,-0.10183 186.54539,-1.84719 z m -459.98494,-1.41447 c 8.55622,-4.49711 20.10246,-22.2918 22.55591,-34.76247 0.70924,-3.60501 0.9936,-11.40366 0.72392,-19.85388 l -0.44415,-13.91674 -5.40411,-10.6604 c -5.81349,-11.46796 -10.5634,-16.85936 -19.43264,-22.05708 -7.15662,-4.19406 -13.34636,-4.02597 -20.98662,0.5699 -8.66573,5.21273 -14.36735,12.08356 -19.34248,23.30897 -5.22516,11.78956 -6.69573,21.73275 -5.26273,35.5837 1.74289,16.84622 12.53322,35.76039 24.05996,42.17427 2.90194,1.61474 4.95806,1.88137 12.03294,1.56036 5.08576,-0.23075 9.73159,-1.01716 11.5,-1.94663 z m 235.05345,-284.21187 2.4955,-2.4955 -0.29095,-31.09225 L 434,453.11526 l -2.81963,-2.42418 -2.81963,-2.42418 -120.01883,0.26193 -120.01883,0.26193 -1.91154,2.36078 c -1.79038,2.21117 -1.91153,4.33018 -1.91153,33.43555 0,30.52888 0.0382,31.11542 2.17431,33.38922 l 2.17432,2.31445 120.37114,0 120.37113,0 2.49549,-2.49549 z m 105.98292,-141.81049 2.68086,-2.30598 0.16558,-29.94402 c 0.0911,-16.46921 -0.23756,-31.19102 -0.73028,-32.71513 -0.49272,-1.52411 -1.71894,-3.21161 -2.72493,-3.75 -1.17286,-0.6277 -63.87111,-0.97889 -174.75994,-0.97889 l -172.93088,0 -2.63486,2.07258 -2.63486,2.07258 0,31.47287 0,31.47288 2.45455,2.45454 2.45454,2.45455 172.98969,0 172.98967,0 2.68086,-2.30598 z"/>
		</symbol>

		<symbol id="password-personal" viewBox="0 0 620 705">
			<path fill="currentColor" transform="translate(-72.857153,-142.71938)" d="m 108.6767,845.46938 c -0.23115,-1.62753 -2.19308,-3.23471 -7.0917,-5.80941 -8.864797,-4.65929 -16.075067,-11.82186 -20.325057,-20.19059 -2.84671,-5.6055 -3.84969,-6.75 -5.91536,-6.75 l -2.48743,0 0,-190 0,-190 2.44892,0 c 2.01759,0 2.97688,-1.10081 5.44655,-6.25 4.30803,-8.98216 13.22778,-17.30811 25.058127,-23.38999 l 9.45361,-4.86001 33.38637,-0.5 c 32.96503,-0.49369 33.40897,-0.52794 35.17745,-2.71389 1.63079,-2.01576 1.8383,-5.68492 2.3188,-41 0.46648,-34.28546 0.7592,-39.71441 2.52261,-46.78611 6.5954,-26.44919 9.21633,-35.48908 11.45226,-39.5 1.37971,-2.475 3.26456,-6.84389 4.18856,-9.70863 0.92399,-2.86475 2.78911,-6.843 4.14469,-8.84057 1.35558,-1.99756 3.81059,-6.17867 5.45559,-9.29136 12.1493,-22.98919 45.07386,-55.91161 68.1059,-68.1015 3.11269,-1.64741 7.2938,-4.10441 9.29136,-5.45999 1.99757,-1.35558 5.97582,-3.21898 8.84057,-4.14089 2.86474,-0.9219 7.61767,-3.007 10.56205,-4.63354 2.94438,-1.62655 9.24438,-3.82371 14,-4.88259 15.43037,-3.43571 17.60721,-4.31974 17.963,-7.29496 l 0.31642,-2.64597 39.86716,0 39.86716,0 0.31642,2.64597 c 0.35579,2.97522 2.53263,3.85925 17.963,7.29496 4.75562,1.05888 11.05562,3.25604 14,4.88259 2.94438,1.62654 7.69731,3.71164 10.56205,4.63354 2.86475,0.92191 6.843,2.78531 8.84057,4.14089 1.99756,1.35558 6.17867,3.81167 9.29136,5.45798 8.7415,4.6234 23.27577,15.40149 32.96286,24.44407 11.5235,10.7568 36.19658,41.82696 36.19658,45.58139 0,0.52216 1.56205,3.30496 3.47123,6.18399 1.90918,2.87904 4.32472,7.71973 5.36786,10.7571 1.04315,3.03736 3.03887,7.77657 4.43494,10.53158 2.36435,4.66583 6.21826,18.21373 10.93653,38.44594 1.73123,7.42364 2.04854,13.34835 2.50579,46.78735 0.47628,34.83037 0.68517,38.48713 2.31357,40.5 1.76712,2.18434 2.21713,2.21905 35.17593,2.71265 l 33.38592,0.5 9.45411,4.86076 c 11.59563,5.96179 19.64976,13.44446 24.63733,22.88924 2.87243,5.43941 4.02588,6.75 5.94066,6.75 l 2.37613,0 0,189.5 0,189.5 -2.28537,0 c -1.82206,0 -2.94851,1.34478 -5.55646,6.63343 -4.54125,9.20917 -12.34815,17.10456 -21.09865,21.33778 -5.71884,2.7666 -7.05952,3.85326 -7.05952,5.72198 l 0,2.30681 -273.93045,0 -273.93045,0 -0.31955,-2.25 z M 221.04633,678.7694 c 7.6409,-0.80412 9.81245,-1.52077 18,-5.94032 11.66755,-6.29803 18.88385,-13.52967 25.0564,-25.1097 5.47592,-10.27309 5.92109,-12.17911 5.92109,-25.35132 0,-12.73379 -0.9591,-16.4053 -7.02073,-26.87596 -6.63002,-11.45249 -13.69272,-18.17461 -25.31244,-24.09182 -8.81608,-4.4895 -10.11282,-4.85786 -18.95908,-5.38563 -13.5763,-0.80998 -21.28762,0.77822 -31.22916,6.43186 -10.5514,6.00046 -17.70575,12.94794 -22.93604,22.27287 -6.80016,12.1238 -7.05806,13.13864 -7.13725,28.08493 l -0.072,13.58492 5,9.68024 c 5.23001,10.12555 12.33646,18.63028 19.16368,22.93438 9.53739,6.01266 16.39835,8.88973 23.04215,9.66246 3.73679,0.43462 7.01917,0.84137 7.29417,0.90388 0.275,0.0625 4.41013,-0.29784 9.18918,-0.80079 z m 169.61815,-0.0204 c 7.09743,-0.81604 9.64619,-1.68106 17.5,-5.93925 11.56938,-6.2727 18.81171,-13.55889 25.10029,-25.25228 8.81819,-16.3971 8.7979,-34.22905 -0.0576,-50.65732 -6.41412,-11.8991 -14.0151,-19.1942 -26.7576,-25.68081 l -9.82215,-5 -13.78858,0 -13.78857,0 -9.78915,5 c -13.10803,6.69519 -19.54939,12.77648 -26.09657,24.63779 -6.14622,11.13491 -7.8965,19.03627 -6.94859,31.36829 0.72146,9.3859 1.67111,12.35338 7.03847,21.99392 5.69569,10.23024 13.36335,17.66327 24.38515,23.63892 7.29003,3.95241 10.72426,5.20063 16,5.81542 3.69469,0.43055 7.16761,0.83854 7.71761,0.90665 0.55,0.0681 4.7383,-0.30599 9.30733,-0.83133 z m 169,0 c 22.0223,-2.53207 44.47127,-23.7384 48.27953,-45.60705 0.6909,-3.96743 0.94515,-10.57822 0.61006,-15.86248 -0.53437,-8.42697 -0.93502,-9.75897 -5.73311,-19.06013 -7.02629,-13.62056 -12.92712,-19.51782 -26.57178,-26.55569 l -10.55514,-5.44427 -13.80356,0 -13.80356,0 -9.79194,5 c -7.10442,3.62769 -11.49315,6.705 -15.99029,11.21216 -5.60473,5.61721 -7.85506,8.97279 -13.67507,20.39163 -2.52336,4.95082 -3.78196,17.61177 -2.74748,27.6384 0.74345,7.20587 1.50919,9.49491 5.86193,17.52321 6.32445,11.66498 13.53037,18.79498 25.47219,25.20384 7.15691,3.84093 10.23115,4.89901 16,5.50682 3.92749,0.41381 7.36589,0.81007 7.64089,0.88057 0.275,0.0705 4.2383,-0.30163 8.80733,-0.82697 z m -38.16029,-283.40248 2.75856,-2.37282 -0.25626,-34.87718 c -0.27901,-37.97354 -0.7903,-43.59574 -5.01822,-55.18051 -1.54933,-4.24528 -3.37586,-10.04837 -4.05893,-12.89575 -0.68308,-2.84738 -2.6167,-7.34242 -4.29694,-9.98899 -1.68025,-2.64652 -3.83151,-6.61189 -4.78059,-8.81189 -2.93461,-6.80257 -14.08022,-21.50574 -23.12553,-30.50697 -8.9878,-8.944 -23.4813,-19.97354 -30.36913,-23.11088 -2.2,-1.00208 -6.025,-3.18358 -8.5,-4.84777 -2.475,-1.6642 -5.11203,-3.02774 -5.86006,-3.0301 -0.74803,-0.002 -7.39915,-2.04246 -14.78027,-4.53357 -11.76912,-3.97204 -15.07739,-4.65421 -26.88994,-5.54468 -20.1637,-1.52003 -37.70714,0.0316 -50.8093,4.49381 -5.58824,1.90319 -12.16941,3.98063 -14.62483,4.61653 -2.45543,0.6359 -7.25466,2.80036 -10.66497,4.80991 -3.41031,2.00954 -8.37633,4.90607 -11.0356,6.43673 -19.17401,11.0364 -38.68065,31.21229 -48.87917,50.55612 -1.67427,3.17565 -3.95977,7.09848 -5.07888,8.71739 -2.46764,3.56969 -11.07458,29.77537 -12.31577,37.49799 -0.491,3.05497 -1.0209,21.45056 -1.17756,40.87908 l -0.28483,35.32458 2.75635,2.37092 2.75636,2.37091 135.88847,0 135.88847,0 2.75857,-2.37282 z"/>
		</symbol>

		<symbol id="user-personal" viewBox="0 0 635.99999 677.99161">
			<path fill="currentColor" transform="translate(-73.428557,-174.51343)" d="m 73.428557,840.00505 c 0,-12.38179 0.0218,-12.5 2.30317,-12.5 1.9644,0 2.62629,-1.00327 4.5,-6.82095 1.20826,-3.75152 2.19519,-7.46402 2.19319,-8.25 -0.007,-2.81293 10.4687,-22.56887 15.8538,-29.8979 6.753773,-9.19176 21.981093,-24.43044 30.196253,-30.21876 11.47889,-8.08791 20.44739,-13.74621 25.75201,-16.24715 2.91414,-1.3739 6.60923,-3.43139 8.21133,-4.57218 1.6021,-1.14079 5.38353,-2.92419 8.4032,-3.96311 3.01966,-1.03891 7.47305,-3.05091 9.89642,-4.4711 2.42336,-1.42019 6.83264,-3.30251 9.79838,-4.18294 2.96574,-0.88043 7.8786,-2.8556 10.91748,-4.38928 3.03888,-1.53367 7.53888,-3.31985 10,-3.96929 2.46112,-0.64943 6.37165,-2.27883 8.69007,-3.62088 2.31841,-1.34205 7.26841,-3.38047 11,-4.52982 3.73158,-1.14934 8.62066,-3.16243 10.86461,-4.47352 2.24395,-1.31109 6.64885,-3.26765 9.78867,-4.34791 3.13982,-1.08025 6.92887,-2.83087 8.4201,-3.89026 1.49122,-1.05939 4.44577,-2.6493 6.56566,-3.53313 2.11989,-0.88383 7.06989,-3.72282 11,-6.30888 16.63384,-10.94524 28.44315,-24.224 31.04724,-34.91048 1.74505,-7.16116 3.79108,-43.08572 3.24081,-56.90246 -0.45316,-11.37822 -1.79219,-15.39581 -6.95624,-20.8713 -6.29038,-6.66975 -17.29803,-26.54485 -22.22492,-40.1287 -6.44302,-17.76394 -7.46587,-21.0715 -8.04042,-26 -0.51956,-4.45676 -1.13774,-5.48891 -5.68984,-9.5 -13.27546,-11.69769 -17.63483,-16.85077 -19.27411,-22.78335 -0.86879,-3.14416 -2.52245,-8.86665 -3.67481,-12.71665 -1.39787,-4.67027 -2.12628,-9.99536 -2.18862,-16 -0.0881,-8.48729 0.12003,-9.42726 3.6536,-16.5 2.06087,-4.125 4.87337,-9.48328 6.25,-11.90728 3.10125,-5.46076 3.11414,-7.75103 0.0937,-16.64978 -1.31744,-3.88139 -2.91728,-10.63139 -3.5552,-15 -0.63795,-4.36862 -2.29031,-14.46794 -3.67193,-22.44294 -5.19318,-29.97593 -4.88312,-56.37234 0.98853,-84.15716 2.1495,-10.17151 4.56019,-18.70971 6.1914,-21.92875 1.46923,-2.89938 3.28769,-7.01858 4.04104,-9.15378 4.3064,-12.20565 25.24708,-37.00335 35.89704,-42.50885 1.66012,-0.8582 4.59339,-2.79524 6.51839,-4.30454 1.925,-1.5093 4.625,-3.06013 6,-3.44628 1.375,-0.38616 4.975,-2.0833 8,-3.77143 3.025,-1.68813 8.65,-3.83518 12.5,-4.77122 3.85,-0.93603 10.96558,-2.87806 15.8124,-4.3156 10.94272,-3.24556 25.16987,-4.64271 47.1876,-4.63397 22.97575,0.009 31.20054,1.09898 45.25718,5.99692 13.53266,4.71535 13.5364,4.71749 22.50866,12.85265 9.91247,8.98765 13.29189,10.89135 24.28419,13.67977 19.1167,4.84935 34.26809,16.62496 46.27175,35.96224 5.03849,8.11674 12.05311,29.65316 13.35411,41 0.595,5.18937 0.8149,19.58509 0.51937,34 -0.51251,24.99898 -1.94824,38.51138 -5.20635,49 -0.85425,2.75 -2.23048,9.49618 -3.05831,14.99152 -0.83149,5.5197 -2.60735,12.3991 -3.96786,15.37084 -2.99439,6.54061 -3.1082,10.67204 -0.40324,14.63764 1.12548,1.65 3.67621,6.15 5.66829,10 3.13752,6.06375 3.68083,8.15002 4.06215,15.59828 0.30548,5.96707 -0.0362,10.25129 -1.11646,14 -0.85616,2.97094 -2.51519,9.00172 -3.68673,13.40172 -2.60718,9.79194 -7.45168,16.51545 -16.60735,23.04881 -7.31676,5.22113 -8.84661,7.68662 -9.75082,15.71431 -0.35702,3.16971 -2.17059,9.46971 -4.03014,14 -1.85955,4.53028 -3.69357,9.71254 -4.0756,11.51611 -0.75007,3.54114 -10.59891,23.50748 -12.88662,26.12476 -0.76727,0.8778 -2.16247,3.10997 -3.10045,4.96037 -0.93797,1.8504 -3.39791,5.2254 -5.46652,7.5 -2.06862,2.2746 -4.28045,5.66529 -4.91519,7.53486 -2.4923,7.34093 -0.64786,65.58986 2.30032,72.64585 5.22795,12.51224 25.23906,30.92053 41.50126,38.17715 3.0006,1.33894 6.6006,3.23587 8,4.2154 1.3994,0.97952 5.01936,2.58534 8.04436,3.56849 3.025,0.98315 8.47745,3.29647 12.11656,5.14072 3.6391,1.84424 7.31423,3.35317 8.16694,3.35317 0.85272,0 4.40027,1.51106 7.88345,3.35792 3.48318,1.84685 8.89402,4.10171 12.02409,5.01079 3.13007,0.90908 8.96737,3.22302 12.97179,5.14208 4.00441,1.91907 7.91304,3.48921 8.68585,3.48921 0.77281,0 4.6105,1.75285 8.52821,3.89522 3.91771,2.14237 8.56448,4.19848 10.32615,4.56914 1.76167,0.37066 4.36097,1.58475 5.77621,2.69798 1.41524,1.11323 5.59887,3.56951 9.29696,5.45841 8.97047,4.58192 17.67064,9.95142 24.53942,15.14503 9.0361,6.83235 24.50083,22.10548 30.61353,30.23422 6.09209,8.10134 15.45433,25.73507 16.54002,31.15303 0.36888,1.84083 1.57591,6.15947 2.68229,9.59697 1.54354,4.79577 2.45797,6.25 3.93006,6.25 1.78471,0 1.91847,0.83666 1.91847,12 l 0,12 -318,0 -318.000003,0 0,-12.5 z"/>
		</symbol>

		<symbol id="cart-personal" viewBox="0 0 731 731">
			<path fill="currentColor" d="m 49.85715,834.70097 c 0,-2.56213 -0.79012,-3.27942 -7.25,-6.58173 -9.61045,-4.91289 -17.62979,-12.87566 -22.36753,-22.20974 -3.30259,-6.50663 -4.041,-7.33302 -6.55226,-7.33302 l -2.83021,0 0,-34.5 0,-34.5 2.53138,0 c 1.39227,0 2.73339,-0.5625 2.98029,-1.25 1.0234,-2.84979 3.50369,-25.62339 4.92821,-45.25 1.94481,-26.79504 2.236,-29.62713 5.08961,-49.5 2.71502,-18.9077 4.14327,-31.64793 4.98871,-44.5 1.37095,-20.8407 2.7244,-34.18174 5.47834,-54 1.60498,-11.55 3.37861,-26.85 3.94138,-34 0.56278,-7.15 1.5088,-19.3 2.10227,-27 0.59347,-7.7 2.36681,-23.225 3.94077,-34.5 2.87776,-20.61481 4.01906,-31.82615 6.05702,-59.5 0.60755,-8.25 2.19098,-22.875 3.51873,-32.5 1.32775,-9.625 3.28185,-24.30434 4.34244,-32.62076 2.07893,-16.30159 2.91237,-18.64959 10.26977,-28.93244 6.04527,-8.449 12.88544,-14.33079 23.02995,-19.80322 8.03959,-4.33693 10.59121,-5.11306 23.80113,-7.2396 3.0293,-0.48766 13.18303,-10.21825 75.5,-72.35374 39.6,-39.48467 73.0125,-72.31462 74.25,-72.95546 1.5654,-0.81063 2.25,-2.06724 2.25,-4.12996 l 0,-2.96482 15,0 15,0 0,2.45023 c 0,1.71902 1.41094,3.58418 4.72793,6.25 2.60037,2.08987 22.81741,21.91227 44.92677,44.04977 35.86834,35.914 40.53698,40.25 43.33781,40.25 4.63152,0 6.02824,-0.99473 23.50749,-16.74182 8.8,-7.92794 18.67157,-16.74177 21.93681,-19.5863 3.26525,-2.84454 7.99025,-7.01694 10.5,-9.27202 8.01658,-7.20308 18.42512,-14.15449 23.06319,-15.40287 5.6774,-1.52813 14.34708,-0.57977 18.81867,2.05853 6.38324,3.7662 11.49918,8.6387 63.9928,60.94772 28.97869,28.87678 53.9622,53.62678 55.51891,55 2.71237,2.39266 3.53539,2.5211 19.73958,3.0805 l 16.9092,0.58374 10.52702,5.41626 c 11.50543,5.91967 19.41013,12.87127 26.05818,22.91626 5.84867,8.83714 6.37081,10.32156 7.98968,22.71434 0.84676,6.48211 2.83836,21.23566 4.42577,32.78566 1.58741,11.55 3.37981,27.525 3.9831,35.5 2.38726,31.55721 3.25454,40.29142 6.00749,60.5 3.42247,25.12333 3.65112,27.32203 5.53819,53.25568 0.81066,11.14063 2.81022,29.81563 4.44347,41.5 2.82885,20.23776 4.18895,33.59968 5.57236,54.74432 0.77569,11.856 3.10211,32.65306 4.97789,44.5 2.26116,14.28096 3.3037,24.4015 5.04761,49 0.89681,12.65 2.37746,28.175 3.29033,34.5 1.63569,11.33329 1.69962,11.50459 4.40975,11.81642 l 2.75,0.31642 0,34.43358 0,34.43358 -2.98884,0 c -2.72353,0 -3.33745,0.68795 -6.91602,7.75 -4.87871,9.62778 -12.0537,16.78528 -21.84514,21.79188 -6.45967,3.30299 -7.25,4.02056 -7.25,6.58261 l 0,2.87551 -326.5,0 -326.5,0 0,-2.87551 z M 397.80873,623.52332 c 4.76429,-0.59739 12.10991,-2.47394 16.97377,-4.33621 4.71606,-1.80567 11.4434,-3.88018 14.94964,-4.61001 3.90667,-0.81317 8.21872,-2.59522 11.13681,-4.60251 2.619,-1.80155 7.62525,-4.64793 11.12501,-6.32529 12.7004,-6.08702 29.35704,-19.98205 40.1224,-33.47025 12.5877,-15.77146 13.81125,-17.51303 16.37227,-23.30395 1.37614,-3.1117 3.81408,-7.48936 5.41764,-9.72813 1.68311,-2.34984 3.77761,-7.44994 4.95488,-12.06513 1.12162,-4.39705 3.35608,-11.40913 4.96547,-15.58241 3.83672,-9.94894 5.03053,-20.24915 5.03053,-43.40332 0,-10.46806 0.43925,-20.56442 0.97612,-22.43636 1.22274,-4.26345 4.09043,-7.38065 10.70551,-11.63696 5.62982,-3.62237 14.25401,-15.17813 16.87794,-22.61516 1.88199,-5.33412 1.9116,-22.24427 0.0482,-27.52571 -0.76573,-2.17031 -3.67676,-7.34672 -6.46896,-11.50312 -4.29784,-6.39765 -6.39642,-8.41196 -13.67825,-13.129 -9.47879,-6.1402 -13.39382,-7.22913 -25.46055,-7.08166 -10.19849,0.12465 -14.441,1.51694 -23.64103,7.75844 -6.43391,4.3649 -8.81188,6.76584 -13.11409,13.2408 -2.89031,4.35 -5.77218,9.4841 -6.40415,11.4091 -0.76559,2.33199 -1.37593,20.68644 -1.82892,55 -0.42299,32.04081 -1.08166,52.63354 -1.74322,54.5 -9.63428,27.18098 -18.13698,39.5749 -36.70092,53.49694 -7.9742,5.98025 -27.59142,14.45002 -37.06767,16.00402 -7.78917,1.27734 -23.65342,1.2725 -30.58747,-0.009 -8.44312,-1.5608 -29.07039,-10.30541 -35.58244,-15.08463 -14.35233,-10.53321 -25.66486,-24.30664 -31.13416,-37.907 -1.88003,-4.675 -4.36392,-10.75 -5.51976,-13.5 -2.01375,-4.79116 -2.12765,-7.17198 -2.72695,-57 -0.41524,-34.52512 -1.00709,-53.14333 -1.76116,-55.40219 -0.62466,-1.87121 -3.50681,-7.01377 -6.40477,-11.4279 -4.57782,-6.97286 -6.41285,-8.77678 -13.98827,-13.75107 -7.23586,-4.75132 -9.92125,-5.9281 -15.78465,-6.91709 -6.92692,-1.16838 -15.99942,-0.72567 -22.3288,1.08957 -1.64228,0.471 -6.55659,3.20055 -10.9207,6.06567 -6.70617,4.40273 -8.77765,6.47607 -13.37877,13.39074 -2.99422,4.49978 -5.8801,9.70189 -6.41307,11.56025 -1.45095,5.05916 -1.18959,22.01544 0.40919,26.54686 2.3179,6.56964 10.53462,18.31466 14.81506,21.17672 7.61807,5.09373 11.74921,9.30101 12.78132,13.0169 0.55784,2.00835 1.01676,12.43835 1.01982,23.17777 0.007,23.2163 1.20332,34.10121 4.65742,42.36347 1.40496,3.36066 3.58558,10.04693 4.84582,14.85836 1.32192,5.0469 3.69989,10.94307 5.62058,13.9362 1.83107,2.85347 4.32311,7.33335 5.53787,9.95528 4.16226,8.98382 21.6448,30.69134 29.81226,37.01695 2.7674,2.14332 8.40663,6.61179 12.53163,9.92992 4.125,3.31814 10.875,7.73396 15,9.81294 4.125,2.07897 9.14703,4.90704 11.16007,6.28458 2.01304,1.37754 6.51304,3.0984 10,3.82413 3.48696,0.72574 10.26108,2.82106 15.05361,4.65626 4.79252,1.83521 11.76752,3.72958 15.5,4.20971 9.79181,1.25959 34.44949,1.30017 44.2379,0.0728 z M 355.85715,257.57648 c 3.42719,-3.42719 2.50408,-5.84265 -4.73873,-12.39949 -3.70629,-3.35528 -18.98707,-18.36301 -33.95728,-33.35051 -26.79727,-26.82821 -27.28216,-27.25 -31.32702,-27.25 -2.25965,0 -4.90502,0.42631 -5.8786,0.94736 -0.97358,0.52104 -14.51143,13.78157 -30.08409,29.46783 -15.57267,15.68626 -30.0055,29.69273 -32.07296,31.12548 -2.06746,1.43275 -4.33174,3.98767 -5.03173,5.67761 -1.18436,2.85928 -1.08267,3.2361 1.46461,5.42717 l 2.73733,2.35455 68.44423,0 c 67.11091,0 68.4832,-0.039 70.44424,-2 z m 162.81144,-0.039 c 3.40286,-3.17024 2.74073,-5.8525 -2.56144,-10.37627 -2.6125,-2.22896 -10.67838,-10.00825 -17.92418,-17.2873 -13.92171,-13.98561 -18.20367,-17.28766 -22.42578,-17.29373 -2.42501,-0.003 -9.88446,4.54399 -11.35394,6.92166 -0.35946,0.58163 -5.24189,4.94469 -10.84984,9.69568 -16.80837,14.23988 -17.37291,15.40212 -10.94626,22.5356 7.32034,8.12547 5.77316,7.83538 41.81144,7.83958 30.88608,0.004 32.14167,-0.071 34.25,-2.03522 z"/>
		</symbol>
	</defs>
</svg>