<?xml version="1.0" encoding="utf-8"?>
<!-- Generator: Adobe Illustrator 24.2.0, SVG Export Plug-In . SVG Version: 6.00 Build 0)  -->
<svg version="1.1" id="Layer_1" xmlns="http://www.w3.org/2000/svg" xmlns:xlink="http://www.w3.org/1999/xlink" x="0px" y="0px"
	 viewBox="0 0 44.4 28.3" style="enable-background:new 0 0 44.4 28.3;" xml:space="preserve">
<style type="text/css">
	.st0{fill:none;stroke:#000000;stroke-width:2;stroke-linecap:round;stroke-linejoin:round;stroke-miterlimit:10;}
	.st1{fill:none;stroke:#000000;stroke-width:2;stroke-linecap:square;stroke-linejoin:round;stroke-miterlimit:10;}
	.st2{fill:none;stroke:#000000;stroke-linecap:round;stroke-linejoin:round;stroke-miterlimit:10;}
</style>
<g>
	<path class="st0" d="M38.5,27.3H5.8c-2.6,0-4.8-2.1-4.8-4.8V5.8C1,3.2,3.1,1,5.8,1h32.8c2.6,0,4.8,2.1,4.8,4.8v16.8
		C43.3,25.1,41.1,27.3,38.5,27.3z"/>
	<line class="st1" x1="1" y1="9" x2="43.3" y2="9"/>
	<line class="st2" x1="5.3" y1="19.3" x2="12.3" y2="19.3"/>
	<line class="st2" x1="16.1" y1="19.3" x2="23.1" y2="19.3"/>
</g>
<g>
	<g>
		<path class="st2" d="M38.5,16.7c-0.1-0.2-0.1-0.3-0.2-0.5l-5.7,3.2L29.9,18c0,0.1,0,0.1,0,0.2c0,0.1,0,0.2,0,0.3
			c0.2,2.3,2.1,4.1,4.4,4.1c2.5,0,4.5-2,4.5-4.5C38.8,17.7,38.7,17.2,38.5,16.7z"/>
	</g>
	<g>
		<polyline class="st2" points="37.3,14.7 32.6,17.3 30.3,16.1 		"/>
	</g>
</g>
</svg>
