<?xml version="1.0" encoding="utf-8"?>
<!-- Generator: Adobe Illustrator 24.2.0, SVG Export Plug-In . SVG Version: 6.00 Build 0)  -->
<svg version="1.1" id="Layer_1" xmlns="http://www.w3.org/2000/svg" xmlns:xlink="http://www.w3.org/1999/xlink" x="0px" y="0px"
	 viewBox="0 0 51.8 52.3" style="enable-background:new 0 0 51.8 52.3;" xml:space="preserve">
<style type="text/css">
	.st0{fill:#FFFFFF;stroke:#000000;stroke-width:2;stroke-linejoin:round;stroke-miterlimit:10;}
	.st1{fill:none;stroke:#000000;stroke-linecap:round;stroke-linejoin:round;stroke-miterlimit:10;}
	.st2{fill:none;stroke:#000000;stroke-width:2;stroke-linecap:round;stroke-linejoin:round;stroke-miterlimit:10;}
	.st3{fill:#FFFFFF;stroke:#000000;stroke-width:2;stroke-linecap:round;stroke-linejoin:round;stroke-miterlimit:10;}
	.st4{fill:#FFFFFF;}
</style>
<g>
	<path class="st0" d="M21.7,48.9H6.8c-3.2,0-5.8-2.6-5.8-5.8V6.8C1,3.6,3.6,1,6.8,1h14.9c3.2,0,5.8,2.6,5.8,5.8v36.3
		C27.4,46.3,24.8,48.9,21.7,48.9z"/>
	<line class="st1" x1="11.6" y1="5.5" x2="16.9" y2="5.5"/>
	<g>
		<path class="st2" d="M16.9,15.9c1.4,2.3,2.3,5.1,2.3,8.1c0,2.9-0.8,5.6-2.2,8"/>
		<path class="st2" d="M13.1,18.1c1.1,1.7,1.7,3.8,1.7,5.9c0,2.2-0.6,4.2-1.7,5.9"/>
		<path class="st2" d="M9.4,20.2c0.7,1.1,1.2,2.4,1.2,3.8c0,1.4-0.4,2.7-1.2,3.8"/>
	</g>
</g>
<g>
	<path class="st3" d="M47.3,51.3H23.9c-1.9,0-3.4-1.5-3.4-3.4v-12c0-1.9,1.5-3.4,3.4-3.4h23.5c1.9,0,3.4,1.5,3.4,3.4v12
		C50.8,49.8,49.2,51.3,47.3,51.3z"/>
	<line class="st2" x1="20.5" y1="38.2" x2="50.8" y2="38.2"/>
	<line class="st1" x1="23.6" y1="45.7" x2="31.6" y2="45.7"/>
	<line class="st1" x1="34.3" y1="45.7" x2="42.3" y2="45.7"/>
</g>
<g>
	<circle class="st4" cx="9.4" cy="5.5" r="0.8"/>
	<path d="M9.4,4.7C9,4.7,8.6,5,8.6,5.5s0.3,0.8,0.8,0.8s0.8-0.3,0.8-0.8S9.8,4.7,9.4,4.7L9.4,4.7z"/>
</g>
</svg>
