<?xml version="1.0" encoding="utf-8"?>
<!-- Generator: Adobe Illustrator 24.2.0, SVG Export Plug-In . SVG Version: 6.00 Build 0)  -->
<svg version="1.1" id="Layer_1" xmlns="http://www.w3.org/2000/svg" xmlns:xlink="http://www.w3.org/1999/xlink" x="0px" y="0px"
	 viewBox="0 0 29 21.8" style="enable-background:new 0 0 29 21.8;" xml:space="preserve">
<style type="text/css">
	.st0{fill:#FFFFFF;}
	.st1{fill:#FFFFFF;stroke:#000000;stroke-linecap:round;stroke-linejoin:round;stroke-miterlimit:10;}
</style>
<g>
	<g>
		<path class="st0" d="M16.8,21.4c-0.8,0-1.6,0-2.3-0.1c-0.7,0.1-1.4,0.1-2.2,0.1c-6.7,0-11.9-1.9-11.9-4.4c0-0.5,0.2-1.2,1.2-2
			c-0.9-0.7-1.1-1.4-1.1-2V9c0,0,0-0.1,0-0.1c0,0,0-0.1,0-0.1V5.3c0-0.1,0-0.2,0-0.3l0-0.2c0-2.5,5.2-4.4,11.8-4.4
			c5.9,0,12,1.6,12,4.4v4c0,0,0,0.1,0,0.1c0,0,0,0.1,0,0.1v0.5c2.8,0.8,4.4,2.1,4.4,3.5v4C28.6,19.5,23.4,21.4,16.8,21.4z"/>
		<path d="M12.3,0.8c6.4,0,11.6,1.8,11.6,4v4c0,0.1,0,0.1,0,0.2h0v0.8c2.7,0.7,4.4,1.9,4.4,3.2v4c0,2.2-5.1,4-11.5,4
			c-0.8,0-1.6,0-2.3-0.1C13.7,21,13,21,12.3,21c-6.4,0-11.5-1.8-11.5-4c0-0.7,0.5-1.4,1.5-2c-0.9-0.6-1.4-1.2-1.4-2V9h0
			c0-0.1,0-0.1,0-0.2V5.3c0-0.2,0-0.3,0-0.5C0.9,2.6,5.9,0.8,12.3,0.8 M12.3,0C6.4,0,0.1,1.7,0.1,4.8c0,0,0,0.1,0,0.1
			c0,0.1,0,0.2,0,0.4v3.5c0,0,0,0.1,0,0.1c0,0,0,0.1,0,0.1v4c0,0.5,0.2,1.2,0.9,1.9c-0.8,0.7-1,1.5-1,2c0,3.1,6.3,4.8,12.3,4.8
			c0.7,0,1.5,0,2.2-0.1c0.8,0,1.5,0.1,2.3,0.1c5.9,0,12.2-1.7,12.2-4.8v-4c0-1.5-1.6-2.8-4.4-3.7V9c0,0,0-0.1,0-0.1c0,0,0-0.1,0-0.1
			v-4C24.6,1.7,18.2,0,12.3,0L12.3,0z"/>
	</g>
	<ellipse class="st1" cx="12.3" cy="16.8" rx="11.5" ry="4"/>
	<path class="st1" d="M5.3,12.8v4c0,2.3,5.1,4,11.5,4s11.5-1.8,11.5-4v-4"/>
	<ellipse class="st1" cx="16.8" cy="12.8" rx="11.5" ry="4"/>
	<path class="st1" d="M0.8,8.9v4c0,2.3,5.1,4,11.5,4s11.5-1.8,11.5-4v-4"/>
	<path class="st1" d="M0.8,5v3.7c0,2.3,5.1,4,11.5,4s11.5-1.8,11.5-4v-4"/>
	<path class="st1" d="M12.3,0.8c6.4,0,11.6,1.7,11.6,4c0,2.2-5.2,4-11.6,4S0.8,7,0.8,4.8S5.9,0.8,12.3,0.8z"/>
</g>
</svg>
