<?xml version="1.0" encoding="utf-8"?>
<!-- Generator: Adobe Illustrator 24.2.0, SVG Export Plug-In . SVG Version: 6.00 Build 0)  -->
<svg version="1.1" id="Layer_1" xmlns="http://www.w3.org/2000/svg" xmlns:xlink="http://www.w3.org/1999/xlink" x="0px" y="0px"
	 viewBox="0 0 44.5 55.9" style="enable-background:new 0 0 44.5 55.9;" xml:space="preserve">
<style type="text/css">
	.st0{fill:none;stroke:#000000;stroke-width:2;stroke-linejoin:round;stroke-miterlimit:10;}
	.st1{fill:none;stroke:#000000;stroke-linecap:round;stroke-linejoin:round;stroke-miterlimit:10;}
	.st2{fill:#FFFFFF;stroke:#000000;stroke-linecap:round;stroke-linejoin:round;stroke-miterlimit:10;}
	.st3{fill:none;stroke:#000000;stroke-width:2;stroke-linecap:round;stroke-linejoin:round;stroke-miterlimit:10;}
</style>
<g>
	<polyline class="st0" points="35.7,14.4 22.3,14.4 22.3,1 	"/>
	<path class="st0" d="M35.7,14.4L22.3,1H3.1C1.9,1,1,2,1,3.1v42.1c0,1.2,1,2.1,2.1,2.1h30.5c1.2,0,2.1-1,2.1-2.1
		C35.7,45.2,35.7,14.4,35.7,14.4z"/>
	<line class="st1" x1="6.9" y1="23" x2="29.8" y2="23"/>
	<line class="st1" x1="6.9" y1="27.4" x2="29.8" y2="27.4"/>
	<circle class="st2" cx="33.1" cy="44.5" r="10.9"/>
	<g>
		<path class="st3" d="M30.4,50.6V38.2h4.1c1.8,0,3.3,1.5,3.3,3.3s-1.5,3.3-3.3,3.3h-6.2"/>
		<line class="st3" x1="28.3" y1="47.9" x2="35.3" y2="47.9"/>
	</g>
</g>
</svg>
