<?xml version="1.0" encoding="utf-8"?>
<!-- Generator: Adobe Illustrator 24.2.0, SVG Export Plug-In . SVG Version: 6.00 Build 0)  -->
<svg version="1.1" id="Layer_1" xmlns="http://www.w3.org/2000/svg" xmlns:xlink="http://www.w3.org/1999/xlink" x="0px" y="0px"
	 viewBox="0 0 32.9 47.4" style="enable-background:new 0 0 32.9 47.4;" xml:space="preserve">
<style type="text/css">
	.st0{fill:#FFFFFF;stroke:#000000;stroke-linecap:round;stroke-linejoin:round;stroke-miterlimit:10;}
	.st1{fill:none;stroke:#000000;stroke-linecap:round;stroke-linejoin:round;stroke-miterlimit:10;}
</style>
<g>
	<path class="st0" d="M14.9,3.7c0.1,0.2,0.2,0.9,0.3,1c0.5,2-0.8,4-2.7,4.5c-2,0.5-4-0.8-4.5-2.7c-0.1-0.2-0.3-0.9-0.3-1"/>
	<path class="st0" d="M7.7,5.5L7.5,4.6C7.1,3,8.1,1.3,9.8,0.9l1.3-0.3c1.6-0.4,3.3,0.6,3.7,2.3L15,3.8"/>
	<line class="st1" x1="17.9" y1="3.1" x2="7.7" y2="5.5"/>
	<rect x="19.2" y="11.3" class="st0" width="12.1" height="12.3"/>
	<rect x="24.2" y="11.7" class="st0" width="2.1" height="3.9"/>
	<line class="st1" x1="16.9" y1="18.1" x2="17.9" y2="25.7"/>
	<polygon class="st0" points="32.4,17.7 28.9,18.9 19.6,18.1 17,15.5 14.3,17.6 18,21.4 29.9,21.6 32.4,21.4 	"/>
	<path class="st0" d="M13,16.9l2.6,2.6l2.9-2.9l-3.3-3.3l0,0c-1-0.9-2.4-1.4-3.8-1.2l0,0c-2,0.3-3.4,2-3.1,4.1l1.4,9.6L8.8,35
		l-8.3,6.6l4.1,5.3l0.5-0.4c1.1-0.9,1.3-2.4,0.4-3.5l-0.3-0.4l7.7-5.2l1.9-6"/>
	<path class="st0" d="M13.2,30.2c2,1.6,4.6,2.6,8.4,3.2l0,0l3.2,12.1l6.5-1.1l-0.1-0.7c-0.3-1.4-1.5-2.3-2.8-2l-0.5,0.1l-2.8-10.4
		l-7.2-5.7L15.3,26"/>
</g>
</svg>
