<?xml version="1.0" encoding="utf-8"?>
<!-- Generator: Adobe Illustrator 24.2.0, SVG Export Plug-In . SVG Version: 6.00 Build 0)  -->
<svg version="1.1" xmlns="http://www.w3.org/2000/svg" xmlns:xlink="http://www.w3.org/1999/xlink" x="0px" y="0px"
	 viewBox="0 0 19.8 19.8" style="enable-background:new 0 0 19.8 19.8;" xml:space="preserve">
<style type="text/css">
	.st0{fill:#E30613;}
	.st1{fill:#FFFFFF;}
</style>
<g id="Фон_xA0_Изображение_1_">
</g>
<g id="drive2_xA0_Изображение_1_">
	<g>
		<path class="st0" d="M18.1,19.8H1.7C0.7,19.8,0,19,0,18.1L0,1.7C0,0.7,0.7,0,1.7,0l16.5,0c0.9,0,1.7,0.7,1.7,1.7v16.5
			C19.8,19,19,19.8,18.1,19.8z"/>
		<path class="st1" d="M13.7,5.4c0,0,0-1.6-0.9-2.3c-0.7-0.5-1.9-0.6-1.9-0.6H6v14.8h4.9c0,0,2.5,0,2.7-2.1
			C13.8,13.6,13.7,5.4,13.7,5.4z M11.2,13.3c0,1.3-0.9,1.3-0.9,1.3H8.7V5.1h1.6c0,0,0.8,0,0.9,0.4C11.2,6,11.2,7,11.2,7
			S11.2,12.3,11.2,13.3z"/>
	</g>
</g>
</svg>
