<?xml version="1.0" encoding="utf-8"?>
<!-- Generator: Adobe Illustrator 24.2.0, SVG Export Plug-In . SVG Version: 6.00 Build 0)  -->
<svg version="1.1" id="Layer_1" xmlns="http://www.w3.org/2000/svg" xmlns:xlink="http://www.w3.org/1999/xlink" x="0px" y="0px"
	 viewBox="0 0 48.9 35.7" style="enable-background:new 0 0 48.9 35.7;" xml:space="preserve">
<style type="text/css">
	.st0{fill:#FFFFFF;stroke:#000000;stroke-width:2;stroke-linecap:round;stroke-linejoin:round;stroke-miterlimit:10;}
	.st1{fill:#FFFFFF;}
	.st2{fill:#FFFFFF;stroke:#000000;stroke-linecap:round;stroke-linejoin:round;stroke-miterlimit:10;}
</style>
<g>
	<path class="st0" d="M34.3,13h6.1c0.9,0,1.7,0.4,2.2,1.1l5.3,7c0.4,0.5,0.5,1,0.5,1.6v5.2c0,1.5-1.2,2.7-2.7,2.7H34.3
		c-1.5,0-2.7-1.2-2.7-2.7V15.7C31.6,14.2,32.8,13,34.3,13z"/>
	<path class="st0" d="M9.8,30.7h23.1c1.7,0,3.1-1.4,3.1-3.1V9.8c0-1.7-1.4-3.1-3.1-3.1H9.8c-1.7,0-3.1,1.4-3.1,3.1v17.8
		C6.7,29.3,8.1,30.7,9.8,30.7z"/>
	<g>
		<path class="st1" d="M16,35.3c-2.2,0-3.9-1.8-3.9-3.9c0-2.2,1.8-3.9,3.9-3.9s3.9,1.8,3.9,3.9C19.9,33.5,18.2,35.3,16,35.3z"/>
		<path d="M16,27.9c1.9,0,3.4,1.5,3.4,3.4s-1.5,3.4-3.4,3.4s-3.4-1.5-3.4-3.4S14.1,27.9,16,27.9 M16,26.9c-2.5,0-4.4,2-4.4,4.4
			c0,2.5,2,4.4,4.4,4.4s4.4-2,4.4-4.4S18.5,26.9,16,26.9L16,26.9z"/>
	</g>
	<g>
		<path class="st1" d="M36.1,35.3c-2.2,0-3.9-1.8-3.9-3.9c0-2.2,1.8-3.9,3.9-3.9c2.2,0,3.9,1.8,3.9,3.9
			C40.1,33.5,38.3,35.3,36.1,35.3z"/>
		<path d="M36.1,27.9c1.9,0,3.4,1.5,3.4,3.4s-1.5,3.4-3.4,3.4s-3.4-1.5-3.4-3.4S34.2,27.9,36.1,27.9 M36.1,26.9
			c-2.5,0-4.4,2-4.4,4.4c0,2.5,2,4.4,4.4,4.4c2.5,0,4.4-2,4.4-4.4C40.6,28.9,38.6,26.9,36.1,26.9L36.1,26.9z"/>
	</g>
</g>
<g>
	<g>
		<circle class="st1" cx="10.9" cy="10.9" r="10.4"/>
		<path d="M10.9,1c5.5,0,9.9,4.4,9.9,9.9s-4.4,9.9-9.9,9.9S1,16.4,1,10.9S5.4,1,10.9,1 M10.9,0C4.9,0,0,4.9,0,10.9
			s4.9,10.9,10.9,10.9s10.9-4.9,10.9-10.9S16.9,0,10.9,0L10.9,0z"/>
	</g>
</g>
<polyline class="st2" points="10.9,6.1 10.9,10.9 17.1,6.8 "/>
</svg>
