<?xml version="1.0" encoding="utf-8"?>
<!-- Generator: Adobe Illustrator 24.2.0, SVG Export Plug-In . SVG Version: 6.00 Build 0)  -->
<svg version="1.1" id="Layer_1" xmlns="http://www.w3.org/2000/svg" xmlns:xlink="http://www.w3.org/1999/xlink" x="0px" y="0px"
	 viewBox="0 0 43.7 38.7" style="enable-background:new 0 0 43.7 38.7;" xml:space="preserve">
<style type="text/css">
	.st0{fill:#FFFFFF;stroke:#000000;stroke-width:2;stroke-linecap:round;stroke-linejoin:round;stroke-miterlimit:10;}
	.st1{fill:#FFFFFF;}
	.st2{fill:none;stroke:#000000;stroke-miterlimit:10;}
	.st3{fill:none;stroke:#000000;stroke-width:2;stroke-linecap:round;stroke-linejoin:round;stroke-miterlimit:10;}
	.st4{fill:#FFFFFF;stroke:#000000;stroke-linecap:round;stroke-linejoin:round;stroke-miterlimit:10;}
</style>
<path class="st0" d="M28.6,16h6.1c0.9,0,1.7,0.4,2.2,1.1l5.3,7c0.4,0.5,0.5,1,0.5,1.6v5.2c0,1.5-1.2,2.7-2.7,2.7H28.6
	c-1.5,0-2.7-1.2-2.7-2.7V18.7C25.9,17.2,27.1,16,28.6,16z"/>
<path class="st0" d="M4.1,33.7h23.1c1.7,0,3.1-1.4,3.1-3.1V12.8c0-1.7-1.4-3.1-3.1-3.1H4.1C2.4,9.7,1,11.1,1,12.8v17.8
	C1,32.3,2.4,33.7,4.1,33.7z"/>
<g>
	<path class="st1" d="M10.3,38.3c-2.2,0-3.9-1.8-3.9-3.9c0-2.2,1.8-3.9,3.9-3.9c2.1,0,3.9,1.8,3.9,3.9
		C14.2,36.5,12.5,38.3,10.3,38.3z"/>
	<path d="M10.3,30.9c1.9,0,3.4,1.5,3.4,3.4c0,1.9-1.5,3.4-3.4,3.4s-3.4-1.5-3.4-3.4C6.8,32.4,8.4,30.9,10.3,30.9 M10.3,29.9
		c-2.5,0-4.4,2-4.4,4.4c0,2.5,2,4.4,4.4,4.4s4.4-2,4.4-4.4C14.7,31.9,12.8,29.9,10.3,29.9L10.3,29.9z"/>
</g>
<g>
	<path class="st1" d="M30.4,38.3c-2.2,0-3.9-1.8-3.9-3.9c0-2.2,1.8-3.9,3.9-3.9c2.2,0,3.9,1.8,3.9,3.9
		C34.4,36.5,32.6,38.3,30.4,38.3z"/>
	<path d="M30.4,30.9c1.9,0,3.4,1.5,3.4,3.4c0,1.9-1.5,3.4-3.4,3.4S27,36.2,27,34.3C27,32.4,28.5,30.9,30.4,30.9 M30.4,29.9
		c-2.5,0-4.4,2-4.4,4.4c0,2.5,2,4.4,4.4,4.4c2.5,0,4.4-2,4.4-4.4C34.9,31.9,32.9,29.9,30.4,29.9L30.4,29.9z"/>
</g>
<line class="st2" x1="1" y1="21.7" x2="30.3" y2="21.7"/>
<g>
	<line class="st3" x1="15.7" y1="33.7" x2="15.7" y2="9.2"/>
	<path class="st0" d="M12.9,3.1c2.4,2.4,2.8,6.1,2.8,6.1s-3.6-0.3-6.1-2.8S7,2.3,7.9,1.4C8.8,0.6,10.4,0.7,12.9,3.1z"/>
	<path class="st0" d="M21.8,6.5c-2.4,2.4-6.1,2.8-6.1,2.8s0.3-3.6,2.8-6.1s4.1-2.6,5-1.7C24.3,2.4,24.2,4,21.8,6.5z"/>
</g>
<polygon class="st4" points="24.1,14.4 26.6,14.8 24.8,16.5 25.3,19 23,17.9 20.8,19 21.2,16.6 19.4,14.8 21.9,14.4 23,12.2 "/>
</svg>
