<?xml version="1.0" encoding="utf-8"?>
<!-- Generator: Adobe Illustrator 24.2.0, SVG Export Plug-In . SVG Version: 6.00 Build 0)  -->
<svg version="1.1" id="Layer_1" xmlns="http://www.w3.org/2000/svg" xmlns:xlink="http://www.w3.org/1999/xlink" x="0px" y="0px"
	 viewBox="0 0 102.8 29.2" style="enable-background:new 0 0 102.8 29.2;" xml:space="preserve">
<style type="text/css">
	.st0{fill:#FFFFFF;stroke:#000000;stroke-linecap:round;stroke-linejoin:round;stroke-miterlimit:10;}
	.st1{fill:#FFFFFF;stroke:#000000;stroke-miterlimit:10;}
	.st2{fill:none;stroke:#000000;stroke-linecap:round;stroke-linejoin:round;stroke-miterlimit:10;}
</style>
<path class="st0" d="M1.4,20.3v2.3c0,0,0,0.9,0.4,1.3c0.7,0.7,1.7,0.6,1.7,0.6h61.6c0,0,4.5,1.1,4.2,1.1c-2.9,0,27,0,32.2,0
	c0.5,0,0.8-0.4,0.8-0.9V19c0-0.1,0-0.2-0.1-0.4L98.4,5.4c-0.1-0.5-0.5-0.8-1-0.9l-8.6-1.6c-0.7-0.1-1.4,0.3-1.5,1l-0.8,3.3
	c0,0.1,0,0.2,0,0.3l-0.1,11.6c0,0.5-0.4,0.9-0.9,0.9H73.8"/>
<circle class="st1" cx="14.8" cy="25.6" r="3"/>
<circle class="st1" cx="31" cy="25.6" r="3"/>
<path class="st1" d="M22.9,22.6c1.7,0,3,1.3,3,3s-1.3,3-3,3s-2.9-1.3-2.9-3S21.2,22.6,22.9,22.6z"/>
<path class="st2" d="M98.8,8.6h-6.5c-0.3,0-0.5,0.2-0.5,0.5v4c0,0.3,0.2,0.5,0.5,0.5h4.4c0.3,0,0.6,0.1,0.8,0.3l1.6,1.1
	c0.1,0,0.2,0.1,0.2,0.1h1.6"/>
<circle class="st1" cx="94.7" cy="25.6" r="3"/>
<path class="st0" d="M0.9,0.5H83c0.2,0,0.4,0.2,0.4,0.4v19.3c0,0.2-0.2,0.4-0.4,0.4H0.9c-0.2,0-0.4-0.2-0.4-0.4V0.9
	C0.5,0.7,0.7,0.5,0.9,0.5z"/>
<g>
	<line class="st2" x1="5.6" y1="6" x2="12.2" y2="6"/>
	<line class="st2" x1="9" y1="13.5" x2="9" y2="6.4"/>
	<line class="st2" x1="14.5" y1="13.5" x2="14.5" y2="6"/>
	<line class="st2" x1="19" y1="6" x2="15" y2="9.3"/>
	<line class="st2" x1="19" y1="13.5" x2="15" y2="9.6"/>
</g>
<circle class="st1" cx="67.7" cy="25.6" r="3.1"/>
</svg>
