<?xml version="1.0" encoding="utf-8"?>
<!-- Generator: Adobe Illustrator 24.2.0, SVG Export Plug-In . SVG Version: 6.00 Build 0)  -->
<svg version="1.1" id="Layer_1" xmlns="http://www.w3.org/2000/svg" xmlns:xlink="http://www.w3.org/1999/xlink" x="0px" y="0px"
	 viewBox="0 0 200 200" style="enable-background:new 0 0 200 200;" xml:space="preserve">
<style type="text/css">
	.st0{fill:#EBE8E6;}
	.st1{fill:#FFFFFF;}
	.st2{fill:#FFFFFF;stroke:#333F48;stroke-width:2;stroke-linecap:round;stroke-linejoin:round;stroke-miterlimit:10;}
	.st3{fill:none;stroke:#333F48;stroke-width:2;stroke-linecap:round;stroke-linejoin:round;stroke-miterlimit:10;}
	.st4{fill:#EAE8E5;stroke:#333F48;stroke-width:2;stroke-linecap:round;stroke-linejoin:round;stroke-miterlimit:10;}
	.st5{fill:#EAE8E5;}
	.st6{clip-path:url(#SVGID_2_);fill:#FFFFFF;}
</style>
<rect x="57.7" y="68.7" class="st0" width="86.7" height="51.3"/>
<g>
	<path class="st1" d="M74.4,97.6c-0.1-0.2-1.6-2.8-1.6-2.8l-1.8-3.3L68.4,91l-3.3-1.3l-5.4,0.4c0,0-4.3,2.9-4.5,3
		c-0.2,0.1-3.4,5.9-3.4,5.9l-2.5,5.8l-2,6.1l-0.1,6.6c0,0,0.5,10.6,0.5,10.9c0,0.4,15.2,2.3,15.3,2.3s0.1-6.7,0.1-6.7l0.1-8.7
		l1.1-2.7l1.2-3.3l2.4-5.7l0.6-2.8c0,0,1.8,3.2,1.8,3.5c0,0.3,2.2,3.8,2.2,3.8s2.1,0.3,2.3,0.3c0.2,0,3.4-0.4,3.4-0.4l2.8-1.1
		l3.8-1.7c0,0,0-2.9,0-3c0-0.2-1-0.9-1-0.9s-3.8,0.3-4,0.3c-0.3,0.1-2.2,0-2.6,0.2c-0.4,0.2-1.8-0.1-1.8-0.1"/>
	<path class="st2" d="M66.5,78.4c-0.9,3.9,1,9.2,4.2,10c3.2,0.8,6.5-3.2,7.5-7.1c0.9-3.9-0.9-7.3-4.1-8.1
		C70.8,72.4,67.5,74.5,66.5,78.4z"/>
	<path class="st3" d="M68,90.6c1.2,1.1,2.7,4.1,1.4,7.1"/>
	<path class="st3" d="M63.7,113.5c2.5-5.9,5.4-13,5.8-15.8l-9-1.7l-9.5,9.5l-1.8,0.6"/>
	<path class="st3" d="M55.4,147.7l0.5,2.4l2.1,0.2l4.1-0.2l4.7-0.1l0.1-1.6c0.1-1.3-2.4-2.4-3.6-2.5l0.2,0l0.1-23.1
		c0,0,0.2-4.3,0.3-9.4"/>
	<path class="st3" d="M86.9,104.4L86.9,104.4c-3.7,2.5-9.6,4.4-13,4.1c-2.7-1.4-4.8-5.6-5.2-7.8"/>
	<path class="st3" d="M76.1,102.5c2.8-0.7,5.5-0.4,9.4-0.6"/>
	<path class="st3" d="M53.6,152l-5.7-1.7c0,0-0.7-26.5-0.5-35.3c0-0.3,0.1-4,0.9-6.8l0,0c1.7-4.8,5.1-18.2,14.1-18.3
		c11.7-0.1,10.4,5.8,13.9,13.2"/>
	<path class="st2" d="M57,118.5l-1.7,29.3c1.7,0.4,4,1.6,4,2.5l-1.2,1.9l-4.3-0.1"/>
	<path class="st3" d="M91.6,101.3c1.2,0.1,4.5-0.7,4.4-1.1c-0.1-0.8-4.7-0.6-6.1-0.7l0,0c-1.3,0-2.6,1.1-4.4,2.4"/>
	<path class="st3" d="M92.7,101.2c-0.6,0.9-1,1.2-1.3,1.4"/>
	<path class="st3" d="M92.8,103.4c-0.3,0.3-4.4,1.3-5.9,1"/>
	<path class="st3" d="M89.6,102.7c0.1-0.1,3.1-0.4,3.2,0.7"/>
	<path class="st1" d="M55.2,98.5c0,4.4,4.1,9,4.1,9c5.9,3.3,8.7,3.8,15,5.6l0,0c1,0.4,5.9,3.2,8.6,2.5l0-0.1
		c-0.5-0.9-4.4-3.9-6.8-4.5l0,0c-2.3-1.9-8.3-5.3-11.6-6.4l0-0.1c-0.9-5.2-2.5-9.7-5.3-11.9"/>
	<g>
		<path class="st3" d="M62,95.5c1.2,2.6,1.8,6,1.9,8.4"/>
		<path class="st3" d="M54.9,97.9c1,3.5,4.3,9.6,4.3,9.6c5.9,3.3,8.4,3.7,14.7,5.5l0,0c1,0.4,5.9,3.2,8.5,2.5l0-0.1
			c-0.5-0.9-4.3-3.8-6.8-4.5l0,0c-2.3-1.8-9.2-6-12.4-7.1"/>
	</g>
	<path class="st3" d="M59.8,90.4c1.6,0.9,2.8,1.7,2.9,6.2"/>
</g>
<line class="st4" x1="57.7" y1="68.7" x2="57.7" y2="85"/>
<line class="st4" x1="144.4" y1="69.2" x2="144.4" y2="91"/>
<path class="st2" d="M67.1,78.8c12.1,6,19.8,3.3,11,0.2"/>
<polygon class="st4" points="107.5,124.1 131.8,124.1 143,149.9 96.3,149.9 "/>
<polyline class="st3" points="183.5,156.5 107.7,156.5 32,156.5 "/>
<line class="st3" x1="31.7" y1="147" x2="47" y2="133"/>
<line class="st3" x1="172" y1="144.7" x2="154" y2="131"/>
<g>
	<g>
		<path class="st2" d="M80.3,126.9h5.8c1.3,0,2.3,1,2.3,2.3v19.2c0,1.3-1,2.3-2.3,2.3h-5.8c-1.3,0-2.3-1-2.3-2.3v-19.2
			C78,127.9,79,126.9,80.3,126.9z"/>
		<path class="st2" d="M159,126.9h-5.8c-1.3,0-2.3,1-2.3,2.3v19.2c0,1.3,1,2.3,2.3,2.3h5.8c1.3,0,2.3-1,2.3-2.3v-19.2
			C161.3,127.9,160.2,126.9,159,126.9z"/>
	</g>
	<g>
		<path class="st5" d="M79.5,143c0,0,7.8,1.7,19.9,0c0,0,8.7,0,20.2,0s20.2,0,20.2,0c12.1,1.7,19.9,0,19.9,0v-0.9
			c0.9-6.1,1.7-14.7,0-25.1c-4.3-5.2-4.3-5.2-9.5-10.4c-2.6-5.2-4.3-8.7-10.4-14.7c-5.2-1.7-11.6-1.7-20.2-1.7s-15,0-20.2,1.7
			c-6.1,6.1-7.8,9.5-10.4,14.7c-5.2,5.2-5.2,5.2-9.5,10.4c-1.7,10.4-0.9,19,0,25.1"/>
		<g>
			<defs>
				<path id="SVGID_1_" d="M79.5,142.9c0,0,7.8,1.7,19.9,0c0,0,8.7,0,20.2,0s20.2,0,20.2,0c12.1,1.7,19.9,0,19.9,0v-0.9
					c0.9-6.1,1.7-14.7,0-25.1c-4.3-5.2-4.3-5.2-9.5-10.4c-2.6-5.2-4.3-8.7-10.4-14.7c-5.2-1.7-11.6-1.7-20.2-1.7s-15,0-20.2,1.7
					c-6.1,6.1-7.8,9.5-10.4,14.7c-5.2,5.2-5.2,5.2-9.5,10.4c-1.7,10.4-0.9,19,0,25.1"/>
			</defs>
			<clipPath id="SVGID_2_">
				<use xlink:href="#SVGID_1_"  style="overflow:visible;"/>
			</clipPath>
			<rect x="55.2" y="138.4" class="st6" width="171.3" height="5.3"/>
			<polygon class="st6" points="80.6,167.3 72.2,82.2 81.8,81.6 90.2,166.7 			"/>
		</g>
		<path class="st2" d="M153,106.6v-3.2c0-0.9,0.9-1.6,1.8-1.4l4,0.9c0.9,0.2,1.4,1.2,1,2.1l-0.8,1.7"/>
		<path class="st2" d="M86.3,106.6v-3.2c0-0.9-0.9-1.6-1.8-1.4l-4,0.9c-0.9,0.2-1.4,1.2-1,2.1l0.8,1.7"/>
		<line class="st3" x1="151.1" y1="107.5" x2="158.9" y2="106.6"/>
		<g>
			<path class="st3" d="M119.6,125.7c1.2,1.7,19.8,3.4,20.6-5.1"/>
			<g>
				<path class="st3" d="M119.6,118.9c6.8-2.5,18.1-1.7,20.6,0.8"/>
				<path class="st3" d="M140.3,119.8c6.8-0.8,13.5-3.4,16.9-1.7"/>
				<path class="st3" d="M138.6,124.8c7.6,0.8,8.5-0.8,10.1-2.5"/>
				<path class="st3" d="M149.6,124.8c7.6,0,7.6-5.1,7.6-6.8"/>
				<path class="st3" d="M148.7,122.3c0.8,0.8,0.8,1.7,0.8,2.5"/>
				<path class="st3" d="M119.6,118.9c-6.8-2.5-18.1-1.7-20.6,0.8"/>
				<path class="st3" d="M119.6,125.7c-1.2,1.7-19.8,3.4-20.6-5.1"/>
				<path class="st3" d="M99,119.8c-6.8-0.8-13.5-3.4-16.9-1.7"/>
				<path class="st3" d="M100.7,124.8c-7.6,0.8-8.5-0.8-10.1-2.5"/>
				<path class="st3" d="M89.7,124.8c-7.6,0-7.6-5.1-7.6-6.8"/>
				<path class="st3" d="M90.6,122.3c-0.8,0.8-0.8,1.7-0.8,2.5"/>
			</g>
		</g>
		<path class="st2" d="M96.7,132.5c0,3.7,4.5,6.7,10.1,6.7h12.9h12.9c5.6,0,10.1-3,10.1-6.7h-22.9H96.7z"/>
		<path class="st2" d="M119.6,108.4c-13.9,0-25.5,0-25.5,0c1.7-5,4.2-9.2,6.7-12.6c0-0.5,8.1-0.8,18.8-0.8s18.8,0.4,18.8,0.8
			c2.5,3.4,5,7.6,6.7,12.6C145.2,108.4,133.6,108.4,119.6,108.4z"/>
		<line class="st3" x1="88.2" y1="107.5" x2="80.4" y2="106.6"/>
		<path class="st2" d="M157.3,136.9v-9.4h-0.2c-10.3,0.9-11.1,8.6-12.8,10.3c6,1.7,11.1,0.9,12.8-0.9"/>
		<path class="st2" d="M82.1,136.9v-9.4c10.3,0.9,11.1,8.6,12.8,10.3C89,139.5,83.9,138.6,82.1,136.9z"/>
		<path class="st3" d="M79.5,143c0,0,7.8,1.7,19.9,0c0,0,8.7,0,20.2,0s20.2,0,20.2,0c12.1,1.7,19.9,0,19.9,0v-0.9
			c0.9-6.1,1.7-14.7,0-25.1c-4.3-5.2-4.3-5.2-9.5-10.4c-2.6-5.2-4.3-8.7-10.4-14.7c-5.2-1.7-11.6-1.7-20.2-1.7s-15,0-20.2,1.7
			c-6.1,6.1-7.8,9.5-10.4,14.7c-5.2,5.2-5.2,5.2-9.5,10.4c-1.7,10.4-0.9,19,0,25.1"/>
	</g>
</g>
<g>
	<path class="st2" d="M101.8,69.1c0,0,70.2-0.1,70.3,0v87.4h10.4h8.4v-40V69.1V43.3h-18.8h-70.3H31.5H12.6v25.8v47.5v40h8.4h10.4
		V69.1C31,69.1,101.8,69.1,101.8,69.1"/>
	<circle class="st3" cx="101.7" cy="56.9" r="6.3"/>
	<line class="st3" x1="12.6" y1="57.3" x2="84" y2="57.3"/>
	<line class="st3" x1="191" y1="57.3" x2="119.6" y2="57.3"/>
	<line class="st2" x1="23.5" y1="57.3" x2="23.5" y2="155.7"/>
	<line class="st2" x1="179.9" y1="57.3" x2="179.9" y2="155.7"/>
</g>
<polygon class="st4" points="6.4,164.7 32,156.6 32.7,68.9 6.4,61.8 "/>
<polygon class="st4" points="186.6,172.5 171.3,156.6 172,68.9 186.6,61.5 "/>
</svg>
