<?xml version="1.0" encoding="utf-8"?>
<!-- Generator: Adobe Illustrator 24.2.0, SVG Export Plug-In . SVG Version: 6.00 Build 0)  -->
<svg version="1.1" id="Layer_1" xmlns="http://www.w3.org/2000/svg" xmlns:xlink="http://www.w3.org/1999/xlink" x="0px" y="0px"
	 viewBox="0 0 298.3 200" style="enable-background:new 0 0 298.3 200;" xml:space="preserve">
<style type="text/css">
	.st0{fill:none;stroke:#333F48;stroke-width:2;stroke-linecap:round;stroke-linejoin:round;stroke-miterlimit:10;}
	.st1{fill:#FFFFFF;}
	.st2{fill:#EAE8E5;stroke:#333F48;stroke-width:2;stroke-linejoin:round;stroke-miterlimit:10;}
	.st3{fill:#EAE8E5;stroke:#333F48;stroke-width:2;stroke-miterlimit:10;}
	.st4{fill:#EAE8E5;}
	.st5{fill:#FFFFFF;stroke:#333F48;stroke-width:2;stroke-linecap:round;stroke-linejoin:round;stroke-miterlimit:10;}
</style>
<g>
	<line class="st0" x1="120.7" y1="129.4" x2="185.7" y2="159.5"/>
	<line class="st0" x1="250.3" y1="129.4" x2="86.1" y2="164.2"/>
	<polygon class="st1" points="138.9,86.1 168.3,86.4 172.5,147.2 164.2,149 156.5,149.2 153.9,149.2 153.2,148.5 148.2,148.7 
		145.1,148.9 136.9,149 136.9,145.2 138.9,143.1 142.1,142.2 143.6,142.2 	"/>
	<g>
		<g>
			<line class="st0" x1="96.4" y1="129.2" x2="135.8" y2="129.2"/>
			<polygon class="st2" points="133.4,106.8 98.9,106.8 100.2,100.6 132.1,100.6 			"/>
			<rect x="104.1" y="112.5" class="st0" width="24.2" height="16.7"/>
			<line class="st0" x1="104.1" y1="116.8" x2="111.1" y2="116.8"/>
			<line class="st0" x1="135.8" y1="129.2" x2="96.4" y2="129.2"/>
			
				<rect x="111.1" y="112.5" transform="matrix(-1 -7.380242e-11 7.380242e-11 -1 232.2781 241.7432)" class="st0" width="10" height="16.7"/>
			<line class="st0" x1="116.1" y1="129.2" x2="116.1" y2="112.6"/>
			<line class="st0" x1="128.1" y1="116.8" x2="121.1" y2="116.8"/>
			<line class="st0" x1="100.2" y1="106.9" x2="100.2" y2="129.3"/>
			<line class="st0" x1="132.1" y1="107" x2="132.1" y2="129.1"/>
		</g>
	</g>
	<path class="st0" d="M149.7,38.4c5-1.6,1.3,6.3-1.2,4.3"/>
	<g>
		<g>
			<line class="st0" x1="23.5" y1="167.3" x2="92.5" y2="167.3"/>
			<polygon class="st2" points="88.2,137 27.7,137 30.3,130.4 85.7,130.4 			"/>
			<rect x="36.9" y="144.7" class="st0" width="42.3" height="22.6"/>
			<line class="st0" x1="37" y1="150.5" x2="49.3" y2="150.5"/>
			<line class="st0" x1="36.8" y1="163.2" x2="49.2" y2="163.2"/>
			<line class="st0" x1="92.5" y1="167.3" x2="23.5" y2="167.3"/>
			
				<rect x="49.3" y="144.7" transform="matrix(-1 -5.703716e-11 5.703716e-11 -1 115.9874 312.0542)" class="st0" width="17.5" height="22.6"/>
			<line class="st0" x1="58" y1="167.3" x2="58" y2="144.9"/>
			<line class="st0" x1="79" y1="150.5" x2="66.7" y2="150.5"/>
			<line class="st0" x1="79.1" y1="163.2" x2="66.7" y2="163.2"/>
			<line class="st0" x1="30" y1="137.1" x2="30" y2="167.4"/>
			<line class="st0" x1="86" y1="137.3" x2="86" y2="167.2"/>
		</g>
	</g>
	<g>
		<g>
			<line class="st0" x1="218.2" y1="129.2" x2="267.5" y2="129.2"/>
			<path class="st3" d="M264.5,105.4h-43.3l0,0c1.1-2.8,3.8-4.6,6.8-4.6h29.8C260.7,100.8,263.4,102.6,264.5,105.4L264.5,105.4z"/>
			<rect x="227.7" y="111.4" class="st0" width="30.3" height="17.8"/>
			<line class="st0" x1="227.7" y1="126" x2="236.6" y2="126"/>
			<line class="st0" x1="267.5" y1="129.2" x2="218.2" y2="129.2"/>
			
				<rect x="236.6" y="111.4" transform="matrix(-1 -6.273883e-11 6.273883e-11 -1 485.7066 240.6792)" class="st0" width="12.5" height="17.8"/>
			<line class="st0" x1="242.8" y1="129.2" x2="242.8" y2="111.6"/>
			<line class="st0" x1="258" y1="126" x2="249.1" y2="126"/>
			<line class="st0" x1="222.8" y1="105.5" x2="222.8" y2="129.3"/>
			<line class="st0" x1="262.9" y1="105.6" x2="262.9" y2="129.1"/>
		</g>
	</g>
	<path class="st0" d="M142.4,92.9"/>
	<g>
		<polygon class="st4" points="167,89.1 166.3,93.5 161.9,94.7 163.1,149.3 171.2,149 171.9,145.4 168.6,88.9 		"/>
		<path class="st4" d="M151.3,106.4l-4.4,43.6c0,0,6.6,0.5,6.8,0c0.2-0.5,0.3-1.7,0.3-1.7s0.5-5.5,0.5-6.3c0-0.8-1-16.8-1-16.8
			L151.3,106.4z"/>
		<path class="st0" d="M156.2,38.3c-1.5,6.2-8.2,12.4-13.3,11.1c-5.2-1.3-6.9-9.4-5.4-15.7s6.7-9.8,11.9-8.5S157.7,32.1,156.2,38.3z
			"/>
		<path class="st0" d="M170.6,76.2c-2.3-1.9-4.9-6.8-5.6-9.4"/>
		<path class="st0" d="M154,120.8l0.4,29l-4,0.5h-7.8h-5.8v-2.5c0-2.2,1.8-3.9,3.9-3.9l2.5-0.1L140,106c0,0-1.7-20.3-1.4-32.8"/>
		<path class="st0" d="M132.9,70.6c5.7-13.3,13.1-21.9,28.5-18.3c11.3,2.7,18.3,14.2,21.6,25.8"/>
		<path class="st0" d="M164.2,91l3.1-2.2c4.8-1.7,11.6-5.1,15.7-10.4"/>
		<path class="st0" d="M172.9,74.8c-2.4,2.1-10.9,9-10.9,9c-2.2-0.3-4.5,2.3-5.1,3c-2.3,2.7,1.7,7.4,5,8c2,0.4,6.3-0.9,4.6-5.1"/>
		<path class="st0" d="M137.3,73.4c-5.3-0.5-8.1-0.5-14.9,0.1c0,0-0.1,0-0.1,0c-1-0.2-2.9-2.3-4.2-2.8c-3.7-1.4-16.5,3.1-10.5,6.6
			c2.4,1.4,9.4,2.6,11.8,1.3l0.1,0c5.5,2.5,12.6,4.9,18.4,5.3"/>
		<polyline class="st0" points="162.9,150.5 172.2,148.9 168.7,94.3 168.4,88.7 		"/>
		<path class="st5" d="M151.7,106.3l6.2,38.2c-2.8,0.6-3.9,2.2-3.9,3.7v2.5l8.8-0.3"/>
		<line class="st0" x1="145" y1="54.1" x2="149.3" y2="58.3"/>
		<line class="st0" x1="156.2" y1="51.7" x2="149.3" y2="58.3"/>
		<line class="st0" x1="160.6" y1="52.7" x2="154.5" y2="61.9"/>
		<line class="st0" x1="154.5" y1="61.9" x2="149.3" y2="58.3"/>
		<line class="st0" x1="142.8" y1="62.4" x2="149.3" y2="58.3"/>
		<line class="st0" x1="142.9" y1="55.7" x2="142.8" y2="62.4"/>
		<line class="st0" x1="149.3" y1="58.3" x2="150.3" y2="90.3"/>
	</g>
	<path class="st0" d="M158.9,93.2c-11.4,0-19.6-0.8-19.6-1.9"/>
	<g>
		<polygon class="st2" points="145.2,70 115.3,70 101.7,76.3 131.6,76.3 		"/>
		<rect x="101.7" y="56.7" class="st2" width="29.9" height="19.6"/>
	</g>
	<g>
		<rect x="187" y="135.4" class="st1" width="41.5" height="31.8"/>
		<line class="st0" x1="181.8" y1="167.3" x2="233.4" y2="167.3"/>
		<polygon class="st2" points="230.2,135.8 184.9,135.8 186.8,126.7 228.3,126.7 		"/>
		<line class="st0" x1="191.9" y1="150.6" x2="201" y2="150.6"/>
		<line class="st0" x1="233.4" y1="167.3" x2="181.8" y2="167.3"/>
		
			<rect x="201.5" y="146.9" transform="matrix(-1 -7.432245e-11 7.432245e-11 -1 415.1825 314.1828)" class="st0" width="12.2" height="20.5"/>
		<line class="st0" x1="207.6" y1="167.3" x2="207.6" y2="147"/>
		<line class="st0" x1="223.3" y1="150.6" x2="214.1" y2="150.6"/>
		<line class="st0" x1="186.6" y1="138" x2="186.6" y2="167.4"/>
		<line class="st0" x1="228.6" y1="138.2" x2="228.6" y2="167.2"/>
		<rect x="185.7" y="135.8" class="st2" width="43.8" height="6.2"/>
		<line class="st0" x1="191.9" y1="150.6" x2="191.9" y2="167"/>
		<line class="st0" x1="223.3" y1="150.6" x2="223.3" y2="167"/>
	</g>
</g>
</svg>
