<?xml version="1.0" encoding="utf-8"?>
<!-- Generator: Adobe Illustrator 24.2.0, SVG Export Plug-In . SVG Version: 6.00 Build 0)  -->
<svg version="1.1" id="Layer_1" xmlns="http://www.w3.org/2000/svg" xmlns:xlink="http://www.w3.org/1999/xlink" x="0px" y="0px"
	 viewBox="0 0 200 200" style="enable-background:new 0 0 200 200;" xml:space="preserve">
<style type="text/css">
	.st0{fill:#EAE8E5;}
	.st1{fill:none;stroke:#333F48;stroke-width:2;stroke-linecap:round;stroke-linejoin:round;stroke-miterlimit:10;}
	.st2{fill:#FFFFFF;stroke:#333F48;stroke-width:2;stroke-linecap:round;stroke-linejoin:round;stroke-miterlimit:10;}
	.st3{fill:#FFFFFF;}
	.st4{fill:#EAE8E5;stroke:#333F48;stroke-width:2;stroke-linecap:round;stroke-linejoin:round;stroke-miterlimit:10;}
	.st5{fill:#333F48;}
</style>
<g>
	<rect x="20.9" y="48.7" class="st0" width="153.9" height="70.9"/>
	<line class="st1" x1="117.4" y1="71.5" x2="174.8" y2="71.5"/>
	<line class="st1" x1="20.9" y1="71.5" x2="80.9" y2="71.5"/>
	<line class="st1" x1="20.9" y1="48.7" x2="174.8" y2="48.7"/>
	<line class="st1" x1="118.8" y1="94.4" x2="174.8" y2="94.4"/>
	<line class="st1" x1="20.9" y1="94.4" x2="85.8" y2="94.4"/>
	<g>
		<line class="st1" x1="51.3" y1="48.7" x2="51.3" y2="66.3"/>
		<line class="st1" x1="146.4" y1="48.7" x2="146.4" y2="66.3"/>
		<line class="st1" x1="51.3" y1="71.5" x2="51.3" y2="89.1"/>
		<line class="st1" x1="146.4" y1="71.5" x2="146.4" y2="89.1"/>
		<line class="st1" x1="51.3" y1="94.4" x2="51.3" y2="112"/>
		<line class="st1" x1="146.4" y1="94.4" x2="146.4" y2="112"/>
	</g>
	<g>
		<path class="st2" d="M59.4,53.8v11.4c0,0.9,4,1.7,9,1.7s9-0.8,9-1.7V53.8"/>
		<ellipse class="st2" cx="68.3" cy="54.4" rx="9" ry="2.3"/>
	</g>
	<rect x="37.1" y="80.5" class="st2" width="6.9" height="9.1"/>
	<rect x="58.3" y="77.5" class="st2" width="16.8" height="12.2"/>
	<rect x="162.7" y="100.5" class="st2" width="11.1" height="12.2"/>
	<g>
		<path class="st3" d="M100.7,91.9c7.7-0.5,12.1-11.8,11.4-21.1c0-0.2-0.1-0.4-0.1-0.7c4.8-2.8,3.6-7.2-2.8-8.1l0,0
			c-2.8-4.2-7.2-6.6-12.1-6.2c-7.7,0.5-13.5,7.7-12.9,17C85,82.1,93,92.4,100.7,91.9z"/>
		<path class="st3" d="M182.1,144.1c-0.3-1.1-0.7-2.1-1.3-3c-1.7-2.3-4.4-3.3-6.9-4.2c-3.3-1.1-7.4-1-12.4,1.6l-0.1,0
			c-9.1-3.9-12.9-5.1-20.5-6.8l-0.6,0.5c-14-35-31.7-41.2-52.6-33.2c-15.7,6-23.5,23.8-26.1,41.1c0,0,19.5-0.5,19.9-1.4l6.5-0.4
			l-2.6,5.9l41.2-3.4c-0.1-1.3,1,1.9,1,1.9c7.5,4.8,24,5.6,35.6,4.2l0.1,0c1.2,1.2,3.1,1.4,4.7,1.5c1.8,0.1,3.6-0.3,5.5-0.1
			c1.4,0.1,2.9,0.6,4.2,1.2c0.7,0.3,1.3,0.7,1.9,1.1c0.3,0.2,0.6,0.4,0.9,0.6c0.2,0.2,0.5,0.4,0.8,0.4c0.2,0,0.3-0.1,0.5-0.2
			c0.2-0.1,0.5-0.3,0.6-0.5c0.1-0.2,0.1-0.4,0.1-0.6C182.6,148.4,182.6,146.2,182.1,144.1z"/>
	</g>
	<path class="st1" d="M85,100c0,1-0.5-2.1,1,9"/>
	<path class="st1" d="M76.2,140.1c2.5-3.6,7-8.8,8.7-20.5"/>
	<path class="st1" d="M140,131c-15-34-30.9-40.9-52.3-32.8c-15.7,6-23.5,23.8-26.1,41.1"/>
	<path class="st1" d="M167,148c-1.8-0.2-3.3-0.2-5.1-0.3c-1.6-0.1-3.5-0.3-4.7-1.5l-0.1,0c-11.6,1.4-29.7-3-30.1-4.2
		c-3-8-3.2-9.1-5-15"/>
	<path class="st0" d="M92.2,73.2c0,0,6.6-0.8,7.3-0.9c0.7,0,13.5-4.5,13.5-4.5l4.7-3.7l-3.3-1.9l-5.2-0.2l-4.6-4.3
		c0,0-4.1-1-4.3-1.4c-0.2-0.4-5.9,0.5-6.3,0.8c-0.5,0.3-3.2,1.5-3.8,2.3c-0.7,0.8-2.1,1.4-2.3,2.7c-0.3,1.3-1.1,1.6-1.5,3
		c-0.4,1.4-1.1,0.6-1.4,2c-0.4,1.4,0.3,3.2,0.4,4.6c0.2,1.4-0.1,2.5-0.2,2.1c-0.5-1.6,3.5-1.4,3.5-1.1C88.7,73,92.2,73.2,92.2,73.2z
		"/>
	<path class="st1" d="M85.2,72.8c0.7,9.3,8.7,19.6,16.3,19.1c7.7-0.5,12.1-11.8,11.4-21.1s-7.3-15.6-14.9-15
		C90.3,56.3,84.5,63.5,85.2,72.8z"/>
	<path class="st4" d="M85.2,72.8c27.8,1,42.4-12.7,23.1-10.8"/>
	<path class="st4" d="M71.8,132.1c0-6.5-3.7-11.8-8.3-11.8h-5.9v24.8h18.7v-13H71.8z"/>
	<polygon class="st2" points="22.2,120.2 22.2,115.6 36.4,115.6 36.4,105.2 17.5,105.2 17.5,111.9 17.5,113.6 17.5,120.2 
		17.5,122.2 17.5,145.1 57.6,145.1 57.6,120.2 	"/>
	<line class="st1" x1="76.2" y1="140.1" x2="126" y2="140"/>
	<rect x="164.3" y="79" class="st2" width="8" height="10.4"/>
	<g>
		<path class="st2" d="M43,63.6c1.8,0,3.3-1.6,3.3-3.5c0-1.9-1.5-3.5-3.3-3.5"/>
		<path class="st2" d="M20.6,63.6c1.8,0.2,3.6,0.9,4.3,1.9h15.4c1.3,0,2.3-2.4,2.3-5.3s-1-5.3-2.3-5.3c0,0-15.4,0-15.4,0
			c-0.7,0.9-2.5,1.6-4.3,1.9"/>
		<ellipse class="st2" cx="20.6" cy="60.1" rx="1.8" ry="3.5"/>
		<path class="st1" d="M24.9,54.8c1.3,0,2.3,2.4,2.3,5.3c0,3-1,5.3-2.3,5.3"/>
	</g>
	<g>
		<path class="st2" d="M151.4,77.9v10.8c0,0.9,1.2,1.6,2.8,1.6s2.8-0.7,2.8-1.6V77.9"/>
		<ellipse class="st2" cx="154.2" cy="78.4" rx="2.8" ry="2.1"/>
	</g>
	<g>
		<path class="st2" d="M55.5,100.3v11.1c0,0.9,2.2,1.7,4.9,1.7c2.7,0,4.9-0.7,4.9-1.7v-11.1"/>
		<ellipse class="st2" cx="60.5" cy="100.8" rx="4.9" ry="2.2"/>
	</g>
	<g>
		<path class="st2" d="M138.7,86.1c1.7,0,3.1-1.5,3.1-3.4c0-1.9-1.4-3.4-3.1-3.4"/>
		<path class="st2" d="M118.1,86.1c1.7,0.2,3.3,0.9,4,1.8h14.1c1.2,0,2.1-2.3,2.1-5.2s-0.9-5.2-2.1-5.2c0,0-14.1,0-14.1,0
			c-0.7,0.9-2.3,1.6-4,1.8"/>
		<ellipse class="st2" cx="118.1" cy="82.7" rx="1.7" ry="3.4"/>
		<path class="st1" d="M122.1,77.5c1.2,0,2.1,2.3,2.1,5.2c0,2.9-0.9,5.2-2.1,5.2"/>
	</g>
	<g>
		<path class="st2" d="M154.4,55.3v9.9c0,0.8,2.7,1.5,6,1.5s6-0.7,6-1.5v-9.9"/>
		<ellipse class="st2" cx="160.3" cy="55.8" rx="6" ry="2"/>
	</g>
	<line class="st1" x1="133.4" y1="116.9" x2="174.8" y2="116.9"/>
	<line class="st2" x1="21.7" y1="110.6" x2="31.6" y2="110.6"/>
	<path class="st1" d="M95,96c-1,6,11.5,10.6,12.6-0.5"/>
</g>
<line class="st1" x1="91" y1="98" x2="92" y2="107"/>
<line class="st1" x1="102" y1="103" x2="92" y2="107"/>
<line class="st1" x1="111" y1="97" x2="111" y2="109"/>
<line class="st1" x1="102" y1="103" x2="111" y2="109"/>
<line class="st1" x1="104" y1="105" x2="104" y2="140"/>
<circle class="st5" cx="99" cy="113" r="1"/>
<circle class="st5" cx="99" cy="121" r="1"/>
<circle class="st5" cx="99" cy="129" r="1"/>
<path class="st2" d="M155.4,137.7c2-1,7.7,0.8,8.7,1.1c0.6,0.2,1.2,0.3,1.7,0.7c0.5,0.4,0.8,1.1,0.5,1.6c-0.3,0.5-1,0.6-1.6,0.6
	c-0.5,0-2.7,0.3-4.7-0.7"/>
<path class="st2" d="M138,131c7.6,1.7,8.3,2.8,17.4,6.7l0.1,0c5-2.6,9.2-2.8,12.5-1.7c2,1,2,1.9,2.3,2.4c0.3,0.6,0.6,1.3,0.8,2
	c0.2,1.1,0.1,2.2-0.2,3.3c-0.3,1.1-0.8,2.1-1.3,3c-0.3,0.5-0.6,1-1.1,1.2c-0.3,0.1-0.5,0.1-0.8,0.1c-0.6,0-1.2,0-1.8-0.2
	c-0.6-0.2-1.1-0.6-1.4-1.1c-0.2-0.4-0.2-0.9-0.2-1.3c0-1.6-1.1-2.2-1.2-3.8c0-0.5-0.1-1,0.2-1.4c0.2-0.2,0.4-0.3,0.7-0.5
	c0.7-0.4,4.7-1,5.1-1.7"/>
<path class="st1" d="M155,138c-2,3-2,9,2,8"/>
<path class="st1" d="M151,136c-4,2-2,9-1,10"/>
</svg>
