<?xml version="1.0" encoding="utf-8"?>
<!-- Generator: Adobe Illustrator 24.2.0, SVG Export Plug-In . SVG Version: 6.00 Build 0)  -->
<svg version="1.1" id="Layer_1" xmlns="http://www.w3.org/2000/svg" xmlns:xlink="http://www.w3.org/1999/xlink" x="0px" y="0px"
	 viewBox="0 0 59.1 45.6" style="enable-background:new 0 0 59.1 45.6;" xml:space="preserve">
<style type="text/css">
	.st0{fill:none;stroke:#000000;stroke-width:2;stroke-linecap:round;stroke-linejoin:round;stroke-miterlimit:10;}
	.st1{fill:none;stroke:#000000;stroke-linejoin:round;stroke-miterlimit:10;}
</style>
<g>
	<path class="st0" d="M51,36.9H6.2c-2.9,0-5.2-2.3-5.2-5.2V6.2C1,3.3,3.3,1,6.2,1h44.7c2.9,0,5.2,2.3,5.2,5.2v25.5
		C56.1,34.6,53.8,36.9,51,36.9z"/>
	<line class="st1" x1="0.8" y1="32.6" x2="56.3" y2="32.6"/>
	<line class="st1" x1="0.8" y1="5" x2="56.3" y2="5"/>
	<path class="st1" d="M19.2,42.3H38c0.9,0,1.7,0.7,1.7,1.7v1.1H17.5V44C17.5,43,18.3,42.3,19.2,42.3z"/>
	<g>
		<path class="st1" d="M23.3,37c0,2.8-0.2,4.4-1.3,5.3"/>
		<path class="st1" d="M33.9,37c0,2.8,0.2,4.4,1.3,5.3"/>
	</g>
	<g>
		<g>
			<path class="st1" d="M52.5,41.4h3.1c1.7,0,3,1.3,3,3v0.7h-9.1v-0.7C49.5,42.8,50.8,41.4,52.5,41.4z"/>
		</g>
		<path class="st1" d="M49.5,45.1c-4.2,0-7.5-3.4-7.5-7.5"/>
	</g>
</g>
<g>
	<path class="st0" d="M27.1,25.6V13.2h4.1c1.8,0,3.3,1.5,3.3,3.3s-1.5,3.3-3.3,3.3H25"/>
	<line class="st0" x1="25" y1="22.8" x2="32" y2="22.8"/>
</g>
</svg>
