<?xml version="1.0" encoding="utf-8"?>
<!-- Generator: Adobe Illustrator 24.2.0, SVG Export Plug-In . SVG Version: 6.00 Build 0)  -->
<svg version="1.1" id="Layer_1" xmlns="http://www.w3.org/2000/svg" xmlns:xlink="http://www.w3.org/1999/xlink" x="0px" y="0px"
	 viewBox="0 0 42 56" style="enable-background:new 0 0 42 56;" xml:space="preserve">
<style type="text/css">
	.st0{fill:none;stroke:#000000;stroke-width:2;stroke-linecap:round;stroke-linejoin:round;stroke-miterlimit:10;}
	.st1{fill:none;stroke:#000000;stroke-linecap:round;stroke-linejoin:round;stroke-miterlimit:10;}
</style>
<g>
	<g>
		<path class="st0" d="M27.1,1c0.3,0,0.7,0,0.9,0.1c3,0.3,5.8,2.2,7.3,4.9c1.9,3.6,0.7,6.9-0.8,10.4c-1,2.3-2,4.6-3,6.8
			c-1.4,3.3-2.9,6.6-4.4,9.9c-1.4-3.3-2.9-6.6-4.4-9.9c-1-2.3-2-4.6-3-6.8C18.2,12.9,17,9.6,18.9,6c1.4-2.7,4.2-4.7,7.3-4.9
			C26.4,1,26.7,1,27.1,1z"/>
		<circle class="st1" cx="27.1" cy="10.3" r="5.1"/>
	</g>
	<line class="st0" x1="4.6" y1="27" x2="20.7" y2="55"/>
	<line class="st0" x1="41" y1="31.5" x2="20.4" y2="43.4"/>
	<polyline class="st0" points="16.5,25.9 11.9,28.6 9.3,24.1 	"/>
	<polyline class="st0" points="21.3,29.5 14.7,33.4 25.4,52.2 	"/>
	<line class="st0" x1="11.5" y1="38.9" x2="1" y2="44.9"/>
	<line class="st0" x1="32" y1="36.7" x2="34.2" y2="40.5"/>
</g>
</svg>
