<?xml version="1.0" encoding="utf-8"?>
<!-- Generator: Adobe Illustrator 24.2.0, SVG Export Plug-In . SVG Version: 6.00 Build 0)  -->
<svg version="1.1" id="Layer_1" xmlns="http://www.w3.org/2000/svg" xmlns:xlink="http://www.w3.org/1999/xlink" x="0px" y="0px"
	 viewBox="0 0 108.7 147" style="enable-background:new 0 0 108.7 147;" xml:space="preserve">
<style type="text/css">
	.st0{fill:#EAE8E5;}
	.st1{fill:none;stroke:#333F48;stroke-width:2;stroke-linecap:round;stroke-linejoin:round;stroke-miterlimit:10;}
	.st2{fill:#FFFFFF;stroke:#333F48;stroke-width:2;stroke-linecap:round;stroke-linejoin:round;stroke-miterlimit:10;}
	.st3{fill:#EAE8E5;stroke:#333F48;stroke-width:2;stroke-linecap:round;stroke-linejoin:round;stroke-miterlimit:10;}
	.st4{fill:#FFFFFF;}
	.st5{fill:#EAE8E5;stroke:#333F48;stroke-width:2.0001;stroke-linecap:round;stroke-linejoin:round;stroke-miterlimit:10.0005;}
</style>
<g>
	<polygon class="st0" points="23.5,69.2 30.9,69.6 30.4,88.3 30.1,115 30.1,127.8 29.8,134.6 32.5,135.3 35.4,137.1 36.3,140 
		36.2,141.9 22.9,142.3 20.4,139.6 16.8,138 15.6,137.7 	"/>
	<g>
		<path class="st1" d="M6.5,19.8c2.1,6.9,9.9,13.4,15.6,11.7s7.2-11,5.1-17.9S19.1,3,13.4,4.7S4.4,12.8,6.5,19.8z"/>
		<path class="st1" d="M23,34.7c2.8,1.1,7.2,5.1,7.1,11"/>
		<path class="st1" d="M15.9,137.7l0.9,4.4l3.7,0.4l7.3-0.4l8.5-0.3l0.1-2.8c0.1-2.4-4.4-4.3-6.5-4.4h0.3L30.3,93
			c0,0,1.9-38.4-0.1-47.3L14,48.8L4.4,71.1l-2.6,2.1"/>
		<path class="st1" d="M63.9,45.3L63.9,45.3C59.4,51.9,50.6,59,44.8,60.7c-5.5-0.5-11.8-6.3-13.9-9.6"/>
		<path class="st1" d="M44.5,49.2c4.2-3.1,8.9-4.3,15.4-7.2"/>
		<path class="st1" d="M12.8,145.4l-10.4-3.1c0,0-1.3-47.8-0.9-63.7C1.7,71-3,43.5,13.2,37.1c19.6-7.8,21.2,2.9,32,13"/>
		<path class="st2" d="M19.9,92.5l-4.3,45.2c3.1,0.7,7.3,2.8,7.3,4.5l-2.2,3.3l-7.7-0.2"/>
		<path class="st1" d="M69.6,37.2c2-0.7,7.1-4.2,6.7-4.9c-0.8-1.3-8.3,2.2-10.7,2.8l0,0c-2.2,0.8-3.6,3.5-5.8,6.9"/>
		<path class="st1" d="M71.4,36.3c-0.4,1.9-0.9,2.7-1.2,3.1"/>
		<path class="st1" d="M73,39.8c-0.2,0.7-6.6,5.1-9.2,5.6"/>
		<path class="st1" d="M67.3,40.8c0-0.3,4.9-2.7,5.8-0.9"/>
		<path class="st3" d="M6.2,23c-0.3-2.3,3.6-4.4,5.2-5.2l0,0c-0.5-3.1,16.3-7.7,17.4-4.9l1.2,4.6c-1.3,1.8-2.2,2.6-3.3,2.4
			c-0.5-0.1-1-0.6-1.4-1.2c-1.2-1.7-2.9-1.7-3,1.4c0,0.6-0.1,1.1-0.6,1.5c-1.4,1-5.9,2-8.7,1.1l0,0c-1.5-0.4-2.9-1.1-5.3-0.7"/>
		<path class="st4" d="M6.7,56.4c3,7.5,12.7,12.4,12.7,12.4c12.2,1.7,17.2,0.7,28.8-0.4l0,0c1.9,0,12,1.4,16-1.5l-0.1-0.1
			c-1.4-1.3-9.9-3.6-14.5-3.1l0,0c-5.2-1.6-17.4-3.3-23.7-3.1v-0.1C21,52.3,15.3,45.9,9.3,44.1"/>
		<g>
			<path class="st1" d="M16.1,47c3.7,3.6,7,8.8,8.8,12.8"/>
			<path class="st1" d="M5.9,55.5c4,5.2,13.6,13.3,13.6,13.3c11.9,1.7,16.6,0.7,28.1-0.5l0,0c1.9,0,11.9,1.4,15.9-1.5l-0.1-0.1
				c-1.4-1.3-9.8-3.6-14.3-3.1l0,0c-5.1-1.6-19.3-4-25.5-3.8"/>
		</g>
		<path class="st1" d="M9.1,39.8c3.2,0.5,5.7,1,8.9,8.5"/>
	</g>
	<line class="st1" x1="84.8" y1="28.9" x2="91.7" y2="65.1"/>
	<rect x="46" y="76.3" class="st2" width="43.8" height="69.7"/>
	<rect x="41.4" y="71.6" class="st3" width="51.5" height="5.2"/>
	
		<rect x="61.9" y="20.7" transform="matrix(0.2259 -0.9742 0.9742 0.2259 42.5701 99.6697)" class="st5" width="44.2" height="4.6"/>
	<circle class="st4" cx="67.9" cy="79.5" r="27.9"/>
	<g>
		<g>
			<path class="st0" d="M90.5,95.9C99.6,83.5,96.8,66,84.4,57c-12.4-9.1-29.9-6.3-38.9,6.1S39.2,93,51.6,102
				C64,111.1,81.4,108.3,90.5,95.9z M51.5,67.5c6.6-9.1,19.4-11.1,28.4-4.5C89,69.6,91,82.4,84.4,91.4c-6.6,9.1-19.4,11.1-28.4,4.5
				C46.8,89.3,44.8,76.6,51.5,67.5z"/>
		</g>
	</g>
	<g>
		<circle class="st1" cx="67.9" cy="79.5" r="27.9"/>
		<g>
			<ellipse class="st1" cx="67.9" cy="79.5" rx="5.3" ry="5.3"/>
			<path class="st1" d="M84.4,91.5c6.6-9.1,4.6-21.8-4.5-28.4s-21.8-4.6-28.4,4.5S46.9,89.4,56,96C65,102.6,77.8,100.6,84.4,91.5z
				 M59.3,94.5l5.2-7.1c1.7,0.7,3.5,0.9,5.2,0.5l3.6,8.1C68.7,97.4,63.6,97,59.3,94.5z M81.9,89.7c-1.5,2-3.3,3.6-5.3,4.8L73,86.4
				c0.7-0.5,1.3-1.1,1.9-1.9c0.5-0.7,0.9-1.5,1.2-2.3l8.8,0.9C84.4,85.4,83.4,87.7,81.9,89.7z M64.8,83.8c-2.4-1.7-2.9-5.1-1.2-7.5
				c1.7-2.4,5.1-2.9,7.5-1.2c2.4,1.7,2.9,5.1,1.2,7.5C70.5,85,67.1,85.5,64.8,83.8z M85.2,79.5l-8.8-0.9c-0.2-1.7-0.9-3.4-2.1-4.8
				l5.2-7.1C83.3,70,85.2,74.7,85.2,79.5z M76.6,64.5l-5.2,7.1c-1.7-0.7-3.5-0.9-5.2-0.5L62.6,63C67.1,61.5,72.2,62,76.6,64.5z
				 M53.9,69.3c1.5-2,3.3-3.6,5.3-4.8l3.6,8.1c-0.7,0.5-1.3,1.1-1.9,1.9c-0.5,0.7-0.9,1.5-1.2,2.3l-8.8-0.9
				C51.5,73.5,52.4,71.3,53.9,69.3z M50.6,79.5l8.8,0.9c0.2,1.7,0.9,3.4,2.1,4.8l-5.2,7.1C52.6,89,50.6,84.3,50.6,79.5z"/>
		</g>
		<g>
			<line class="st1" x1="45.4" y1="63.1" x2="46" y2="66.9"/>
			<line class="st1" x1="89.8" y1="92.1" x2="90.4" y2="95.9"/>
			<line class="st1" x1="56.6" y1="54.1" x2="55.2" y2="57.6"/>
			<line class="st1" x1="80.6" y1="101.3" x2="79.2" y2="105"/>
			<line class="st1" x1="70.8" y1="51.8" x2="67.8" y2="54.2"/>
			<line class="st1" x1="68" y1="104.8" x2="65" y2="107.2"/>
			<line class="st1" x1="84.3" y1="57" x2="80.5" y2="57.6"/>
			<line class="st1" x1="55.3" y1="101.4" x2="51.5" y2="102"/>
			<line class="st1" x1="93.4" y1="68.2" x2="89.8" y2="66.8"/>
			<line class="st1" x1="46.1" y1="92.2" x2="42.4" y2="90.8"/>
			<line class="st1" x1="95.6" y1="82.4" x2="93.2" y2="79.4"/>
			<line class="st1" x1="42.6" y1="79.6" x2="40.2" y2="76.6"/>
		</g>
	</g>
	<path class="st1" d="M84.3,106.8c0.7-0.4,1.4-0.9,2.1-1.4"/>
	<path class="st1" d="M65.3,111.4c0.9,0.1,1.7,0.1,2.6,0.1c3.8,0,7.5-0.7,11.1-2.1c0.5-0.2,0.9-0.4,1.4-0.6c0.3-0.1,0.6-0.3,0.9-0.4
		"/>
	<g>
		<path class="st3" d="M44.1,25.4c16-10.1,37.4-8.2,51.4,5.8c14,13.9,15.9,35.3,5.9,51.4 M95.2,77c7.6-12.8,5.9-29.5-5.1-40.5
			s-27.8-12.6-40.5-5"/>
		<line class="st1" x1="42" y1="24.2" x2="102.7" y2="84.7"/>
	</g>
	<rect x="45.2" y="138.4" class="st3" width="10.2" height="7.6"/>
	<rect x="81" y="138.4" class="st3" width="10.2" height="7.6"/>
	<circle class="st3" cx="67.9" cy="79.5" r="2.6"/>
</g>
</svg>
