<?xml version="1.0" encoding="utf-8"?>
<!-- Generator: Adobe Illustrator 24.2.0, SVG Export Plug-In . SVG Version: 6.00 Build 0)  -->
<svg version="1.1" id="Layer_1" xmlns="http://www.w3.org/2000/svg" xmlns:xlink="http://www.w3.org/1999/xlink" x="0px" y="0px"
	 viewBox="0 0 220 200" style="enable-background:new 0 0 220 200;" xml:space="preserve">
<style type="text/css">
	.st0{fill:#EAE8E5;}
	.st1{fill:none;stroke:#333F48;stroke-width:2;stroke-linecap:round;stroke-linejoin:round;stroke-miterlimit:10;}
	.st2{fill:#EAE8E5;stroke:#333F48;stroke-width:2;stroke-linecap:round;stroke-linejoin:round;stroke-miterlimit:10;}
	.st3{fill:#FFFFFF;stroke:#333F48;stroke-width:2;stroke-linecap:round;stroke-linejoin:round;stroke-miterlimit:10;}
	.st4{clip-path:url(#SVGID_2_);fill:none;stroke:#EAE8E5;stroke-width:4;stroke-miterlimit:10;}
	.st5{clip-path:url(#SVGID_4_);fill:none;stroke:#EAE8E5;stroke-width:4;stroke-miterlimit:10;}
	.st6{fill:#FFFFFF;stroke:#333F48;stroke-width:2;stroke-miterlimit:10;}
	.st7{fill:none;stroke:#333F48;stroke-width:2;stroke-linecap:round;stroke-miterlimit:10;}
	.st8{fill:#FFFFFF;stroke:#333F48;stroke-width:2;stroke-linecap:round;stroke-miterlimit:10;}
	.st9{fill:#FFFFFF;}
	.st10{clip-path:url(#SVGID_6_);fill:#F5F4F2;}
</style>
<polygon class="st0" points="205.9,106.5 204.3,107.2 202.1,107.5 202.9,145.5 208.5,145.2 209.1,142.8 206.6,107 "/>
<path class="st0" d="M194.2,115.6l-2.6,30.4c0,0,3.9,0.3,4.1-0.1c0.2-0.4,0.7-1.6,0.7-1.6s0.5-3.4,0.5-3.9c0-0.5,0.4-10.8,0.4-10.8
	L194.2,115.6z"/>
<polygon class="st0" points="189.8,60.9 186.2,59.9 184.5,61 185.2,63 189.2,65.6 193.8,66.8 197.6,68 199.8,68.2 199.6,63 
	196.8,60.1 194.5,58.9 191.1,59.7 "/>
<path class="st1" d="M199.2,69.5c-1.9,4.1-7.3,7.3-10.6,5.8c-3.3-1.6-3.4-7.4-1.5-11.4c1.9-4.1,5.9-5.7,9.3-4.2
	C199.6,61.2,201,65.5,199.2,69.5z"/>
<path class="st1" d="M199.7,78c-1.1,0.7-2.5,4.5-2.7,9.1"/>
<path class="st1" d="M191.1,78.7c-2.7,2.3-3.3,4.3-3.3,8.1"/>
<path class="st1" d="M208.1,94.6c-1.6-1.3-3.4-4.7-3.9-6.5"/>
<path class="st1" d="M196.6,125.6l0.3,20.1l-2.8,0.4h-5.4h-4v-1.8c0-1.5,1.2-2.7,2.7-2.7l1.7-0.1l-2.3-26.2c0,0-2.2-22.5-0.5-28.1
	l11.9,0.2l6.2,10.1"/>
<path class="st1" d="M182.1,89.3c4-9.3,8.9-13.7,19.7-11.2c7.8,1.9,12.7,9.9,15,17.9"/>
<path class="st1" d="M203.7,104.9l2.1-1.5c3.4-1.2,8-3.5,10.9-7.2"/>
<path class="st1" d="M209.7,93.7c-1.7,1.5-7.6,6.3-7.6,6.3c-1.5-0.2-3.1,1.6-3.5,2.1c-1.6,1.9,1.2,5.1,3.4,5.5
	c1.4,0.2,4.4-0.6,3.2-3.6"/>
<path class="st1" d="M169.4,79.7c1.3,0.2,2.5,0.3,4.3,1.9"/>
<path class="st1" d="M182.6,89.8c-2.8-2.5-4.3-3.7-8.3-6.1l0,0c-0.4-2.7-1.4-4.3-2.8-5.3c-1-0.8-2.2-1.5-3.5-1.6
	c-0.5,0-1.1,0.1-1.5,0.3c-1,0.4-1.8,1-2.6,1.6c-0.1,0.1-0.2,0.1-0.2,0.2c-0.1,0.1-0.1,0.2,0,0.4c0,0.1,0,0.2,0.1,0.2
	c0.1,0.1,0.3,0.2,0.4,0.2c0.2,0,0.3,0.1,0.5,0.2c0.3,0.1,0.6,0.3,1,0.5c0.6,0.3,1.2,0.8,1.6,1.3c0.6,0.7,0.9,1.5,1.5,2.2
	c0.5,0.6,1.1,1.3,1.9,1.4l0,0c2.7,4.9,7.1,10.9,11,12.5c1.8-0.2,3-0.9,4.1-2.9"/>
<path class="st2" d="M199.4,67.9c-18.6-2.6-18.2-10.3-8.7-6.9"/>
<polyline class="st1" points="202.8,146.3 209.2,145.2 206.8,107.2 206.5,104 "/>
<path class="st3" d="M195,115.6l4.3,26.6c-1.9,0.4-2.7,1.5-2.7,2.6v1.8l6.1-0.2"/>
<g>
	<defs>
		<polygon id="SVGID_1_" points="56.4,140.7 56.4,70.7 46.3,70.7 46.3,140.7 34.1,140.7 34.1,145.1 46.3,145.1 56.4,145.1 
			68.7,145.1 68.7,140.7 		"/>
	</defs>
	<clipPath id="SVGID_2_">
		<use xlink:href="#SVGID_1_"  style="overflow:visible;"/>
	</clipPath>
	<line class="st4" x1="53.6" y1="58.1" x2="53.6" y2="176.3"/>
	<line class="st4" x1="28.5" y1="143.4" x2="85.2" y2="143.4"/>
</g>
<g>
	<defs>
		<polygon id="SVGID_3_" points="157.2,140.3 157.2,70.3 147.2,70.3 147.2,140.3 134.9,140.3 134.9,144.8 147.2,144.8 157.2,144.8 
			169.5,144.8 169.5,140.3 		"/>
	</defs>
	<clipPath id="SVGID_4_">
		<use xlink:href="#SVGID_3_"  style="overflow:visible;"/>
	</clipPath>
	<line class="st5" x1="154.5" y1="57.7" x2="154.5" y2="176"/>
	<line class="st5" x1="129.4" y1="143" x2="186" y2="143"/>
</g>
<g>
	<line class="st1" x1="178.9" y1="145.3" x2="24.8" y2="145.3"/>
	<g>
		<polygon class="st1" points="157.2,140.8 157.2,70.8 147.2,70.8 147.2,140.8 134.9,140.8 134.9,145.3 147.2,145.3 157.2,145.3 
			169.5,145.3 169.5,140.8 		"/>
		<polygon class="st1" points="56.5,70.8 46.5,70.8 46.5,140.8 34.2,140.8 34.2,145.3 46.5,145.3 56.5,145.3 68.8,145.3 68.8,140.8 
			56.5,140.8 		"/>
	</g>
</g>
<line class="st1" x1="57.2" y1="116.8" x2="85.1" y2="116.8"/>
<line class="st1" x1="118.6" y1="116.8" x2="146.5" y2="116.8"/>
<circle class="st6" cx="169.6" cy="91.5" r="2.3"/>
<rect x="157.4" y="100.6" class="st1" width="6.6" height="16.3"/>
<polyline class="st1" points="164.3,113.7 169.7,109.8 169.7,109.4 169.7,93.9 "/>
<g>
	<path class="st1" d="M11.3,117c-1,4,2.4,4,3,4c4-2,2-6,0-8c-3-3-3-3-6-4"/>
	<path class="st6" d="M16.3,102c-0.3,8-1.5,15-2.3,21l1.3,38l5.8,1l7.2-1v-2.3c-0.1-1.1-3.1-2.5-5-2.7l2-25"/>
	<path class="st0" d="M23.1,89c0.8-0.4,1.5-0.9,2-1.6c1-1.4,1.4-4.3,0.6-5.7l-4,0.4l-0.9,1.1c0,0-1,0.1-0.9,1.1s1.1,0.9,1.2,1.9
		s1.1,0.9,1.2,1.9S23.1,89,23.1,89z"/>
	<path class="st0" d="M29.1,130.6l2.6,30.4c0,0-3.9,0.3-4.1-0.1c-0.2-0.4-0.7-1.6-0.7-1.6s-0.5-3.4-0.5-3.9c0-0.5-0.4-10.8-0.4-10.8
		L29.1,130.6z"/>
	<polygon class="st0" points="27.3,74.5 30.7,73.1 32.5,74 32.1,76.1 28.3,79.1 23.9,80.8 21.8,83.1 18.9,84.4 17.7,77.5 20.2,74.4 
		22.4,72.9 25.8,73.4 	"/>
	<path class="st1" d="M18.8,83.9c2.3,3.8,7.9,6.6,11.1,4.7c3.2-1.9,2.7-7.7,0.4-11.5s-6.5-5.1-9.6-3.3
		C17.5,75.8,16.5,80.1,18.8,83.9z"/>
	<path class="st1" d="M30,93c-1,1.3-2,5.2-2,9"/>
	<path class="st2" d="M19.9,84.3c16.7-7.6,15.1-14.9,6-10.6"/>
	<line class="st7" x1="31" y1="102" x2="17" y2="102"/>
	<path class="st8" d="M23,128l4.4,33.8l2.8,0.4h5.4l5-1v-1.8c0-1.5-1.2-2.7-2.7-2.7l-1.7-0.1L34.3,130c0,0-1.3-21-3.3-28"/>
	<line class="st1" x1="19.3" y1="128" x2="25.3" y2="128"/>
	<path class="st2" d="M25.7,81.7c0.8,1.4,1.3,3.1,0.3,4.6c-0.5,0.7-1.2,1.2-2,1.6"/>
	<path class="st1" d="M3.3,109c1,4,5,6,10,8"/>
	<path class="st1" d="M15.3,102c-3,4-4,5-6,7"/>
	<path class="st1" d="M37,111c1-4,1.3-7,0.3-11c-2-7-5-9.5-15.7-6.9c-7.8,1.9-16,7.8-18.3,15.9"/>
	<path class="st1" d="M37,111c1,4,1.3,14,1.3,14c5,2,1,9-4,5"/>
	<line class="st1" x1="36.3" y1="128.1" x2="31" y2="132.8"/>
	<g>
		<line class="st8" x1="28.4" y1="131.8" x2="27" y2="133.1"/>
		<line class="st8" x1="30.3" y1="131.9" x2="28.4" y2="131.8"/>
		<line class="st8" x1="27" y1="133.1" x2="26.9" y2="134.1"/>
		<line class="st8" x1="31.6" y1="133.3" x2="30.3" y2="131.9"/>
		<g>
			<line class="st8" x1="31.5" y1="135.2" x2="30.1" y2="136.5"/>
			<line class="st8" x1="31.6" y1="133.3" x2="31.5" y2="135.2"/>
			<line class="st8" x1="30.1" y1="136.5" x2="29" y2="136.4"/>
		</g>
	</g>
	<line class="st1" x1="43.7" y1="121.5" x2="39.4" y2="125.2"/>
	<path class="st2" d="M20,85.3c-1.2,0.1-3,0.1-3.8,1c-0.9,0.9-0.6,2.4,0.1,3.5c0.7,1,1.7,1.9,2.3,3c0.1,0.3,0.2,0.6,0.1,0.8
		c-0.1,0.2-0.3,0.3-0.4,0.4c-0.9,0.5-3.2,0.5-4,1c-1.8,1.2-1,4.2,0.1,6.1c0.6,1,1.9,2.4,1.9,2.1c0.2-1.4,1.5-2.3,2.8-2.8
		c1.3-0.5,2.8-0.6,4-1.3c2.3-1.3,3.2-4.4,2.1-6.7c-0.8-1.6-2.2-2.7-3.4-4S20.1,86.3,20,85.3"/>
</g>
<g>
	<g>
		<path class="st3" d="M64.1,92.1h5.4c1.3,0,2.3,1,2.3,2.3v18.2c0,1.3-1,2.3-2.3,2.3h-5.4c-1.3,0-2.3-1-2.3-2.3V94.4
			C61.8,93.2,62.9,92.1,64.1,92.1z"/>
		<path class="st3" d="M139.6,92.1h-5.4c-1.3,0-2.3,1-2.3,2.3v18.2c0,1.3,1,2.3,2.3,2.3h5.4c1.3,0,2.3-1,2.3-2.3V94.4
			C141.8,93.2,140.8,92.1,139.6,92.1z"/>
	</g>
	<g>
		<path class="st9" d="M63.3,107.5c0,0,7.5,1.7,19.1,0c0,0,8.4,0,19.4,0s19.4,0,19.4,0c11.6,1.7,19.1,0,19.1,0v-0.8
			c0.8-5.8,1.7-14.1,0-24.1c-4.2-5-4.2-5-9.1-10c-2.5-5-4.2-8.3-10-14.1c-5-1.7-11.1-1.7-19.4-1.7s-14.4,0-19.4,1.7
			c-5.8,5.8-7.5,9.1-10,14.1c-5,5-5,5-9.1,10c-1.7,10-0.8,18.3,0,24.1"/>
		<g>
			<defs>
				<path id="SVGID_5_" d="M63.3,107.5c0,0,7.5,1.7,19.1,0c0,0,8.4,0,19.4,0s19.4,0,19.4,0c11.6,1.7,19.1,0,19.1,0v-0.8
					c0.8-5.8,1.7-14.1,0-24.1c-4.2-5-4.2-5-9.1-10c-2.5-5-4.2-8.3-10-14.1c-5-1.7-11.1-1.7-19.4-1.7s-14.4,0-19.4,1.7
					c-5.8,5.8-7.5,9.1-10,14.1c-5,5-5,5-9.1,10c-1.7,10-0.8,18.3,0,24.1"/>
			</defs>
			<clipPath id="SVGID_6_">
				<use xlink:href="#SVGID_5_"  style="overflow:visible;"/>
			</clipPath>
			<rect x="40" y="103.2" class="st10" width="164.5" height="5.1"/>
			<polygon class="st10" points="64.4,130.9 56.3,49.2 65.5,48.6 73.6,130.3 			"/>
		</g>
		<path class="st2" d="M134.4,72.6v-2.9c0-0.8,0.8-1.4,1.6-1.3l3.5,0.8c0.8,0.2,1.3,1.1,0.9,1.9l-0.7,1.5"/>
		<path class="st2" d="M69.3,72.6v-2.9c0-0.8-0.8-1.4-1.6-1.3l-3.5,0.8c-0.8,0.2-1.3,1.1-0.9,1.9l0.7,1.5"/>
		<line class="st1" x1="132.1" y1="73.5" x2="139.6" y2="72.6"/>
		<g>
			<path class="st1" d="M101.8,90.9c1.1,1.6,19,3.2,19.8-4.9"/>
			<g>
				<path class="st1" d="M101.8,84.4c6.5-2.4,17.4-1.6,19.8,0.8"/>
				<path class="st1" d="M121.7,85.3c6.5-0.8,13-3.2,16.2-1.6"/>
				<path class="st1" d="M120,90.1c7.3,0.8,8.1-0.8,9.7-2.4"/>
				<path class="st1" d="M130.6,90.1c7.3,0,7.3-4.9,7.3-6.5"/>
				<path class="st1" d="M129.8,87.7c0.8,0.8,0.8,1.6,0.8,2.4"/>
				<path class="st1" d="M101.8,84.4C95.3,82,84.5,82.8,82,85.3"/>
				<path class="st1" d="M101.8,90.9c-1.1,1.6-19,3.2-19.8-4.9"/>
				<path class="st1" d="M82,85.3c-6.5-0.8-13-3.2-16.2-1.6"/>
				<path class="st1" d="M83.7,90.1c-7.3,0.8-8.1-0.8-9.7-2.4"/>
				<path class="st1" d="M73.1,90.1c-7.3,0-7.3-4.9-7.3-6.5"/>
				<path class="st1" d="M73.9,87.7c-0.8,0.8-0.8,1.6-0.8,2.4"/>
			</g>
		</g>
		<path class="st2" d="M79.8,98.5c0,3.6,4.3,6.4,9.7,6.4h12.4h12.4c5.3,0,9.7-2.9,9.7-6.4h-22H79.8z"/>
		<path class="st2" d="M101.8,74.4c-13.4,0-24.5,0-24.5,0c1.6-4.8,4-8.9,6.5-12.1c0-0.4,7.8-0.8,18.1-0.8s18.1,0.4,18.1,0.8
			c2.4,3.2,4.8,7.3,6.5,12.1C126.4,74.4,115.2,74.4,101.8,74.4z"/>
		<line class="st1" x1="71.6" y1="73.5" x2="64.1" y2="72.6"/>
		<path class="st2" d="M138.1,101.7v-9h-0.2c-9.9,0.8-10.7,8.2-12.3,9.9c5.8,1.6,10.7,0.8,12.3-0.8"/>
		<path class="st2" d="M65.8,101.7v-9c9.9,0.8,10.7,8.2,12.3,9.9C72.4,104.2,67.5,103.4,65.8,101.7z"/>
		<path class="st1" d="M63.3,107.5c0,0,7.5,1.7,19.1,0c0,0,8.4,0,19.4,0s19.4,0,19.4,0c11.6,1.7,19.1,0,19.1,0v-0.8
			c0.8-5.8,1.7-14.1,0-24.1c-4.2-5-4.2-5-9.1-10c-2.5-5-4.2-8.3-10-14.1c-5-1.7-11.1-1.7-19.4-1.7s-14.4,0-19.4,1.7
			c-5.8,5.8-7.5,9.1-10,14.1c-5,5-5,5-9.1,10c-1.7,10-0.8,18.3,0,24.1"/>
	</g>
</g>
</svg>
