<?xml version="1.0" encoding="utf-8"?>
<!-- Generator: Adobe Illustrator 24.2.0, SVG Export Plug-In . SVG Version: 6.00 Build 0)  -->
<svg version="1.1" id="Layer_1" xmlns="http://www.w3.org/2000/svg" xmlns:xlink="http://www.w3.org/1999/xlink" x="0px" y="0px"
	 viewBox="0 0 200 200" style="enable-background:new 0 0 200 200;" xml:space="preserve">
<style type="text/css">
	.st0{fill:#EAE8E5;}
	.st1{fill:none;stroke:#333F48;stroke-width:2;stroke-linecap:round;stroke-linejoin:round;stroke-miterlimit:10;}
	.st2{fill:#FFFFFF;stroke:#333F48;stroke-width:2;stroke-linecap:round;stroke-linejoin:round;stroke-miterlimit:10;}
	.st3{fill:#FFFFFF;}
</style>
<g>
	<polygon class="st0" points="92.3,99.7 91.2,106.5 87.7,165.5 96.3,167.3 94.3,111.7 94.4,101.1 	"/>
	<polygon class="st0" points="109.1,120.6 114.7,166.6 105.8,166.7 105.8,164 104.7,162.1 104.5,149.3 	"/>
	<path class="st1" d="M104.2,146l1.1,20.9h4.9h8.2h6.1v-2.7c0-2.3-1.9-4.2-4.2-4.2l-2.6-0.1l2.6-40l0,0l1.4-25.7"/>
	<polyline class="st2" points="112,103.7 109.3,108.4 108.3,107.8 104.6,114.1 109.4,116.9 110.2,115.5 112,112.5 113.1,110.6 
		112.1,110 113.9,106.9 	"/>
	<rect x="137.8" y="128.1" class="st0" width="17.7" height="39.3"/>
	<path class="st0" d="M62.4,161.6v-38.4c0-3.6-2.1-6.6-5.2-8v-2.6h-2.4v-6c1.9-0.7,3.2-2.4,3.2-4.5c0-2.7-2.2-4.8-4.8-4.8
		c-2.7,0-4.8,2.2-4.8,4.8c0,2.1,1.3,3.9,3.2,4.5v6h-2.4v2.6c-3,1.4-5.2,4.4-5.2,8v38.4h-1.2v5.3H44h18.3h1.2v-5.3H62.4z"/>
	<path class="st1" d="M62.4,161.6v-38.4c0-3.6-2.1-6.6-5.2-8v-2.6h-2.4v-6c1.9-0.7,3.2-2.4,3.2-4.5c0-2.7-2.2-4.8-4.8-4.8
		c-2.7,0-4.8,2.2-4.8,4.8c0,2.1,1.4,3.9,3.2,4.5v6h-2.4v2.6c-3,1.4-5.2,4.4-5.2,8v38.4h-1.2v5.3H44h18.3h1.2v-5.3H62.4z"/>
	<path class="st2" d="M77.6,166.9H55.8c-0.9,0-1.5-0.7-1.5-1.5v-33.1c0-0.9,0.7-1.5,1.5-1.5h21.8c0.9,0,1.5,0.7,1.5,1.5v33.1
		C79.2,166.2,78.5,166.9,77.6,166.9z"/>
	<line class="st1" x1="58.1" y1="166.9" x2="75.4" y2="166.9"/>
	<line class="st1" x1="58.1" y1="166.9" x2="75.4" y2="166.9"/>
	<line class="st1" x1="58.1" y1="166.9" x2="75.4" y2="166.9"/>
	<line class="st1" x1="58.1" y1="166.9" x2="75.4" y2="166.9"/>
	<line class="st1" x1="58.1" y1="166.9" x2="75.4" y2="166.9"/>
	<path class="st1" d="M109.4,44.5c-0.7,6.8,3.8,15.2,9.4,15.8c5.6,0.6,10.2-7,10.9-13.8s-3.3-12.1-8.9-12.7
		C115.1,33.3,110,37.7,109.4,44.5z"/>
	<path class="st2" d="M97,167.2l9.4,0.3v-2.7c0-1.6-1.2-3.3-4.1-4l6.6-40.4"/>
	<line class="st2" x1="87.2" y1="165.4" x2="97" y2="167.2"/>
	<polyline class="st1" points="92.1,100.6 90.9,107.7 87.2,165.4 	"/>
	<path class="st1" d="M104.3,60.4c2.4,1.4,8.4,9.6,6.3,17.9"/>
	<path class="st1" d="M121.8,69c0.9,2.9,1.7,6.4,0.3,12.1"/>
	<path class="st1" d="M93.5,88.4c0,0,2.9-5.3,3.7-8.3"/>
	<path class="st1" d="M121,97.6c1.5-5,2.7-12.5,3.3-15.7l-17.7-4.6l-9.8,12"/>
	<g>
		<path class="st0" d="M117,61.2l5.2,2.2c1.3,0.6,2.8,0.1,3.6-1.2l4.9-8.5c0-0.1,0.1-0.2,0.1-0.2l4.7-10.2c1.2-2.7,0-5.8-2.7-7
			c0,0-6.7-2.9-8.9-3.8l0,0l-4.3,3.9c-0.3,0.3-0.6,0.6-0.7,1l-3.2,7.3c-0.1,0.3-0.2,0.7-0.2,1.1l-0.2,12.7
			C115.3,59.7,116,60.7,117,61.2z"/>
		<polyline class="st3" points="133.8,47.2 124.5,43.2 123.1,47.5 131.9,51.3 		"/>
	</g>
	<path class="st1" d="M117,61.2l5.2,2.2c1.3,0.6,2.8,0.1,3.6-1.2l4.9-8.5c0-0.1,0.1-0.2,0.1-0.2l4.7-10.2c1.2-2.7,0-5.8-2.7-7
		c0,0-6.7-2.9-8.9-3.8l0,0l-4.3,3.9c-0.3,0.3-0.6,0.6-0.7,1l-3.2,7.3c-0.1,0.3-0.2,0.7-0.2,1.1l-0.2,12.7
		C115.3,59.7,116,60.7,117,61.2z"/>
	<polyline class="st1" points="133.8,46.7 124.5,42.7 123.1,47.1 131.9,50.8 	"/>
	<g>
		<ellipse class="st1" cx="132.2" cy="119.2" rx="3.1" ry="4.6"/>
		<line class="st1" x1="151.9" y1="123.8" x2="132.3" y2="123.8"/>
		<line class="st1" x1="151.9" y1="114.6" x2="132.3" y2="114.6"/>
		<path class="st1" d="M151.9,114.6c1.7,0,3.1,2.1,3.1,4.6c0,2.5-1.4,4.6-3.1,4.6"/>
	</g>
	<line class="st1" x1="127.5" y1="127.3" x2="155.3" y2="127.3"/>
	<line class="st1" x1="137.8" y1="127.3" x2="137.8" y2="167.4"/>
	<g>
		<path class="st3" d="M97.4,90.6l15.9,6.7l-0.2,0.1c0.4-0.7,0.7-1,0.9-1.1c1.5-0.8,6.5,1.8,7.1,3.4c0.2,0.6-0.1,1.6-0.6,2.8l0,0.1
			c-1.1,2.3-3.1,5-4.5,5.7c-0.2,0.1-0.5,0.1-0.9,0.1c0,0,0,0-0.1,0c0,0-11.4-2.6-22.6-7.4"/>
	</g>
	<g>
		<line class="st1" x1="140.4" y1="85.1" x2="139.1" y2="87.4"/>
		<line class="st1" x1="128.6" y1="105.4" x2="124.2" y2="112.9"/>
		<line class="st1" x1="130.5" y1="102.2" x2="129.9" y2="103.1"/>
		<line class="st1" x1="141.9" y1="82.6" x2="145.1" y2="77.2"/>
		<line class="st1" x1="137.7" y1="89.8" x2="136.2" y2="92.5"/>
		<line class="st1" x1="146.5" y1="104.1" x2="141.9" y2="101.5"/>
		<line class="st1" x1="149.3" y1="105.7" x2="154.6" y2="108.9"/>
		<line class="st1" x1="139.3" y1="100" x2="138.5" y2="99.5"/>
		<line class="st1" x1="133.3" y1="72.1" x2="133.2" y2="85.9"/>
		<line class="st1" x1="133.2" y1="102.8" x2="133.2" y2="103.8"/>
		<line class="st1" x1="133.2" y1="89.9" x2="133.2" y2="91.3"/>
		<line class="st1" x1="145.2" y1="96.9" x2="144" y2="96.9"/>
		<line class="st1" x1="149.5" y1="96.9" x2="157.2" y2="96.9"/>
		<g>
			<line class="st1" x1="150.8" y1="87.5" x2="147.9" y2="89.1"/>
			<line class="st1" x1="128.6" y1="100.2" x2="126.2" y2="101.5"/>
			<line class="st1" x1="154.7" y1="85.2" x2="156.1" y2="84.4"/>
			<line class="st1" x1="145.8" y1="90.4" x2="138.5" y2="94.6"/>
		</g>
		<line class="st1" x1="136.2" y1="101.4" x2="140.1" y2="106.7"/>
		<line class="st1" x1="133.2" y1="106.8" x2="133.2" y2="110.5"/>
	</g>
	<line class="st1" x1="123.1" y1="91.6" x2="133.4" y2="97.6"/>
	<path class="st2" d="M112,97.7c0.4-0.7,1.2-1.6,1.4-1.8c1.5-0.9,6.8,1.9,7.4,3.5c0.2,0.6-0.1,1.7-0.7,2.9"/>
	<polygon class="st2" points="118.7,98.8 122.4,92.4 124.4,89 121.8,87.5 119.8,90.9 116,97.6 	"/>
	<path class="st1" d="M128.8,87.6c-0.4-13.9-12.3-30.7-28.9-26.6C87.7,64,82,83.9,82.8,94.8"/>
	<path class="st1" d="M82.8,94.7c7.3,5.7,23.1,10.7,32.5,13.1c0,0,0,0,0.1,0c0.3,0.1,0.6,0,0.8-0.1c1.2-0.7,3.1-3.2,4.1-5.2"/>
	<path class="st1" d="M92,88.3c3.4,0.9,16.3,7.4,21.4,11"/>
</g>
<g>
	<path class="st1" d="M106,111c-27,1,11,44-26,47"/>
</g>
</svg>
