<?xml version="1.0" encoding="utf-8"?>
<!-- Generator: Adobe Illustrator 24.2.0, SVG Export Plug-In . SVG Version: 6.00 Build 0)  -->
<svg version="1.1" id="Layer_1" xmlns="http://www.w3.org/2000/svg" xmlns:xlink="http://www.w3.org/1999/xlink" x="0px" y="0px"
	 viewBox="0 0 456 200" style="enable-background:new 0 0 456 200;" xml:space="preserve">
<style type="text/css">
	.st0{fill:#FFFFFF;stroke:#333F48;stroke-width:2;stroke-linecap:round;stroke-linejoin:round;stroke-miterlimit:10;}
	.st1{fill:#EAE8E5;stroke:#333F48;stroke-width:2;stroke-miterlimit:10;}
	.st2{fill:none;stroke:#333F48;stroke-width:2;stroke-linecap:round;stroke-linejoin:round;stroke-miterlimit:10;}
</style>
<line class="st0" x1="399.2" y1="44.2" x2="206.7" y2="44.2"/>
<line class="st0" x1="206.7" y1="36.5" x2="399.2" y2="36.5"/>
<path class="st1" d="M346.7,39h-19.5c-0.8,0-1.4-0.6-1.4-1.4v-9.1c0-0.8,0.6-1.4,1.4-1.4h19.5c0.8,0,1.4,0.6,1.4,1.4v9.1
	C348.1,38.4,347.5,39,346.7,39z"/>
<path class="st1" d="M350.2,47.7h-25.9c-1.4,0-2.5-1.1-2.5-2.5V34.5c0-1.4,1.1-2.5,2.5-2.5h25.9c1.4,0,2.5,1.1,2.5,2.5v10.7
	C352.7,46.6,351.5,47.7,350.2,47.7z"/>
<circle class="st1" cx="337.2" cy="44" r="11"/>
<line class="st0" x1="247.3" y1="44.2" x2="54.8" y2="44.2"/>
<line class="st0" x1="54.8" y1="36.5" x2="247.3" y2="36.5"/>
<path class="st1" d="M224.1,39h-19.5c-0.8,0-1.4-0.6-1.4-1.4v-9.1c0-0.8,0.6-1.4,1.4-1.4h19.5c0.8,0,1.4,0.6,1.4,1.4v9.1
	C225.6,38.4,224.9,39,224.1,39z"/>
<path class="st1" d="M227.3,47.7h-25.9c-1.4,0-2.5-1.1-2.5-2.5V34.5c0-1.4,1.1-2.5,2.5-2.5h25.9c1.4,0,2.5,1.1,2.5,2.5v10.7
	C229.8,46.6,228.7,47.7,227.3,47.7z"/>
<circle class="st1" cx="215.2" cy="44" r="11"/>
<path class="st1" d="M75.8,39h19.5c0.8,0,1.4-0.6,1.4-1.4v-9.1c0-0.8-0.6-1.4-1.4-1.4H75.8c-0.8,0-1.4,0.6-1.4,1.4v9.1
	C74.3,38.4,75,39,75.8,39z"/>
<path class="st1" d="M72.6,47.7h25.9c1.4,0,2.5-1.1,2.5-2.5V34.5c0-1.4-1.1-2.5-2.5-2.5H72.6c-1.4,0-2.5,1.1-2.5,2.5v10.7
	C70.1,46.6,71.2,47.7,72.6,47.7z"/>
<path class="st1" d="M394.7,162.4H245h-35.9H59.3c-2.5,0-4.5,2.4-4.5,5.3v0c0,2.9,2,5.3,4.5,5.3h149.8H245h149.8
	c2.5,0,4.5-2.4,4.5-5.3v0C399.2,164.8,397.2,162.4,394.7,162.4z"/>
<g>
	<circle class="st0" cx="258.4" cy="149.1" r="10.6"/>
	<circle class="st0" cx="343.8" cy="149.1" r="10.6"/>
	<path class="st1" d="M249.1,121.1c-0.7-0.8,4.1-5.3,5.4-5.8c3.1-1.1,40-4.5,48.7-1.1c8.8,4.1,19,10.8,18.1,12.2
		C319.8,128.6,254.1,127.5,249.1,121.1z"/>
	<line class="st0" x1="266" y1="114" x2="263.2" y2="124.8"/>
	<line class="st0" x1="289.3" y1="113.2" x2="291.3" y2="127"/>
	<line class="st0" x1="294.4" y1="130.4" x2="298.5" y2="130.4"/>
	<line class="st0" x1="264.6" y1="129.5" x2="268.7" y2="129.5"/>
	<path class="st0" d="M362.6,134.9c-0.3,1.3-2.4,1.3-5,0.7c-2.6-0.5-4.7-2.1-4.6-2.7c0.2-0.7,2.6-2,5.3-1.4S362.9,133.5,362.6,134.9
		z"/>
	<path class="st1" d="M235.8,126.7c2.6-0.7,7.5,0.1,7.4,2c-0.3,3.1-5.7,4-8,3.2"/>
	<polyline class="st0" points="293,152.3 293,134.4 291.2,127.1 	"/>
	<path class="st0" d="M262.1,136.4l-1.1-7.1c-0.1-0.5,0-1.1,0.3-1.6l1.6-2.9"/>
	<path class="st0" d="M324.4,152.4l0.9-19.6c0-0.6-0.1-1.2-0.5-1.7l-4-5.8"/>
	<path class="st2" d="M245.3,151.3c-0.1-0.7-0.2-1.5-0.2-2.3c0-7.3,5.9-13.2,13.2-13.2c7.3,0,13.2,5.9,13.2,13.2
		c0,1.2-0.5,3.2-0.5,3.2c7.8,0.2,30,0.1,59.8,0.1c0,0-0.3-2.1-0.3-3.3c0-7.3,5.9-13.2,13.2-13.2c7.3,0,13.2,5.9,13.2,13.2
		c0,1.1-0.6,3.1-0.6,3.1c4.3-0.7,5.7-1.3,7.8-2.8c0.6-0.4,1-1.1,1.1-1.8c0.5-3.4,1.7-13.4-1.2-15.6c-7.6-5.7-32.8-7.2-37.5-7.4
		c-0.5,0-1-0.2-1.4-0.5c-7.9-5.6-20.6-11.8-20.6-11.8c-7.9-3.4-47.5-3.5-58.7,3.1c-3,1.8-6.7,6.1-10,10.5c-0.3,0.4-0.5,0.9-0.5,1.4
		c-0.2,2.3-0.8,9-1.1,9.8c-1.1,2.8-1.5,7.3-1.6,10c-0.1,1.2,0.7,2.3,1.9,2.7c3.6,1.2,5.6,1.5,10.7,1.9L245.3,151.3z"/>
	<circle class="st1" cx="258.4" cy="149.1" r="5.4"/>
	<circle class="st1" cx="343.8" cy="149.1" r="5.4"/>
</g>
<g>
	<circle class="st0" cx="219.4" cy="167.7" r="2.5"/>
	<circle class="st0" cx="234.6" cy="167.7" r="2.5"/>
	<circle class="st0" cx="249.8" cy="167.7" r="2.5"/>
	<circle class="st0" cx="265" cy="167.7" r="2.5"/>
	<circle class="st0" cx="280.2" cy="167.7" r="2.5"/>
	<circle class="st0" cx="295.4" cy="167.7" r="2.5"/>
	<circle class="st0" cx="310.6" cy="167.7" r="2.5"/>
	<circle class="st0" cx="325.8" cy="167.7" r="2.5"/>
	<circle class="st0" cx="341" cy="167.7" r="2.5"/>
	<circle class="st0" cx="356.2" cy="167.7" r="2.5"/>
	<circle class="st0" cx="371.4" cy="167.7" r="2.5"/>
	<circle class="st0" cx="386.6" cy="167.7" r="2.5"/>
</g>
<circle class="st0" cx="348.6" cy="98.5" r="8.2"/>
<g>
	
		<rect x="355.6" y="95.4" transform="matrix(0.9393 0.3432 -0.3432 0.9393 56.5478 -117.0784)" class="st0" width="6.9" height="11.6"/>
	
		<rect x="354.2" y="106.5" transform="matrix(0.9393 0.3432 -0.3432 0.9393 58.8763 -115.728)" class="st0" width="4.3" height="3.9"/>
	<line class="st0" x1="352.2" y1="120" x2="355.7" y2="110.3"/>
</g>
<g>
	<path class="st0" d="M330.6,47.1c-1.5-3.7,0.4-8,4.1-9.4c3.7-1.5,8,0.4,9.4,4.1l8.8,27.7c0,0,0,0.1,0,0.1c1.1,2.8-0.3,5.9-3,6.9
		c-2.7,1.1-5.8-0.3-6.9-3l0,0L330.6,47.1z"/>
	<circle class="st0" cx="337.3" cy="44.5" r="3.4"/>
	<circle class="st0" cx="348" cy="71.6" r="2.5"/>
</g>
<g>
	<path class="st0" d="M341.8,71c0.2-4,3.7-7,7.7-6.8c4,0.2,7,3.7,6.8,7.7l-3.4,24.5c0,0,0,0.1,0,0.1c-0.2,2.9-2.7,5.2-5.6,5
		c-2.9-0.2-5.1-2.7-5-5.6l0,0L341.8,71z"/>
	<circle class="st0" cx="349" cy="71.4" r="3.4"/>
	<circle class="st0" cx="347.6" cy="96.2" r="2.5"/>
</g>
<path class="st2" d="M335,58c-15,10-4,27.2,4.6,23.2"/>
<g>
	<line class="st0" x1="355" y1="123" x2="358.4" y2="125.4"/>
	<line class="st0" x1="348.2" y1="120.2" x2="344" y2="120.6"/>
	<line class="st0" x1="345.2" y1="114" x2="349.3" y2="117.5"/>
	<line class="st0" x1="361.2" y1="119.5" x2="356" y2="120"/>
</g>
<g>
	<circle class="st0" cx="106.4" cy="149.1" r="10.6"/>
	<circle class="st0" cx="191.8" cy="149.1" r="10.6"/>
	<circle class="st1" cx="106.4" cy="149.1" r="5.4"/>
	<path class="st1" d="M97.1,121.1c-0.7-0.8,4.1-5.3,5.4-5.8c3.1-1.1,40-4.5,48.7-1.1c8.8,4.1,19,10.8,18.1,12.2
		C167.8,128.6,102.1,127.5,97.1,121.1z"/>
	<line class="st0" x1="114.1" y1="114" x2="111.3" y2="124.8"/>
	<line class="st0" x1="137.4" y1="113.2" x2="139.3" y2="127"/>
	<line class="st0" x1="142.5" y1="130.4" x2="146.6" y2="130.4"/>
	<line class="st0" x1="112.7" y1="129.5" x2="116.8" y2="129.5"/>
	<path class="st0" d="M210.6,134.9c-0.3,1.3-2.4,1.3-5,0.7c-2.6-0.5-4.7-2.1-4.6-2.7c0.2-0.7,2.6-2,5.3-1.4
		C209,132,210.9,133.5,210.6,134.9z"/>
	<path class="st1" d="M83.8,126.7c2.6-0.7,7.5,0.1,7.4,2c-0.3,3.1-5.7,4-8,3.2"/>
	<polyline class="st0" points="141,152.3 141,134.4 139.2,127.1 	"/>
	<path class="st0" d="M110.2,136.4l-1.1-7.1c-0.1-0.5,0-1.1,0.3-1.6l1.6-2.9"/>
	<path class="st0" d="M172.5,152.4l0.9-19.6c0-0.6-0.1-1.2-0.5-1.7l-4-5.8"/>
	<path class="st2" d="M93.4,151.3c-0.1-0.7-0.2-1.5-0.2-2.3c0-7.3,5.9-13.2,13.2-13.2s13.2,5.9,13.2,13.2c0,1.2-0.5,3.2-0.5,3.2
		c7.8,0.2,30,0.1,59.8,0.1c0,0-0.3-2.1-0.3-3.3c0-7.3,5.9-13.2,13.2-13.2c7.3,0,13.2,5.9,13.2,13.2c0,1.1-0.6,3.1-0.6,3.1
		c4.3-0.7,5.7-1.3,7.8-2.8c0.6-0.4,1-1.1,1.1-1.8c0.5-3.4,1.7-13.4-1.2-15.6c-7.6-5.7-32.8-7.2-37.5-7.4c-0.5,0-1-0.2-1.4-0.5
		c-7.9-5.6-20.6-11.8-20.6-11.8c-7.9-3.4-47.5-3.5-58.7,3.1c-3,1.8-6.7,6.1-10,10.5c-0.3,0.4-0.5,0.9-0.5,1.4
		c-0.2,2.3-0.8,9-1.1,9.8c-1.1,2.8-1.5,7.3-1.6,10c-0.1,1.2,0.7,2.3,1.9,2.7c3.6,1.2,5.6,1.5,10.7,1.9L93.4,151.3z"/>
	<circle class="st1" cx="191.8" cy="149.1" r="5.4"/>
</g>
<g>
	<polygon class="st0" points="215.5,104.2 209.3,91.1 221.3,98.6 	"/>
	<polygon class="st0" points="226.6,107.8 208,120 222.6,103.5 	"/>
	<path class="st0" d="M220.1,113.8l0.6-7.9c0.1-0.9,0.8-1.5,1.6-1.5l8.2-0.3c0.5,0,1,0.2,1.3,0.5l4.3,4.7c0.6,0.7,0.6,1.7-0.1,2.4
		l-8.8,8.2c-0.7,0.6-1.7,0.6-2.4-0.1l-4.3-4.7C220.2,114.7,220.1,114.2,220.1,113.8z"/>
	<circle class="st0" cx="220.6" cy="103.8" r="5.5"/>
	<circle class="st0" cx="220.6" cy="103.8" r="2.3"/>
</g>
<circle class="st0" cx="102.9" cy="84.4" r="8.2"/>
<g>
	<rect x="106.2" y="78.9" class="st0" width="6.9" height="11.6"/>
	<rect x="107.5" y="90.5" class="st0" width="4.3" height="3.9"/>
	<line class="st0" x1="109.6" y1="104.7" x2="109.6" y2="94.4"/>
</g>
<path class="st0" d="M221.8,42.3c-0.9-3.9-4.8-6.4-8.7-5.5s-6.4,4.8-5.5,8.7l8.4,27.8c0,0,0,0.1,0,0.1c0.7,2.9,3.5,4.7,6.4,4
	c2.9-0.7,4.7-3.5,4-6.4l0,0L221.8,42.3z"/>
<circle class="st0" cx="214.8" cy="43.9" r="3.4"/>
<circle class="st0" cx="221.3" cy="72.3" r="2.5"/>
<g>
	<path class="st0" d="M227.1,74.2c1.5-3.6-0.3-7.7-3.9-9.2c-3.6-1.5-7.7,0.3-9.2,3.9l-7.4,23c0,0,0,0.1,0,0.1
		c-1.1,2.7,0.2,5.7,2.8,6.8c2.6,1.1,5.7-0.2,6.8-2.8l0,0L227.1,74.2z"/>
	<circle class="st0" cx="220.6" cy="71.5" r="3.3"/>
	<circle class="st0" cx="211.4" cy="93.9" r="2.5"/>
</g>
<path class="st2" d="M224.1,53.2c19.7-0.5,10.4,31.8,0.8,27.4"/>
<circle class="st1" cx="85.2" cy="44" r="11"/>
<g>
	<path class="st0" d="M78.1,42.3c0.9-3.9,4.8-6.4,8.7-5.5s6.4,4.8,5.5,8.7l-8.4,27.8c0,0,0,0.1,0,0.1c-0.7,2.9-3.5,4.7-6.4,4
		c-2.9-0.7-4.7-3.5-4-6.4l0,0L78.1,42.3z"/>
	<circle class="st0" cx="85.2" cy="43.9" r="3.4"/>
	<circle class="st0" cx="78.6" cy="72.3" r="2.5"/>
</g>
<g>
	<path class="st0" d="M74.7,77.7c-2.9-2.2-3.5-6.4-1.3-9.3c2.2-2.9,6.4-3.5,9.3-1.3l17,15.1c0,0,0.1,0,0.1,0
		c2.2,1.6,2.6,4.7,0.9,6.8c-1.6,2.1-4.7,2.6-6.8,1l0,0L74.7,77.7z"/>
	<circle class="st0" cx="78.7" cy="72.4" r="3.1"/>
	<circle class="st0" cx="96.8" cy="86.1" r="2.3"/>
</g>
<path class="st2" d="M75.9,53.2c-23.6,4-10.3,28.3-1.7,24.3"/>
<line class="st0" x1="114" y1="104.8" x2="120" y2="106.1"/>
<line class="st0" x1="106.6" y1="106.3" x2="102.5" y2="109"/>
<line class="st0" x1="100.1" y1="101.5" x2="106.2" y2="102.9"/>
<line class="st0" x1="118.6" y1="99.1" x2="112.9" y2="102.5"/>
<g>
	<circle class="st0" cx="67.5" cy="167.7" r="2.5"/>
	<circle class="st0" cx="82.7" cy="167.7" r="2.5"/>
	<circle class="st0" cx="97.9" cy="167.7" r="2.5"/>
	<circle class="st0" cx="113.1" cy="167.7" r="2.5"/>
	<circle class="st0" cx="128.2" cy="167.7" r="2.5"/>
	<circle class="st0" cx="143.4" cy="167.7" r="2.5"/>
	<circle class="st0" cx="158.6" cy="167.7" r="2.5"/>
	<circle class="st0" cx="173.8" cy="167.7" r="2.5"/>
	<circle class="st0" cx="189" cy="167.7" r="2.5"/>
	<circle class="st0" cx="204.2" cy="167.7" r="2.5"/>
	<circle class="st0" cx="219.4" cy="167.7" r="2.5"/>
	<circle class="st0" cx="234.6" cy="167.7" r="2.5"/>
</g>
<g>
	<line class="st2" x1="203.1" y1="123.7" x2="205.3" y2="122"/>
	<line class="st2" x1="201.6" y1="120.2" x2="204.3" y2="119.8"/>
	<line class="st2" x1="206.1" y1="126" x2="207.2" y2="123.4"/>
</g>
</svg>
