<svg width="60" height="60" viewBox="0 0 60 60" fill="none" xmlns="http://www.w3.org/2000/svg">
<mask id="path-1-inside-1" fill="white">
<path d="M54.6958 40.6248L42.5806 37.9338V36.0068C44.423 34.8018 45.8661 33.0426 46.6798 30.9668H49.3548C51.4897 30.9668 53.2258 29.2307 53.2258 27.0958V20.3216C53.2258 18.895 52.4419 17.6603 51.2903 16.9889V12.7569C51.2903 10.6489 50.0305 8.77061 48.1163 7.9588L47.8857 7.49714C45.5798 2.88477 40.9433 0.0193481 35.7861 0.0193481C28.3268 0.0202933 22.258 6.089 22.258 13.5484V16.9898C21.1065 17.6613 20.3226 18.896 20.3226 20.3226V27.0968C20.3226 29.2316 22.0586 30.9677 24.1935 30.9677H26.8685C27.6822 33.0435 29.1253 34.8028 30.9677 36.0077V37.9347L18.8525 40.6258C15.7296 41.3194 13.5484 44.0398 13.5484 47.2384V60H60V47.2384C60 44.0398 57.8188 41.3194 54.6958 40.6248V40.6248ZM43.4127 40.1013L41.9748 45.8524L38.2924 43.3986L41.9214 39.7695L43.4127 40.1013ZM35.6321 50.3226H37.9172L39.4652 58.0645H34.0841L35.6321 50.3226ZM37.9541 48.3871H35.5943L34.9743 45.9105L36.7742 44.7117L38.5731 45.9115L37.9541 48.3871ZM51.2903 27.0968C51.2903 28.1642 50.4223 29.0322 49.3548 29.0322H47.2346C47.3508 28.4033 47.4193 27.7588 47.4193 27.0968V18.3871H49.3548C50.4223 18.3871 51.2903 19.2551 51.2903 20.3226V27.0968ZM24.1935 13.5484C24.1935 7.15645 29.3942 1.95578 35.7861 1.95578C40.2047 1.95578 44.1782 4.41104 46.1544 8.36423L46.7342 9.52146L47.1145 9.64857C48.4537 10.0956 49.3548 11.345 49.3548 12.7588V16.4516H47.4193V13.5484H45.4838V15.8321C44.7628 16.2011 43.9751 16.4081 43.1633 16.4379C43.6093 16.0315 44.011 15.5689 44.3536 15.0534L42.7432 13.9798C41.7485 15.472 40.106 16.376 38.3227 16.4398C38.7697 16.0325 39.1713 15.5689 39.5148 15.0534L37.9045 13.9798C36.9098 15.472 35.2673 16.376 33.4839 16.4398C33.931 16.0325 34.3326 15.5689 34.6761 15.0534L33.0658 13.9798C32.0342 15.5273 30.3067 16.4516 28.4468 16.4516H28.0645V13.5484H26.129V16.4516H24.1935V13.5484ZM24.1935 29.0322C23.1261 29.0322 22.258 28.1642 22.258 27.0968V20.3226C22.258 19.2551 23.1261 18.3871 24.1935 18.3871H26.129V27.0968C26.129 27.7588 26.1975 28.4033 26.3138 29.0322H24.1935ZM28.0645 27.0968V18.3871H28.4468C29.6843 18.3871 30.8765 18.0813 31.9355 17.5238V18.3871H33.2855C34.523 18.3871 35.7152 18.0813 36.7742 17.5238V18.3871H38.1242C39.3617 18.3871 40.5539 18.0813 41.6129 17.5238V18.3871H42.9629C43.83 18.3871 44.6777 18.2198 45.4838 17.9301V27.0968C45.4838 27.7625 45.4016 28.409 45.2594 29.0322H40.466C40.0653 27.9086 39.0007 27.0968 37.741 27.0968H35.8055C34.205 27.0968 32.9023 28.3995 32.9023 30C32.9023 31.6004 34.205 32.9032 35.8055 32.9032H37.741C39.0007 32.9032 40.0653 32.0914 40.466 30.9677H44.5643C43.1363 33.8303 40.1844 35.8064 36.7742 35.8064C31.9714 35.8064 28.0645 31.8995 28.0645 27.0968V27.0968ZM38.7097 30C38.7097 30.533 38.2759 30.9677 37.7419 30.9677H35.8064C35.2725 30.9677 34.8387 30.533 34.8387 30C34.8387 29.467 35.2725 29.0322 35.8064 29.0322H37.7419C38.2759 29.0322 38.7097 29.467 38.7097 30ZM36.7742 37.7419C38.1407 37.7419 39.443 37.474 40.6451 37.0024V38.3089L36.7742 42.1799L32.9032 38.3089V37.0024C34.1053 37.474 35.4076 37.7419 36.7742 37.7419V37.7419ZM31.6269 39.7695L35.2559 43.3986L31.5735 45.8524L30.1356 40.1013L31.6269 39.7695ZM15.4839 47.2384C15.4839 44.9537 17.0418 43.0102 19.2726 42.5149L28.2464 40.5204L30.3619 48.9862L33.2652 47.0508L33.8468 49.3789L32.1098 58.0645H23.2258V47.4193H21.2903V58.0645H15.4839V47.2384ZM58.0645 58.0645H52.258V47.4193H50.3226V58.0645H41.4385L39.7015 49.3789L40.2832 47.0508L43.1864 48.9862L45.3019 40.5204L54.2757 42.5149C56.5066 43.0102 58.0645 44.9537 58.0645 47.2384V58.0645Z"/>
</mask>
<path d="M54.6958 40.6248L42.5806 37.9338V36.0068C44.423 34.8018 45.8661 33.0426 46.6798 30.9668H49.3548C51.4897 30.9668 53.2258 29.2307 53.2258 27.0958V20.3216C53.2258 18.895 52.4419 17.6603 51.2903 16.9889V12.7569C51.2903 10.6489 50.0305 8.77061 48.1163 7.9588L47.8857 7.49714C45.5798 2.88477 40.9433 0.0193481 35.7861 0.0193481C28.3268 0.0202933 22.258 6.089 22.258 13.5484V16.9898C21.1065 17.6613 20.3226 18.896 20.3226 20.3226V27.0968C20.3226 29.2316 22.0586 30.9677 24.1935 30.9677H26.8685C27.6822 33.0435 29.1253 34.8028 30.9677 36.0077V37.9347L18.8525 40.6258C15.7296 41.3194 13.5484 44.0398 13.5484 47.2384V60H60V47.2384C60 44.0398 57.8188 41.3194 54.6958 40.6248V40.6248ZM43.4127 40.1013L41.9748 45.8524L38.2924 43.3986L41.9214 39.7695L43.4127 40.1013ZM35.6321 50.3226H37.9172L39.4652 58.0645H34.0841L35.6321 50.3226ZM37.9541 48.3871H35.5943L34.9743 45.9105L36.7742 44.7117L38.5731 45.9115L37.9541 48.3871ZM51.2903 27.0968C51.2903 28.1642 50.4223 29.0322 49.3548 29.0322H47.2346C47.3508 28.4033 47.4193 27.7588 47.4193 27.0968V18.3871H49.3548C50.4223 18.3871 51.2903 19.2551 51.2903 20.3226V27.0968ZM24.1935 13.5484C24.1935 7.15645 29.3942 1.95578 35.7861 1.95578C40.2047 1.95578 44.1782 4.41104 46.1544 8.36423L46.7342 9.52146L47.1145 9.64857C48.4537 10.0956 49.3548 11.345 49.3548 12.7588V16.4516H47.4193V13.5484H45.4838V15.8321C44.7628 16.2011 43.9751 16.4081 43.1633 16.4379C43.6093 16.0315 44.011 15.5689 44.3536 15.0534L42.7432 13.9798C41.7485 15.472 40.106 16.376 38.3227 16.4398C38.7697 16.0325 39.1713 15.5689 39.5148 15.0534L37.9045 13.9798C36.9098 15.472 35.2673 16.376 33.4839 16.4398C33.931 16.0325 34.3326 15.5689 34.6761 15.0534L33.0658 13.9798C32.0342 15.5273 30.3067 16.4516 28.4468 16.4516H28.0645V13.5484H26.129V16.4516H24.1935V13.5484ZM24.1935 29.0322C23.1261 29.0322 22.258 28.1642 22.258 27.0968V20.3226C22.258 19.2551 23.1261 18.3871 24.1935 18.3871H26.129V27.0968C26.129 27.7588 26.1975 28.4033 26.3138 29.0322H24.1935ZM28.0645 27.0968V18.3871H28.4468C29.6843 18.3871 30.8765 18.0813 31.9355 17.5238V18.3871H33.2855C34.523 18.3871 35.7152 18.0813 36.7742 17.5238V18.3871H38.1242C39.3617 18.3871 40.5539 18.0813 41.6129 17.5238V18.3871H42.9629C43.83 18.3871 44.6777 18.2198 45.4838 17.9301V27.0968C45.4838 27.7625 45.4016 28.409 45.2594 29.0322H40.466C40.0653 27.9086 39.0007 27.0968 37.741 27.0968H35.8055C34.205 27.0968 32.9023 28.3995 32.9023 30C32.9023 31.6004 34.205 32.9032 35.8055 32.9032H37.741C39.0007 32.9032 40.0653 32.0914 40.466 30.9677H44.5643C43.1363 33.8303 40.1844 35.8064 36.7742 35.8064C31.9714 35.8064 28.0645 31.8995 28.0645 27.0968V27.0968ZM38.7097 30C38.7097 30.533 38.2759 30.9677 37.7419 30.9677H35.8064C35.2725 30.9677 34.8387 30.533 34.8387 30C34.8387 29.467 35.2725 29.0322 35.8064 29.0322H37.7419C38.2759 29.0322 38.7097 29.467 38.7097 30ZM36.7742 37.7419C38.1407 37.7419 39.443 37.474 40.6451 37.0024V38.3089L36.7742 42.1799L32.9032 38.3089V37.0024C34.1053 37.474 35.4076 37.7419 36.7742 37.7419V37.7419ZM31.6269 39.7695L35.2559 43.3986L31.5735 45.8524L30.1356 40.1013L31.6269 39.7695ZM15.4839 47.2384C15.4839 44.9537 17.0418 43.0102 19.2726 42.5149L28.2464 40.5204L30.3619 48.9862L33.2652 47.0508L33.8468 49.3789L32.1098 58.0645H23.2258V47.4193H21.2903V58.0645H15.4839V47.2384ZM58.0645 58.0645H52.258V47.4193H50.3226V58.0645H41.4385L39.7015 49.3789L40.2832 47.0508L43.1864 48.9862L45.3019 40.5204L54.2757 42.5149C56.5066 43.0102 58.0645 44.9537 58.0645 47.2384V58.0645Z" fill="black" stroke="white" stroke-width="0.4" mask="url(#path-1-inside-1)"/>
<path d="M43.5483 21.2903C43.5483 21.8247 43.115 22.2581 42.5806 22.2581C42.0462 22.2581 41.6129 21.8247 41.6129 21.2903C41.6129 20.7559 42.0462 20.3226 42.5806 20.3226C43.115 20.3226 43.5483 20.7559 43.5483 21.2903Z" fill="black"/>
<path d="M31.9355 21.2903C31.9355 21.8247 31.5022 22.2581 30.9677 22.2581C30.4333 22.2581 30 21.8247 30 21.2903C30 20.7559 30.4333 20.3226 30.9677 20.3226C31.5022 20.3226 31.9355 20.7559 31.9355 21.2903Z" fill="black"/>
<path d="M3.97102 3.97097H13.4484V5.70646H3.97102V3.97097Z" fill="black" stroke="white" stroke-width="0.2"/>
<path d="M3.97102 7.84194H13.4484V9.57743H3.97102V7.84194Z" fill="black" stroke="white" stroke-width="0.2"/>
<path d="M14.5161 13.4484H14.4161V13.5484V16.9461L8.03084 13.4606L8.00844 13.4484H7.98293H0.1V0.1H17.3194V13.4484H14.5161ZM1.93548 1.83548H1.83548V1.93548V11.6129V11.7129H1.93548H8.45073L12.5327 13.9409L12.6806 14.0217V13.8532V11.7129H15.4839H15.5839V11.6129V1.93548V1.83548H15.4839H1.93548Z" fill="black" stroke="white" stroke-width="0.2"/>
</svg>
